<svg xmlns="http://www.w3.org/2000/svg" xmlns:xlink="http://www.w3.org/1999/xlink" width="705" height="490.584" viewBox="0 0 705 490.584">
  <defs>
    <linearGradient id="linear-gradient" x1="-12.69" y1="8.022" x2="-11.884" y2="8.435" gradientUnits="objectBoundingBox">
      <stop offset="0" stop-color="#f2f8fc"/>
      <stop offset="1" stop-color="#94c7f2"/>
    </linearGradient>
    <linearGradient id="linear-gradient-2" x1="-9.962" y1="6.669" x2="-9.155" y2="7.082" xlink:href="#linear-gradient"/>
  </defs>
  <g id="Grupo_10889" data-name="Grupo 10889" transform="translate(-88.263 -131.027)">
    <ellipse id="Elipse_630" data-name="Elipse 630" cx="352.5" cy="11.675" rx="352.5" ry="11.675" transform="translate(88.263 598.26)" fill="#7178a0" opacity="0.5"/>
    <g id="Grupo_10882" data-name="Grupo 10882" transform="translate(147.124 336.652)">
      <g id="Grupo_10864" data-name="Grupo 10864" transform="translate(0 0.824)">
        <g id="Grupo_10863" data-name="Grupo 10863">
          <g id="Grupo_10862" data-name="Grupo 10862">
            <g id="Grupo_10848" data-name="Grupo 10848" transform="translate(74.498 39.711)">
              <path id="Trazado_20863" data-name="Trazado 20863" d="M264.914,381.543l15.115-2.048a3.483,3.483,0,0,1,3.889,2.808l1.488,7.921a1.451,1.451,0,0,1-1.361,1.716h-.029a1.45,1.45,0,0,1-1.477-1.123l-1.06-4.613-7.661.646,3.484,1.421a1.238,1.238,0,0,1,.734,1.437l-.006.024a1.236,1.236,0,0,1-1.665.856l-4.411-1.781-3.564-.177a4.029,4.029,0,0,1-3.3-2.026l-.012-.019-10.019.755.376-5.375Z" transform="translate(-189.359 -329.133)" fill="#fff"/>
              <path id="Trazado_20864" data-name="Trazado 20864" d="M200.008,342.712l6.813,58.486,66.812-4.642a3.768,3.768,0,0,0,3.5-3.519l0-.074a3.769,3.769,0,0,0-3.87-4.009l-56.1,1.63-5.225-53.294Z" transform="translate(-200.008 -337.29)" fill="#022651"/>
            </g>
            <g id="Grupo_10853" data-name="Grupo 10853" transform="translate(0 53.209)">
              <g id="Grupo_10851" data-name="Grupo 10851" transform="translate(17.062 123.679)">
                <g id="Grupo_10849" data-name="Grupo 10849" transform="translate(0 79.265)">
                  <rect id="Rectángulo_2371" data-name="Rectángulo 2371" width="3.28" height="9.132" transform="translate(7.359)" fill="#fff"/>
                  <path id="Trazado_20865" data-name="Trazado 20865" d="M151.881,529.11a5.851,5.851,0,1,0,5.851-5.853A5.851,5.851,0,0,0,151.881,529.11Z" transform="translate(-151.881 -517.761)" fill="#002b6a"/>
                </g>
                <g id="Grupo_10850" data-name="Grupo 10850" transform="translate(78.26 79.265)">
                  <rect id="Rectángulo_2372" data-name="Rectángulo 2372" width="3.281" height="9.132" transform="translate(1.063)" fill="#fff"/>
                  <path id="Trazado_20866" data-name="Trazado 20866" d="M229.16,529.11a5.851,5.851,0,1,1-5.851-5.853A5.851,5.851,0,0,1,229.16,529.11Z" transform="translate(-217.457 -517.761)" fill="#002b6a"/>
                </g>
                <rect id="Rectángulo_2373" data-name="Rectángulo 2373" width="3.28" height="9.132" transform="translate(43.46 79.265)" fill="#fff"/>
                <rect id="Rectángulo_2374" data-name="Rectángulo 2374" width="5.734" height="11.704" rx="1.226" transform="translate(42.233 84.762)" fill="#002b6a"/>
                <rect id="Rectángulo_2375" data-name="Rectángulo 2375" width="12.058" height="31.209" transform="translate(39.012 47.937)" fill="#fff"/>
                <rect id="Rectángulo_2376" data-name="Rectángulo 2376" width="15.132" height="50.892" transform="translate(37.475)" fill="#002b6a"/>
                <rect id="Rectángulo_2377" data-name="Rectángulo 2377" width="15.132" height="8.512" transform="translate(37.475 72.881)" fill="#002b6a"/>
                <rect id="Rectángulo_2378" data-name="Rectángulo 2378" width="80.742" height="4.256" rx="1.765" transform="translate(4.729 77.137)" fill="#002b6a"/>
              </g>
              <g id="Grupo_10852" data-name="Grupo 10852">
                <path id="Trazado_20867" data-name="Trazado 20867" d="M212.351,482.736H161.578L146.624,348.6h47.169Z" transform="translate(-135.836 -348.601)" fill="#a50212"/>
                <rect id="Rectángulo_2379" data-name="Rectángulo 2379" width="124.483" height="20.924" rx="8.679" transform="translate(17.062 113.217)" fill="#a50212"/>
                <path id="Trazado_20868" data-name="Trazado 20868" d="M174.986,470.847,158.4,357.46a10.357,10.357,0,0,0-11.785-8.743l-.208.031a10.358,10.358,0,0,0-8.711,11.742l16.587,113.386a10.357,10.357,0,0,0,11.786,8.744l.206-.031A10.357,10.357,0,0,0,174.986,470.847Z" transform="translate(-137.584 -348.601)" fill="#e30613"/>
                <path id="Trazado_20869" data-name="Trazado 20869" d="M214.807,470.847,198.219,357.46a10.357,10.357,0,0,0-11.786-8.743l-.206.031a10.357,10.357,0,0,0-8.711,11.742L194.1,473.876a10.357,10.357,0,0,0,11.785,8.744l.208-.031A10.358,10.358,0,0,0,214.807,470.847Z" transform="translate(-129.882 -348.601)" fill="#a50212"/>
                <rect id="Rectángulo_2380" data-name="Rectángulo 2380" width="69.503" height="20.924" rx="8.679" transform="translate(17.062 113.217)" fill="#e30613"/>
              </g>
            </g>
            <g id="Grupo_10858" data-name="Grupo 10858" transform="translate(23.579)">
              <g id="Grupo_10854" data-name="Grupo 10854" transform="translate(46.809 136.729)">
                <path id="Trazado_20870" data-name="Trazado 20870" d="M260.783,527.462v6.589h4.308v-3.295l2.9,3.295h10.465a2.551,2.551,0,0,0-2.55-2.552H271.6l-1.4-4.037Z" transform="translate(-184.143 -397.524)" fill="#002d59"/>
                <path id="Trazado_20871" data-name="Trazado 20871" d="M204.161,418.584h70.024a14.954,14.954,0,0,1,14.93,15.8l-6.495,114.134H273.2s-20.057-89.353-3.016-99.2l-56.672.2c-16.473.057-23.244-21.113-9.794-30.624Z" transform="translate(-196.564 -418.584)" fill="#002d59"/>
              </g>
              <g id="Grupo_10855" data-name="Grupo 10855" transform="translate(22.186 136.729)">
                <path id="Trazado_20872" data-name="Trazado 20872" d="M240.151,527.462v6.589h4.308v-3.295l2.9,3.295h10.465a2.551,2.551,0,0,0-2.55-2.552h-4.309l-1.4-4.037Z" transform="translate(-163.511 -397.524)" fill="#002b6a"/>
                <path id="Trazado_20873" data-name="Trazado 20873" d="M183.529,418.584h70.024a14.954,14.954,0,0,1,14.93,15.8l-6.495,114.134h-9.416s-20.057-89.353-3.016-99.2l-56.672.2c-16.473.057-23.244-21.113-9.794-30.624Z" transform="translate(-175.932 -418.584)" fill="#002b6a"/>
              </g>
              <path id="Trazado_20874" data-name="Trazado 20874" d="M204.453,332.715l3.577-.831-3.014,2.18Z" transform="translate(-148.23 -298.625)" fill="#04579b"/>
              <path id="Trazado_20875" data-name="Trazado 20875" d="M222.038,332.714s11.675,7.347,13.035,26.075S217,413.708,216.043,418.4s-8.079-23.705-4.36-37.083S217.16,332.466,222.038,332.714Z" transform="translate(-147.038 -298.465)" fill="#002b6a"/>
              <path id="Trazado_20876" data-name="Trazado 20876" d="M228.141,333.473s11.182,19.579,5.835,41.433-6.993,33.989-6.657,45.662.55,14.927.55,14.927H182.576s5.559-54.14,4.278-64.444,8.844-26.986,14.613-30.787S226.239,329.525,228.141,333.473Z" transform="translate(-152.461 -298.545)" fill="url(#linear-gradient)"/>
              <path id="Trazado_20877" data-name="Trazado 20877" d="M220.251,418.584" transform="translate(-145.174 -281.855)" fill="#fff"/>
              <path id="Trazado_20878" data-name="Trazado 20878" d="M220.911,335.609l3.76,12.984-3.577-5.015-2.219,4.975a21.287,21.287,0,0,1,.321-7.644C220.161,337.555,220.911,335.609,220.911,335.609Z" transform="translate(-145.48 -297.905)" fill="#078eea"/>
              <g id="Grupo_10857" data-name="Grupo 10857" transform="translate(54.551)">
                <g id="Grupo_10856" data-name="Grupo 10856">
                  <path id="Trazado_20879" data-name="Trazado 20879" d="M216.437,309.358h0a13.868,13.868,0,0,1,13.436-5.115l11.186,2.049a5.555,5.555,0,0,1,3.232,9.063l-2.584,3.038Z" transform="translate(-200.462 -304.016)" fill="#002b6a"/>
                  <path id="Trazado_20880" data-name="Trazado 20880" d="M220.171,306.952s-3.151-2.506-7.165,2.445.789,21.034-3.312,25.972c0,0,15.713-.094,20.244-4.35s10.546-15.436,1.456-18.929S220.171,306.952,220.171,306.952Z" transform="translate(-201.767 -303.57)" fill="#002b6a"/>
                  <path id="Trazado_20881" data-name="Trazado 20881" d="M239.425,340.387l-9.856-1.163L219,350.472,203.052,338l21.528-18.281Z" transform="translate(-203.052 -300.977)" fill="#f2f8fc"/>
                  <path id="Trazado_20882" data-name="Trazado 20882" d="M241.459,312.506s1.764,5.787,1.289,6.947-1.315,1.949-1.278,2.522c.03.454,1.948,5.823,2.733,8a1.085,1.085,0,0,1-.718,1.423,8.413,8.413,0,0,1-1.678.2c-1.476.058-1.582,2.957-1.582,2.957l-.945,6.244a1.9,1.9,0,0,1-2.271,1.584c-4.542-.948-15.411-3.546-16.2-6.867-1.006-4.208,1.806-11.938,1.806-11.938l-2.38-2.055a1.988,1.988,0,0,1-.134-2.885l.027-.029a1.99,1.99,0,0,1,2.692-.162l2.64,2.156-.659,4.354a1.706,1.706,0,0,0,1.432,1.94l.017,0a1.693,1.693,0,0,0,1.861-1.146L229.6,315.56l-2.685-5.255Z" transform="translate(-199.862 -302.799)" fill="#fff"/>
                  <path id="Trazado_20883" data-name="Trazado 20883" d="M237.479,328.424l.53,2.078a.378.378,0,0,1-.168.418l-.538.333s.69,1.166-.175,1.719-1.637,1.1-1.637,1.1Z" transform="translate(-196.777 -299.294)" fill="#fff"/>
                  <path id="Trazado_20884" data-name="Trazado 20884" d="M237.705,318.883s-3.268-.481-4.8.6a14.693,14.693,0,0,0,3.3,1.609C237.3,321.306,237.705,318.883,237.705,318.883Z" transform="translate(-197.277 -301.16)" fill="#002b6a"/>
                </g>
              </g>
              <path id="Trazado_20885" data-name="Trazado 20885" d="M205.153,332.58l11.886,9.652-5.738,7.722-10.443-12.519Z" transform="translate(-148.925 -298.491)" fill="#078eea"/>
              <path id="Trazado_20886" data-name="Trazado 20886" d="M222.294,342.6l-7.5-1.933-2.328,3.135s2.42,5.04,5.861,4.542S222.7,344.074,222.294,342.6Z" transform="translate(-146.68 -296.926)" fill="#e30613"/>
              <path id="Trazado_20887" data-name="Trazado 20887" d="M221.063,346.538s-.983-3.086-3.64-1.444-3.355,2.768-1.74,3.3S221.629,348.516,221.063,346.538Z" transform="translate(-146.224 -296.163)" fill="#e30613"/>
              <path id="Trazado_20888" data-name="Trazado 20888" d="M206.319,336.133l-26.658,9.354a6.32,6.32,0,0,0-4.191,6.65l5.131,47.028S207.5,354.422,206.319,336.133Z" transform="translate(-153.843 -297.803)" fill="#002b6a"/>
              <path id="Trazado_20889" data-name="Trazado 20889" d="M204.436,353.959l-5.979,4.573,11.608,38.519s.011-.081.031-.229c3.222-32.452-8.239-59.866-8.239-59.866l-4.28,14.892Z" transform="translate(-149.56 -297.644)" fill="#04579b"/>
              <path id="Trazado_20890" data-name="Trazado 20890" d="M217.412,347.127s-1.032,26.953-2.839,41.279-6.425,35.227-6.425,35.227l4.632,5.76,6.479-6.017s3.5-27.446,3.147-37.2-1.494-39.715-1.494-39.715Z" transform="translate(-147.515 -295.806)" fill="#e30613"/>
              <path id="Trazado_20891" data-name="Trazado 20891" d="M200.645,418.592h-5.511l-17.208,13.265S192.876,428.866,200.645,418.592Z" transform="translate(-153.361 -281.854)" fill="#04579b"/>
              <path id="Trazado_20892" data-name="Trazado 20892" d="M209.818,336.133s16.237,39.678,4.745,79.544-57.221,34.474-57.221,34.474Z" transform="translate(-157.342 -297.803)" fill="#002b6a"/>
              <path id="Trazado_20893" data-name="Trazado 20893" d="M204.6,353.128l-5.98,4.573L210.23,396.22s.012-.081.031-.228c3.223-32.453-8.238-59.866-8.238-59.866l-4.281,14.892Z" transform="translate(-149.528 -297.805)" fill="#04579b"/>
            </g>
            <g id="Grupo_10859" data-name="Grupo 10859" transform="translate(45.066 110.223)">
              <path id="Trazado_20894" data-name="Trazado 20894" d="M367.7,399.6l-.069,159.141-133.368.173a4.525,4.525,0,0,1-.9-.081,6.051,6.051,0,0,1-5.194-6V552.7a6.083,6.083,0,0,1,6.083-6.083h31.428V399.46Z" transform="translate(-165.13 -395.777)" fill="#fff"/>
              <path id="Trazado_20895" data-name="Trazado 20895" d="M307.3,399.585l-.069,159.141-73.868.092a6.05,6.05,0,0,1-5.194-6v-.127a6.083,6.083,0,0,1,6.083-6.083h31.428V399.528Z" transform="translate(-165.13 -395.764)" fill="#dadada"/>
              <rect id="Rectángulo_2381" data-name="Rectángulo 2381" width="202.574" height="7.561" rx="3.136" fill="#fff"/>
              <rect id="Rectángulo_2382" data-name="Rectángulo 2382" width="80.547" height="7.561" rx="3.136" fill="#dadada"/>
            </g>
            <g id="Grupo_10860" data-name="Grupo 10860" transform="translate(108.198 66.402)">
              <rect id="Rectángulo_2383" data-name="Rectángulo 2383" width="90.803" height="5.353" rx="2.22" transform="translate(0 38.468)" fill="#fff"/>
              <rect id="Rectángulo_2384" data-name="Rectángulo 2384" width="47.038" height="5.353" rx="2.22" transform="translate(0 38.468)" fill="#dadada"/>
              <path id="Trazado_20896" data-name="Trazado 20896" d="M321.429,359.655H280.141a1.18,1.18,0,0,0-1.125.823l-12.309,38.81a1.18,1.18,0,0,0,1.125,1.537H309.12a1.181,1.181,0,0,0,1.125-.823l12.309-38.81A1.181,1.181,0,0,0,321.429,359.655Z" transform="translate(-220.818 -359.655)" fill="#dadada"/>
              <path id="Trazado_20897" data-name="Trazado 20897" d="M322.8,359.655H281.512a1.18,1.18,0,0,0-1.125.823l-12.309,38.81a1.18,1.18,0,0,0,1.125,1.537h41.288a1.18,1.18,0,0,0,1.125-.823l12.309-38.81A1.181,1.181,0,0,0,322.8,359.655Z" transform="translate(-220.553 -359.655)" fill="#fff"/>
              <path id="Trazado_20898" data-name="Trazado 20898" d="M299.69,380.447c-1.054,2.868-3.65,4.553-5.8,3.763s-3.035-3.753-1.981-6.621,3.65-4.553,5.8-3.764S300.743,377.579,299.69,380.447Z" transform="translate(-216.018 -356.952)" fill="#dadada"/>
            </g>
            <g id="Grupo_10861" data-name="Grupo 10861" transform="translate(45.126 47.571)">
              <path id="Trazado_20899" data-name="Trazado 20899" d="M243.944,382.665l14.824-3.592a3.481,3.481,0,0,1,4.157,2.392l2.3,7.726a1.448,1.448,0,0,1-1.176,1.846l-.029,0a1.447,1.447,0,0,1-1.585-.964L260.9,385.6l-7.554,1.431,3.611,1.056a1.236,1.236,0,0,1,.878,1.352l0,.025a1.237,1.237,0,0,1-1.568,1.023l-4.571-1.318-3.562.191a4.028,4.028,0,0,1-3.49-1.674l-.013-.019-9.889,1.784-.179-5.386Z" transform="translate(-163.953 -337.087)" fill="#fff"/>
              <path id="Trazado_20900" data-name="Trazado 20900" d="M184.458,345.124l12.3,49.106,55.01-4.966-56.941,9.159Z" transform="translate(-173.644 -343.635)" fill="#04579b"/>
              <path id="Trazado_20901" data-name="Trazado 20901" d="M175.4,350.5l11.636,52.248a5.61,5.61,0,0,0,6.439,4.307l60.7-10.58a3.77,3.77,0,0,0,3.12-3.862l0-.074a3.768,3.768,0,0,0-4.263-3.589l-55.635,7.4-10.686-52.471Z" transform="translate(-175.397 -343.876)" fill="#002b6a"/>
            </g>
          </g>
        </g>
      </g>
      <g id="Grupo_10881" data-name="Grupo 10881" transform="translate(369.159)">
        <g id="Grupo_10880" data-name="Grupo 10880">
          <g id="Grupo_10879" data-name="Grupo 10879">
            <g id="Grupo_10865" data-name="Grupo 10865" transform="translate(77.07 40.535)">
              <path id="Trazado_20902" data-name="Trazado 20902" d="M532.008,381.543,516.894,379.5A3.482,3.482,0,0,0,513,382.3l-1.488,7.921a1.45,1.45,0,0,0,1.359,1.716h.03a1.45,1.45,0,0,0,1.477-1.123l1.06-4.613,7.661.646-3.484,1.421a1.238,1.238,0,0,0-.734,1.437l.006.024a1.236,1.236,0,0,0,1.665.856l4.411-1.781,3.564-.177a4.031,4.031,0,0,0,3.3-2.026l.011-.019,10.02.755-.376-5.375Z" transform="translate(-511.491 -329.133)" fill="#fff"/>
              <path id="Trazado_20903" data-name="Trazado 20903" d="M604.494,342.712,597.681,401.2l-66.812-4.642a3.768,3.768,0,0,1-3.5-3.519l0-.074a3.769,3.769,0,0,1,3.87-4.009l56.1,1.63,5.225-53.294Z" transform="translate(-508.422 -337.29)" fill="#022651"/>
            </g>
            <g id="Grupo_10870" data-name="Grupo 10870" transform="translate(106.096 54.033)">
              <g id="Grupo_10868" data-name="Grupo 10868" transform="translate(34.52 123.679)">
                <g id="Grupo_10866" data-name="Grupo 10866" transform="translate(78.259 79.265)">
                  <rect id="Rectángulo_2385" data-name="Rectángulo 2385" width="3.28" height="9.132" transform="translate(1.064)" fill="#fff"/>
                  <path id="Trazado_20904" data-name="Trazado 20904" d="M642.016,529.11a5.852,5.852,0,1,1-5.851-5.853A5.851,5.851,0,0,1,642.016,529.11Z" transform="translate(-630.312 -517.761)" fill="#002b6a"/>
                </g>
                <g id="Grupo_10867" data-name="Grupo 10867" transform="translate(0 79.265)">
                  <rect id="Rectángulo_2386" data-name="Rectángulo 2386" width="3.281" height="9.132" transform="translate(7.359)" fill="#fff"/>
                  <path id="Trazado_20905" data-name="Trazado 20905" d="M564.737,529.11a5.851,5.851,0,1,0,5.851-5.853A5.851,5.851,0,0,0,564.737,529.11Z" transform="translate(-564.737 -517.761)" fill="#002b6a"/>
                </g>
                <rect id="Rectángulo_2387" data-name="Rectángulo 2387" width="3.28" height="9.132" transform="translate(43.223 79.265)" fill="#fff"/>
                <rect id="Rectángulo_2388" data-name="Rectángulo 2388" width="5.734" height="11.704" rx="1.226" transform="translate(41.996 84.762)" fill="#002b6a"/>
                <rect id="Rectángulo_2389" data-name="Rectángulo 2389" width="12.058" height="31.209" transform="translate(38.893 47.937)" fill="#fff"/>
                <rect id="Rectángulo_2390" data-name="Rectángulo 2390" width="15.132" height="50.892" transform="translate(37.356)" fill="#002b6a"/>
                <rect id="Rectángulo_2391" data-name="Rectángulo 2391" width="15.132" height="8.512" transform="translate(37.356 72.881)" fill="#002b6a"/>
                <rect id="Rectángulo_2392" data-name="Rectángulo 2392" width="80.742" height="4.256" rx="1.765" transform="translate(4.492 77.137)" fill="#002b6a"/>
              </g>
              <g id="Grupo_10869" data-name="Grupo 10869">
                <path id="Trazado_20906" data-name="Trazado 20906" d="M590.3,482.736h50.773L656.029,348.6H608.861Z" transform="translate(-525.272 -348.601)" fill="#a50212"/>
                <rect id="Rectángulo_2393" data-name="Rectángulo 2393" width="124.483" height="20.924" rx="8.679" transform="translate(0 113.217)" fill="#a50212"/>
                <path id="Trazado_20907" data-name="Trazado 20907" d="M623.094,470.847,639.681,357.46a10.357,10.357,0,0,1,11.785-8.743l.208.031a10.358,10.358,0,0,1,8.711,11.742L643.8,473.876a10.358,10.358,0,0,1-11.786,8.744l-.206-.031A10.357,10.357,0,0,1,623.094,470.847Z" transform="translate(-518.951 -348.601)" fill="#e30613"/>
                <path id="Trazado_20908" data-name="Trazado 20908" d="M583.273,470.847,599.86,357.46a10.357,10.357,0,0,1,11.785-8.743l.208.031a10.358,10.358,0,0,1,8.711,11.742L603.977,473.876a10.357,10.357,0,0,1-11.786,8.744l-.206-.031A10.358,10.358,0,0,1,583.273,470.847Z" transform="translate(-526.653 -348.601)" fill="#a50212"/>
                <rect id="Rectángulo_2394" data-name="Rectángulo 2394" width="69.503" height="20.924" rx="8.679" transform="translate(54.98 113.217)" fill="#e30613"/>
              </g>
            </g>
            <g id="Grupo_10875" data-name="Grupo 10875" transform="translate(82.936)">
              <g id="Grupo_10871" data-name="Grupo 10871" transform="translate(0 137.553)">
                <path id="Trazado_20909" data-name="Trazado 20909" d="M534.082,527.462v6.589h-4.308v-3.295l-2.9,3.295H516.406a2.551,2.551,0,0,1,2.55-2.552h4.309l1.4-4.037Z" transform="translate(-516.406 -397.524)" fill="#002d59"/>
                <path id="Trazado_20910" data-name="Trazado 20910" d="M602.842,418.584H532.819a14.954,14.954,0,0,0-14.93,15.8l6.493,114.134H533.8s20.057-89.353,3.016-99.2l56.672.2c16.473.057,23.243-21.113,9.794-30.624Z" transform="translate(-516.124 -418.584)" fill="#002d59"/>
              </g>
              <g id="Grupo_10872" data-name="Grupo 10872" transform="translate(24.623 137.553)">
                <path id="Trazado_20911" data-name="Trazado 20911" d="M554.714,527.462v6.589h-4.308v-3.295l-2.9,3.295H537.038a2.551,2.551,0,0,1,2.55-2.552H543.9l1.4-4.037Z" transform="translate(-537.038 -397.524)" fill="#002b6a"/>
                <path id="Trazado_20912" data-name="Trazado 20912" d="M623.474,418.584H553.451a14.954,14.954,0,0,0-14.93,15.8l6.493,114.134h9.417s20.057-89.353,3.016-99.2l56.672.2c16.473.057,23.243-21.113,9.795-30.624Z" transform="translate(-536.756 -418.584)" fill="#002b6a"/>
              </g>
              <path id="Trazado_20913" data-name="Trazado 20913" d="M588.127,332.715l-3.577-.831,3.014,2.18Z" transform="translate(-503.225 -297.801)" fill="#04579b"/>
              <path id="Trazado_20914" data-name="Trazado 20914" d="M573.935,332.714s-11.675,7.347-13.033,26.075,18.073,54.919,19.03,59.614,8.08-23.705,4.36-37.083S578.815,332.466,573.935,332.714Z" transform="translate(-507.812 -297.641)" fill="#002b6a"/>
              <path id="Trazado_20915" data-name="Trazado 20915" d="M572.424,333.473s-11.182,19.579-5.835,41.433,6.994,33.989,6.657,45.662-.55,14.927-.55,14.927h45.293s-5.559-54.14-4.278-64.444-8.844-26.986-14.614-30.787S574.327,329.525,572.424,333.473Z" transform="translate(-506.979 -297.721)" fill="url(#linear-gradient-2)"/>
              <path id="Trazado_20916" data-name="Trazado 20916" d="M571.749,418.584" transform="translate(-505.701 -281.031)" fill="#fff"/>
              <path id="Trazado_20917" data-name="Trazado 20917" d="M572.062,335.609l-3.76,12.984,3.577-5.015,2.219,4.975a21.285,21.285,0,0,0-.321-7.644C572.812,337.555,572.062,335.609,572.062,335.609Z" transform="translate(-506.368 -297.081)" fill="#078eea"/>
              <g id="Grupo_10874" data-name="Grupo 10874" transform="translate(39.799)">
                <g id="Grupo_10873" data-name="Grupo 10873">
                  <path id="Trazado_20918" data-name="Trazado 20918" d="M562.325,314.862l-7.392-1.006s-8.64-2.716-3.6-9.92c0,0,1.633,4.694,8.905,3.77s15.569-7.914,19.011-2.081S568.561,317.949,562.325,314.862Z" transform="translate(-549.754 -303.325)" fill="#002b6a"/>
                  <path id="Trazado_20919" data-name="Trazado 20919" d="M576.112,306.952s3.151-2.506,7.165,2.445-.789,21.034,3.312,25.972c0,0-15.713-.094-20.244-4.35s-10.546-15.436-1.456-18.929S576.112,306.952,576.112,306.952Z" transform="translate(-547.742 -302.746)" fill="#002b6a"/>
                  <path id="Trazado_20920" data-name="Trazado 20920" d="M558.47,340.387l9.856-1.163,10.568,11.248L594.844,338l-21.528-18.281Z" transform="translate(-548.069 -300.153)" fill="#f2f8fc"/>
                  <path id="Trazado_20921" data-name="Trazado 20921" d="M554.549,312.506s-1.764,5.787-1.289,6.947,1.315,1.949,1.278,2.522c-.03.454-1.948,5.823-2.733,8a1.084,1.084,0,0,0,.718,1.423,8.411,8.411,0,0,0,1.677.2c1.477.058,1.584,2.957,1.584,2.957l.945,6.244A1.9,1.9,0,0,0,559,342.382c4.542-.948,15.411-3.546,16.2-6.867,1.006-4.208-1.806-11.938-1.806-11.938l2.38-2.055a1.988,1.988,0,0,0,.134-2.885l-.027-.029a1.99,1.99,0,0,0-2.692-.162l-2.64,2.156.657,4.354a1.7,1.7,0,0,1-1.431,1.94l-.017,0a1.693,1.693,0,0,1-1.861-1.146L566.41,315.56l2.685-5.255Z" transform="translate(-549.37 -301.975)" fill="#fff"/>
                  <path id="Trazado_20922" data-name="Trazado 20922" d="M554.931,328.424l-.53,2.078a.379.379,0,0,0,.168.418l.538.333s-.69,1.166.175,1.719,1.637,1.1,1.637,1.1Z" transform="translate(-548.858 -298.47)" fill="#fff"/>
                  <path id="Trazado_20923" data-name="Trazado 20923" d="M555.073,318.883s3.268-.481,4.8.6a14.682,14.682,0,0,1-3.3,1.609C555.479,321.306,555.073,318.883,555.073,318.883Z" transform="translate(-548.726 -300.336)" fill="#002b6a"/>
                </g>
              </g>
              <path id="Trazado_20924" data-name="Trazado 20924" d="M589.47,332.58l-11.886,9.652,5.738,7.722,10.443-12.519Z" transform="translate(-504.573 -297.666)" fill="#078eea"/>
              <path id="Trazado_20925" data-name="Trazado 20925" d="M571.313,342.6l7.5-1.933,2.328,3.135s-2.422,5.04-5.861,4.542S570.911,344.074,571.313,342.6Z" transform="translate(-505.802 -296.102)" fill="#e30613"/>
              <path id="Trazado_20926" data-name="Trazado 20926" d="M571.957,346.538s.983-3.086,3.64-1.444,3.355,2.768,1.74,3.3S571.39,348.516,571.957,346.538Z" transform="translate(-505.671 -295.339)" fill="#e30613"/>
              <path id="Trazado_20927" data-name="Trazado 20927" d="M590.693,336.133l26.658,9.354a6.32,6.32,0,0,1,4.191,6.65l-5.132,47.028S589.515,354.422,590.693,336.133Z" transform="translate(-502.044 -296.979)" fill="#002b6a"/>
              <path id="Trazado_20928" data-name="Trazado 20928" d="M589.685,353.959l5.98,4.573-11.608,38.519s-.011-.081-.031-.229c-3.222-32.452,8.239-59.866,8.239-59.866l4.28,14.892Z" transform="translate(-503.437 -296.82)" fill="#04579b"/>
              <path id="Trazado_20929" data-name="Trazado 20929" d="M576.9,347.127s1.032,26.953,2.839,41.279,6.425,35.227,6.425,35.227l-4.632,5.76-6.479-6.017s-3.5-27.446-3.147-37.2,1.494-39.715,1.494-39.715Z" transform="translate(-505.675 -294.982)" fill="#e30613"/>
              <path id="Trazado_20930" data-name="Trazado 20930" d="M595.037,418.592h5.511l17.208,13.265S602.806,428.866,595.037,418.592Z" transform="translate(-501.197 -281.03)" fill="#04579b"/>
              <path id="Trazado_20931" data-name="Trazado 20931" d="M592.123,336.133s-16.237,39.678-4.746,79.544S644.6,450.152,644.6,450.152Z" transform="translate(-503.474 -296.979)" fill="#002b6a"/>
              <path id="Trazado_20932" data-name="Trazado 20932" d="M589.52,353.128l5.98,4.573L583.892,396.22s-.012-.081-.032-.228c-3.222-32.453,8.239-59.866,8.239-59.866l4.281,14.892Z" transform="translate(-503.469 -296.98)" fill="#04579b"/>
            </g>
            <g id="Grupo_10876" data-name="Grupo 10876" transform="translate(0 111.047)">
              <path id="Trazado_20933" data-name="Trazado 20933" d="M446.916,399.6l.069,159.141,133.368.173a4.525,4.525,0,0,0,.9-.081,6.051,6.051,0,0,0,5.194-6V552.7a6.083,6.083,0,0,0-6.083-6.083H548.935V399.46Z" transform="translate(-446.911 -395.777)" fill="#fff"/>
              <path id="Trazado_20934" data-name="Trazado 20934" d="M497.526,399.585l.069,159.141,73.868.092a6.051,6.051,0,0,0,5.194-6v-.127a6.083,6.083,0,0,0-6.083-6.083H539.146V399.528Z" transform="translate(-437.122 -395.764)" fill="#dadada"/>
              <rect id="Rectángulo_2395" data-name="Rectángulo 2395" width="202.574" height="7.561" rx="3.136" fill="#fff"/>
              <rect id="Rectángulo_2396" data-name="Rectángulo 2396" width="80.547" height="7.561" rx="3.136" transform="translate(122.027)" fill="#dadada"/>
            </g>
            <g id="Grupo_10877" data-name="Grupo 10877" transform="translate(36.013 67.226)">
              <rect id="Rectángulo_2397" data-name="Rectángulo 2397" width="90.803" height="5.353" rx="2.22" transform="translate(12.626 38.468)" fill="#fff"/>
              <rect id="Rectángulo_2398" data-name="Rectángulo 2398" width="47.038" height="5.353" rx="2.22" transform="translate(56.391 38.468)" fill="#dadada"/>
              <path id="Trazado_20935" data-name="Trazado 20935" d="M479.64,359.655h41.288a1.18,1.18,0,0,1,1.125.823l12.309,38.81a1.18,1.18,0,0,1-1.125,1.537H491.949a1.18,1.18,0,0,1-1.125-.823l-12.309-38.81A1.181,1.181,0,0,1,479.64,359.655Z" transform="translate(-476.823 -359.655)" fill="#dadada"/>
              <path id="Trazado_20936" data-name="Trazado 20936" d="M478.269,359.655h41.288a1.18,1.18,0,0,1,1.125.823l12.309,38.81a1.181,1.181,0,0,1-1.125,1.537H490.578a1.18,1.18,0,0,1-1.125-.823l-12.309-38.81A1.181,1.181,0,0,1,478.269,359.655Z" transform="translate(-477.088 -359.655)" fill="#fff"/>
              <path id="Trazado_20937" data-name="Trazado 20937" d="M493.715,380.447c1.054,2.868,3.65,4.553,5.8,3.763s3.035-3.753,1.981-6.621-3.65-4.553-5.8-3.764S492.661,377.579,493.715,380.447Z" transform="translate(-473.958 -356.952)" fill="#dadada"/>
            </g>
            <g id="Grupo_10878" data-name="Grupo 10878" transform="translate(101.184 48.395)">
              <path id="Trazado_20938" data-name="Trazado 20938" d="M553.034,382.665l-14.823-3.592a3.48,3.48,0,0,0-4.157,2.392l-2.3,7.726a1.448,1.448,0,0,0,1.176,1.846l.029,0a1.447,1.447,0,0,0,1.585-.964l1.529-4.479,7.554,1.431-3.611,1.056a1.236,1.236,0,0,0-.878,1.352l0,.025a1.237,1.237,0,0,0,1.568,1.023l4.571-1.318,3.562.191a4.028,4.028,0,0,0,3.49-1.674l.013-.019,9.889,1.784.179-5.386Z" transform="translate(-531.697 -337.087)" fill="#fff"/>
              <path id="Trazado_20939" data-name="Trazado 20939" d="M618.452,345.124l-12.3,49.106-55.01-4.966,56.941,9.159Z" transform="translate(-527.937 -343.635)" fill="#04579b"/>
              <path id="Trazado_20940" data-name="Trazado 20940" d="M629.877,350.5l-11.636,52.248a5.61,5.61,0,0,1-6.438,4.307l-60.7-10.58a3.77,3.77,0,0,1-3.12-3.862l0-.074a3.768,3.768,0,0,1,4.263-3.589l55.635,7.4,10.686-52.471Z" transform="translate(-528.548 -343.876)" fill="#002b6a"/>
            </g>
          </g>
        </g>
      </g>
    </g>
    <g id="Grupo_10883" data-name="Grupo 10883" transform="translate(463.597 131.027)">
      <ellipse id="Elipse_631" data-name="Elipse 631" cx="101.325" cy="82.629" rx="101.325" ry="82.629" fill="#fff"/>
      <circle id="Elipse_632" data-name="Elipse 632" cx="16.919" cy="16.919" r="16.919" transform="translate(105.075 146.617)" fill="#fff"/>
      <circle id="Elipse_633" data-name="Elipse 633" cx="9.454" cy="9.454" r="9.454" transform="translate(129.619 176.664)" fill="#fff"/>
      <path id="Trazado_20941" data-name="Trazado 20941" d="M538.082,298.667a5.762,5.762,0,1,1-5.762-5.762A5.763,5.763,0,0,1,538.082,298.667Z" transform="translate(-378.82 -99.715)" fill="#fff"/>
    </g>
    <g id="Grupo_10884" data-name="Grupo 10884" transform="translate(238.112 131.027)">
      <ellipse id="Elipse_634" data-name="Elipse 634" cx="101.325" cy="82.629" rx="101.325" ry="82.629" fill="#fff"/>
      <circle id="Elipse_635" data-name="Elipse 635" cx="16.919" cy="16.919" r="16.919" transform="translate(63.738 146.617)" fill="#fff"/>
      <circle id="Elipse_636" data-name="Elipse 636" cx="9.454" cy="9.454" r="9.454" transform="translate(54.123 176.664)" fill="#fff"/>
      <path id="Trazado_20942" data-name="Trazado 20942" d="M250.183,298.667a5.761,5.761,0,1,0,5.762-5.762A5.762,5.762,0,0,0,250.183,298.667Z" transform="translate(-206.793 -99.715)" fill="#fff"/>
    </g>
    <g id="Grupo_10885" data-name="Grupo 10885" transform="translate(506.01 156.682)">
      <circle id="Elipse_637" data-name="Elipse 637" cx="56.973" cy="56.973" r="56.973" fill="#002b6a"/>
      <circle id="Elipse_638" data-name="Elipse 638" cx="44.312" cy="44.312" r="44.312" transform="translate(3.787 90.116) rotate(-76.929)" fill="#fff"/>
      <circle id="Elipse_639" data-name="Elipse 639" cx="33.058" cy="33.058" r="33.058" transform="translate(17.273 81.661) rotate(-76.876)" fill="#002b6a"/>
      <circle id="Elipse_640" data-name="Elipse 640" cx="22.205" cy="22.205" r="22.205" transform="matrix(0.228, -0.974, 0.974, 0.228, 30.291, 73.532)" fill="#fff"/>
      <circle id="Elipse_641" data-name="Elipse 641" cx="12.961" cy="12.961" r="12.961" transform="translate(41.392 66.626) rotate(-76.78)" fill="#002b6a"/>
    </g>
    <path id="Trazado_20943" data-name="Trazado 20943" d="M329.5,202" transform="translate(46.661 13.728)" fill="none" stroke="#1d1d1b" stroke-miterlimit="10" stroke-width="0.5"/>
    <g id="Grupo_10888" data-name="Grupo 10888" transform="translate(269.49 158.488)">
      <g id="Grupo_10886" data-name="Grupo 10886">
        <path id="Trazado_20944" data-name="Trazado 20944" d="M298.83,225.912c-20.139,1.4-33.217-17.207-36.2-35.148-2.016-12.112,4.669-20.353,15.4-25.241,9.876-4.5,22.538-8.076,33.129-4.087,16.529,6.223,23.056,28.367,19.731,44.266-4.048,19.359-20.848,32.058-40.061,33.724-10.9.945-20.778-.152-25.672-11.075-3.478-7.763-6.1-17.845-3.249-26.131,7.724-22.445,38.7-19.079,56-11.705,8.293,3.535,14.335,9.6,18.691,17.393,3.82,6.838,9.63,17.91,4.966,25.463-5.133,8.315-18.689,8.914-27.329,8.908-11.3-.01-20.553-3.7-23.895-15.241-4.966-17.154,3.928-35.523,20.653-41.8,10.953-4.113,24.512-5.546,30.412,6.628,4.163,8.59,5.372,19.834,3.9,29.172-1.17,7.416-5.207,11.415-12.526,13.413a51.482,51.482,0,0,1-14.8,1.765c-9.719-.253-19.651-3.413-26.745-10.279-12.753-12.346-12.385-29.534-1.781-42.955,6.466-8.183,20.081-20.855,31.376-15.794,8.443,3.783,11.379,15.031,12.854,23.272,1.708,9.535,1.631,19.306-3.686,27.724a41.068,41.068,0,0,1-24.333,17.646C286.8,240.408,269.1,225,265.742,206.773c-1.853-10.055,3.469-17.391,11.094-23.278,8.707-6.724,19.634-12.651,30.737-13.708,39.679-3.775,56.749,74.429,14.4,75.967-16.747.609-40.1-7.634-43.663-26.107-3.35-17.355,3.315-36.52,17.178-47.581,15.089-12.038,38.31-11.555,51.083,3.685,11.69,13.949,12.679,35.642,3.109,50.937A41.111,41.111,0,0,1,326.967,244.1c-9.8,3.116-22,5.221-32.169,3-16.907-3.688-32.79-21.9-36.564-38.4-4.4-19.228,5.58-39.305,25-44.907,8.651-2.5,18.319-2.962,27.277-2.838,9.286.128,18.9,1.543,26.974,6.413,16.6,10.01,14.079,34.421,7.053,49.907a48.979,48.979,0,0,1-16.789,20.231c-9.417,6.415-20.835,8.1-31.985,8.621-15.9.747-41.968.814-50.163-16.056-8.645-17.8-2.85-39.08,10.1-52.847,13.222-14.057,37.161-28.075,56.507-19.331,15.451,6.984,24.943,22.759,30.092,38.254,5.36,16.128,9.311,38.538-8.068,48.852-8.565,5.082-19.425,7.485-29.127,9.291-11.2,2.085-20.81-.513-29.734-7.442-27.964-21.712-24.464-66,6.758-82.917,15.426-8.359,37.351-10.584,53.506-2.889,8.537,4.066,12.768,10.943,15.461,19.748a145.916,145.916,0,0,1,5.923,27.042c.948,8.938.563,18.178-2.584,26.679-1.936,5.23-4.682,9.927-9.567,12.906-4.915,3-10.953,4.52-16.519,5.819a99.954,99.954,0,0,1-57.793-3.858c-7.558-2.871-15.314-6.466-20.285-13.1-5.473-7.306-7.139-16.692-6.184-25.622,1.029-9.615,4.481-19.168,11.728-25.8a90.251,90.251,0,0,1,25.021-15.849c17.931-7.527,39.243-4.266,53.735,8.859a52.33,52.33,0,0,1,13.3,19.078c3.147,7.77,5.884,18.716,1.641,26.525-5.033,9.263-18.62,12.908-28.375,12.722-10.211-.195-20.027-5.358-24.038-15.087-3.391-8.22-1-17.361,6.585-22.322,9.717-6.356,22-2.024,28.149,7.058,4.8,7.095,5.226,16.356,2.306,24.267a26.4,26.4,0,0,1-7.855,11.413c-8.032,6.48-17.015,3.17-23.774-2.605-8.085-6.906-12.7-18.932-.183-24.247,9.787-4.156,28.726-3.992,28.068,10.349-.258,5.616-2.295,11.738-8.38,13.664-5.368,1.7-13.9,1.127-16.436-4.623-1.582-3.592-1.468-8.015-.6-11.76,1.059-4.585,8.982-20.269,16.552-12.352,2.548,2.665,3.165,8.839,2.5,12.212-1.062,5.41-6.271,12.5-14.358,6.78a14.3,14.3,0,0,1-3.226-3.7c-6.133-9.043-7.554-20.05,1.77-27.516,5.07-4.06,16.081-9.384,21.408-3.456,2.759,3.069,4.157,8.272,4.6,12.285a23.6,23.6,0,0,1-14.611,23.96c-19.5,7.767-43.326-12.957-38.357-33.556,2.228-9.24,12.414-16.556,20.663-20.15,9.644-4.2,21.588-3.825,29.456,3.826,6.07,5.9,6.629,14.333,6.686,22.305a132.573,132.573,0,0,1-3.371,31.5c-.971,4.073-2.225,8.3-4.842,11.653-3.7,4.746-9.828,6.751-15.4,8.355-10.345,2.979-21.975,3.566-31.74-1.613-6.64-3.523-12.284-9.527-14.266-16.9-2.288-8.513.809-18.134,3.919-26.087,3.906-9.987,10.236-18.006,21.477-19.689,10.713-1.6,22.762.227,32.766,4.289,8.266,3.356,13.838,8.615,16.939,17,3.306,8.936,5.438,18.969,2.225,28.207a54.571,54.571,0,0,1-14.571,21.354c-8.693,7.8-20.064,9.339-31.317,9.212-9.526-.107-19.052-.847-26.857-6.871-6.846-5.282-11.9-13.106-15.441-20.891-3.963-8.719-3.618-16.754-.322-25.6,2.91-7.807,6.2-16.04,11.538-22.532,6.822-8.3,17.331-11.063,27.359-13.506,11.406-2.778,23.333-4.234,35.031-2.617,16.167,2.236,32.7,10.934,40.116,26.088,7.453,15.235,4.349,33.324-9.232,43.869-26.8,20.812-77.644,29.809-99.1-2.836-10.409-15.833-9.362-36.23.931-51.8a90.728,90.728,0,0,1,7.138-9.446c5.345-6.149,11.85-7.355,19.449-8.465,10.651-1.556,21.761-2.729,32.29.214,32.839,9.176,49.556,62.735,13.685,79.116-16.827,7.684-41.388,8.4-58.3.363-16.546-7.866-17.1-34.975-14.63-50.4,1.448-9.05,4.87-17.13,12.071-23.1,8.051-6.676,18.659-11.292,28.658-14.1,17.217-4.831,37.878-2.8,50.081,11.606,12.526,14.793,11.37,36.666,2.062,52.77-4.941,8.547-12.593,14.257-20.829,19.4-8.76,5.473-18.273,10.411-28.264,13.185-9.829,2.728-20.441,3.107-29.851-1.318-8.7-4.092-13.463-11.348-16.536-20.2a100.991,100.991,0,0,1-5.273-25.932c-.643-9.062-.815-19.849,2.461-28.522,3.942-10.435,15.781-14.037,25.644-16.541a96.671,96.671,0,0,1,31.27-2.834c20.024,1.627,33.625,22.186,38.9,39.671,2.7,8.958,5.588,18.215.4,26.845-4.378,7.279-11.852,12.913-19.131,17.036-14.826,8.4-41.654,17.687-55.511,3.595-.418-.426-2.057.214-1.606.673,14.205,14.448,41.216,5.32,56.507-2.843,8.519-4.547,17.716-11.174,22.225-19.983,5.209-10.177.279-22.827-3.492-32.754-4.373-11.507-12.131-20.582-22.112-27.729-8.447-6.048-18.457-6.095-28.492-5.493-11.486.69-23.476,3.061-33.906,8.068-9.169,4.4-13.066,11.375-14.357,21.288a101.592,101.592,0,0,0,2.234,37.439c2.561,10.294,6.218,20.841,15.513,26.88,18.515,12.03,41.857,2.9,59.135-6.869,9.939-5.619,20.1-12.159,26.129-22.125,5.943-9.823,8.977-21.718,7.56-33.175-2.708-21.9-21.541-35.445-42.825-35.586-11.259-.075-22.28,3.235-32.409,7.959-8.837,4.122-18.135,9.349-23.162,18.064-5.511,9.552-6.359,21.909-5.641,32.7.684,10.3,3.095,24.875,12.288,31.222,8.315,5.742,20.78,7.005,30.6,7.317,10.392.329,21.139-1.019,30.847-4.866,8.368-3.316,16.2-8.787,20.317-17.012,4.641-9.271,4.087-20.957,1.259-30.689-5.847-20.11-22.3-34.5-43.38-35.8-10.548-.647-23.078.354-33.165,3.542-9.584,3.03-16.633,14.2-20.922,22.687a47.075,47.075,0,0,0,13.276,58.141c17.45,13.395,41.957,11.71,61.91,5.563,18.391-5.666,40.638-16.623,42.824-38.064,2.153-21.116-13.142-38.1-32.138-44.762-10.222-3.586-21.167-4.3-31.892-3.258-11.7,1.131-24.7,3.639-35.269,8.958-8.027,4.039-13.094,11.119-16.908,19.06-4.9,10.2-10.265,21.653-6.671,33.055,3.188,10.109,10.141,20.924,18.913,27.006,8.286,5.744,18.536,6.164,28.293,6.1,9.606-.059,19.586-1.377,27.674-6.952,7.826-5.4,14.377-14.316,17.972-23.041,4.422-10.735,1.926-23.709-3.072-33.878-4.82-9.809-14.767-14.129-24.886-16.559-9.652-2.318-21.139-3.474-30.716-.173-8.325,2.869-13.532,9.951-16.84,17.812-4.065,9.663-7.869,21.712-3.183,31.786,3.681,7.914,11.233,13.6,19.511,16,10.169,2.954,21.175,1.26,31-2.162,8.938-3.114,14.415-7.809,17.093-17.12,3.535-12.289,4.614-25.932,3.975-38.684-.5-9.914-3.984-18.523-13.453-22.787-15.55-7-38.178,3.053-45.431,18.109-4.448,9.231-.161,21.159,5.978,28.6a29.937,29.937,0,0,0,25.462,10.926c17.973-1.543,30.777-21.8,20.039-38.02-5.01-7.569-14.542-3.956-21.065-.443-8.728,4.7-13.962,13.156-10.508,23,2.313,6.588,7.168,15.626,15.467,14.2,7.719-1.329,10.836-9.447,9.433-16.45-1.514-7.551-7.143-10.429-13.643-6.151-7.3,4.8-11.05,15.439-8.636,23.784,2.27,7.847,11.272,8.323,18.128,6.725,7.711-1.8,10.958-9.069,10.689-16.617-.6-16.879-32.178-14.473-38.5-2.5-4.721,8.942,5.221,18.5,12.211,22.588,6.567,3.845,14.107,4.066,20.423-.34,16.439-11.468,15.037-40.421-5.082-47.041-14.876-4.894-31.616,8.291-26.41,24.217,6.415,19.621,31.726,20.379,47.192,11.878,19.678-10.815,9.931-37.5-1.98-50.843-13.274-14.866-34.849-20.628-53.88-14.911-10.425,3.133-20.2,9.312-28.724,15.968-9.188,7.173-13.792,17.249-15.043,28.77-1.113,10.257,1.289,21.251,8.649,28.83,7.621,7.846,19.734,11.681,30.095,14.2,19.887,4.826,44.555,4.477,63.141-5.055,21.381-10.966,15.259-44.064,10.294-62.461-2.806-10.4-5.932-19.948-15.944-25.375-8.614-4.669-19.125-5.748-28.765-5.308-19.286.878-38.727,9.657-48.669,26.831a50.391,50.391,0,0,0,5.108,57.811c6.057,7.114,14.736,13.512,24.046,15.41,10.631,2.165,23.049-2,33.052-5.25,9.113-2.966,17.925-6.976,22.313-16.036,4.8-9.908,3.083-21.42.44-31.662-5.061-19.619-17.067-42.672-38.537-47.855-19.511-4.71-42.184,9.586-54.629,23.484-8.121,9.069-12.895,19.578-12.836,31.879.05,10.235,1.863,22.049,10.616,28.548,7.852,5.829,18.363,7.145,27.822,7.932,11.838.986,24.512.757,36.05-2.361,20.513-5.542,34-23.96,36.323-44.678,1.154-10.305.966-22.735-7.513-29.979-7.317-6.252-17.039-8.776-26.441-9.531-19.472-1.563-43.78.315-55.416,18.252-13.2,20.347-3.306,44.386,13.363,59.032,8.544,7.508,17.758,11.644,29.251,11.3,10.278-.309,21.769-2.29,30.951-7.094,19.2-10.043,27.18-33.545,20.252-53.712-6.408-18.657-25.056-28.776-44.227-24.517-19.477,4.327-33.024,22.606-35.07,41.914-1.161,10.959.5,22.149,9.313,29.542,7.832,6.573,18.337,10.267,28.4,11.414,7.789.888,16.6.446,23.257-4.193,8.356-5.825,10.965-17.735,11.1-27.321.259-18.8-11.462-42.562-31.841-45.832-9.853-1.581-19.891,1.875-28.531,6.354-8.132,4.214-17.86,10.17-22.148,18.641-9.117,18.014,11.278,42.011,29.2,43.583s38.188-12.632,41.159-30.7c2.547-15.487-4.027-47.807-26.023-40.73-17.484,5.625-34.7,26.44-29.367,45.344,5.691,20.171,27.363,27.988,46.533,25.012,8.328-1.294,16.933-3.889,19.33-12.9,2.782-10.464,1.149-24.57-4.222-33.952-9.556-16.692-37.359-6.481-46.989,5.208-10.99,13.34-12.547,42.581,8.221,47.436,12.326,2.881,43.349,1.713,41.435-17.476-.952-9.551-7.349-20.966-14.131-27.637-8.132-8-20.237-11.187-31.24-12.686C282.332,182.178,259.111,188.949,259,210c-.045,8.767,3.262,22.1,10.919,27.507,7.316,5.166,19.232,3.562,27.446,1.932,19.434-3.857,35-20.246,36.078-40.351,1.1-20.406-12.239-41.748-34.423-40.15-15.884,1.145-40.862,10.226-38.484,30.013,2.355,19.6,16.533,39.408,38.055,37.912.847-.059,1.439-1.03.239-.946Z" transform="translate(-240.118 -154.037)" fill="#002b6a"/>
      </g>
      <g id="Grupo_10887" data-name="Grupo 10887" transform="translate(15.699 11.34)">
        <path id="Trazado_20945" data-name="Trazado 20945" d="M367.945,201.317c.345,7.319-.674,14.852-4.65,21.162-6.647,10.551-19.709,12.994-31.282,14.235-17.782,1.906-36.929-.661-53.05-8.662-13.175-6.536-24.679-18.678-23.8-34.347.507-9.013,5.727-15.409,12.535-20.837,10.941-8.723,23.9-9.788,37.3-7.621,8.834,1.43,16.611,3.244,21.355,11.519A51.258,51.258,0,0,1,332.915,199a49.012,49.012,0,0,1-3.854,22.751c-5.037,11.348-16.534,16.146-28.1,18.386-5.659,1.1-12.82,2.5-17.819-1.15-3.115-2.277-5.168-6.318-6.366-9.9-2.581-7.719-1.555-16.211,1.9-23.491,3.685-7.774,13.431-21.457,23.291-16.635,6.544,3.2,13.115,8.89,13.2,16.606a31.923,31.923,0,0,1-2.713,12.2c-2.833,6.547-10.824,8.4-16.794,5.289-9.046-4.715-9.759-15.689-5-23.651a43.8,43.8,0,0,1,8-9.581c5.586-5.138,14.125-6.291,16.978,1.85,3.585,10.232-6.009,23.44-17.679,16.9-9.33-5.23-4.681-13.733,1.98-18.627,14.838-10.9,21.347.588,21.274,13.308-.166,29.142-45.263,3.591-28.325-12.268,8.2-7.68,23.487-15.195,34.152-9.617,7.2,3.768,11.778,11.737,15.581,18.595,3.492,6.3,8.389,14.59,6.091,22.059-3.463,11.259-18.01,13.646-28,15.611a125.8,125.8,0,0,1-28.85,2.692c-10.451-.4-17.229-5.39-21.367-14.833-2.678-6.114-5.342-14.129-3.324-20.755,2.441-8.01,10.525-14.112,17.529-17.894,11.616-6.274,25.451-8.1,38.5-7.93,10.867.138,18.677,4.239,26.068,11.952,6.022,6.285,10.808,14.134,12.2,22.831,1.988,12.433-5.224,19.133-16.214,23.039a86.144,86.144,0,0,1-34.659,4.667c-9.306-.642-20.163-2.221-27.672-8.225-7.224-5.776-9.041-15.244-8.218-24,.48-5.1,1.294-11.491,3.994-15.989,3.891-6.476,12.413-9.934,19.434-11.252.662-.125,1.555-.812.337-.584-7.991,1.5-18.03,5.344-21.926,13.084-5.023,9.979-5.886,26.012.875,35.284,6.555,8.99,19.443,11.205,29.778,12.169a90.914,90.914,0,0,0,33.356-3.132c8.142-2.33,18.917-5.748,22.082-14.588,3.774-10.538-2.535-23.052-9.146-30.991-7.151-8.585-15.752-14.456-27.105-14.894-11.546-.444-23.718.9-34.62,4.829-9.156,3.3-18.748,8.926-24.079,17.338-5.678,8.961-1.838,21.479,3.343,29.914,6.263,10.2,16.465,11.007,27.485,10.524a141.688,141.688,0,0,0,35-5.831c8.044-2.464,17.152-7.5,17.51-17.028.221-5.875-3.049-11.74-5.718-16.764a74.37,74.37,0,0,0-9.607-14.659c-7.128-8.015-16.079-9.348-25.888-6.071-7.279,2.431-19.754,7.934-22.34,15.929-2.916,9.015,8.932,18.194,16.3,20.229,6.115,1.69,13.833.8,17.259-5.2,4.1-7.18,2.758-24.457-6.756-26.828-6.54-1.63-14.47,3.8-18.91,7.947-3.333,3.115-5.847,6.62-3.875,11.284,1.738,4.11,5.955,6.462,10.266,6.857,6.273.574,12.551-2.546,15.133-8.449,3.153-7.213.174-18.617-9.226-17.869-7.724.615-14.35,8.433-18.2,14.464-6.029,9.451-3.955,22.932,8.108,26.131,6.165,1.636,12.789-.241,15.885-6.061a31.576,31.576,0,0,0,3.444-13.856c.021-5.8-3.274-9.531-7.606-12.884-6.307-4.882-12.228-7.125-19.2-2.367a40.06,40.06,0,0,0-16.278,26.8c-1.1,9.175,2.234,23.012,12.831,25.052,8.583,1.655,19.6-1.652,27.454-4.95,10.977-4.608,17.167-12.939,19.588-24.577a51.921,51.921,0,0,0-4.665-34.167c-2.53-4.876-5.265-8.582-10.579-10.506a71.712,71.712,0,0,0-18.255-3.666c-8.989-.751-18.181-.334-26.288,3.972-8.861,4.706-18.053,12.566-20.034,22.839-4.98,25.817,22.847,40.246,43.624,44.843a105.11,105.11,0,0,0,38.071,1.313c8.766-1.3,18.483-3.2,25.188-9.455,7.287-6.794,9.383-16.918,8.932-26.5-.012-.253-1.751.017-1.729.463Z" transform="translate(-253.272 -163.539)" fill="#002b6a"/>
      </g>
    </g>
  </g>
</svg>
