<svg xmlns="http://www.w3.org/2000/svg" width="155" height="155" viewBox="0 0 155 155">
  <g id="Grupo_10827" data-name="Grupo 10827" transform="translate(-422.5 -792.5)">
    <circle id="Elipse_619" data-name="Elipse 619" cx="77.5" cy="77.5" r="77.5" transform="translate(422.5 792.5)" fill="#fed55c"/>
    <g id="Grupo_10826" data-name="Grupo 10826">
      <g id="Grupo_10820" data-name="Grupo 10820">
        <g id="Grupo_10817" data-name="Grupo 10817">
          <g id="Grupo_10816" data-name="Grupo 10816">
            <g id="Grupo_10815" data-name="Grupo 10815">
              <path id="Trazado_20781" data-name="Trazado 20781" d="M492.19,813.672a3.9,3.9,0,1,1-3.9-3.9A3.9,3.9,0,0,1,492.19,813.672Z" fill="#fff"/>
              <path id="Trazado_20782" data-name="Trazado 20782" d="M500,813.672a3.906,3.906,0,1,1-3.906-3.9A3.9,3.9,0,0,1,500,813.672Z" fill="#fff"/>
              <path id="Trazado_20783" data-name="Trazado 20783" d="M507.808,813.672a3.9,3.9,0,1,1-3.9-3.9A3.9,3.9,0,0,1,507.808,813.672Z" fill="#fff"/>
              <path id="Trazado_20784" data-name="Trazado 20784" d="M515.618,813.672a3.9,3.9,0,1,1-3.906-3.9A3.9,3.9,0,0,1,515.618,813.672Z" fill="#fff"/>
            </g>
            <path id="Trazado_20785" data-name="Trazado 20785" d="M484.382,813.672c0,13.947,6.993,25.254,15.619,25.254s15.617-11.307,15.617-25.254Z" fill="#fff"/>
          </g>
          <path id="Trazado_20786" data-name="Trazado 20786" d="M459.1,923.767H540.9v-45.8a40.9,40.9,0,0,0-81.792,0Z" fill="#fff"/>
          <path id="Trazado_20787" data-name="Trazado 20787" d="M511.035,835.869a2.17,2.17,0,0,1-2.163,2.164H491.128a2.17,2.17,0,0,1-2.163-2.164h0a2.169,2.169,0,0,1,2.163-2.162h17.744a2.169,2.169,0,0,1,2.163,2.162Z" fill="#353f49"/>
        </g>
        <g id="Grupo_10819" data-name="Grupo 10819">
          <path id="Trazado_20788" data-name="Trazado 20788" d="M516.358,880.419A16.358,16.358,0,1,1,500,864.055,16.348,16.348,0,0,1,516.358,880.419Z" fill="#f77b55"/>
          <g id="Grupo_10818" data-name="Grupo 10818">
            <path id="Trazado_20789" data-name="Trazado 20789" d="M501.722,881.855h-3.449a5.46,5.46,0,1,1,0-10.919h7.472v2.878h-7.472a2.582,2.582,0,1,0,0,5.165h3.449Z" fill="#fff"/>
            <path id="Trazado_20790" data-name="Trazado 20790" d="M501.722,889.9h-7.468v-2.876h7.468a2.583,2.583,0,1,0,0-5.166h-3.449v-2.876h3.449a5.459,5.459,0,1,1,0,10.918Z" fill="#fff"/>
            <rect id="Rectángulo_2351" data-name="Rectángulo 2351" width="2.877" height="20.678" transform="translate(498.56 870.077)" fill="#fff"/>
          </g>
        </g>
      </g>
      <g id="Grupo_10824" data-name="Grupo 10824">
        <g id="Grupo_10821" data-name="Grupo 10821">
          <rect id="Rectángulo_2352" data-name="Rectángulo 2352" width="42.694" height="24.749" transform="translate(428.729 899.018)" fill="#adecf7"/>
          <rect id="Rectángulo_2353" data-name="Rectángulo 2353" width="42.694" height="24.75" transform="translate(428.729 897.879)" fill="#76d0de"/>
          <rect id="Rectángulo_2354" data-name="Rectángulo 2354" width="42.694" height="24.747" transform="translate(428.729 896.741)" fill="#adecf7"/>
          <rect id="Rectángulo_2355" data-name="Rectángulo 2355" width="42.694" height="24.751" transform="translate(428.729 895.6)" fill="#76d0de"/>
          <rect id="Rectángulo_2356" data-name="Rectángulo 2356" width="42.694" height="24.755" transform="translate(428.729 894.463)" fill="#adecf7"/>
          <rect id="Rectángulo_2357" data-name="Rectángulo 2357" width="42.694" height="24.747" transform="translate(428.729 893.323)" fill="#76d0de"/>
          <rect id="Rectángulo_2358" data-name="Rectángulo 2358" width="42.694" height="24.755" transform="translate(428.729 892.178)" fill="#adecf7"/>
          <rect id="Rectángulo_2359" data-name="Rectángulo 2359" width="42.694" height="24.748" transform="translate(428.729 891.039)" fill="#76d0de"/>
        </g>
        <path id="Trazado_20791" data-name="Trazado 20791" d="M471.426,889.767v24.746H436.943l-1.281-1.282-5.645-5.645-1.287-1.286V889.767Z" fill="#adecf7"/>
        <path id="Trazado_20792" data-name="Trazado 20792" d="M470.139,891.054v22.177H435.662l-5.645-5.645V891.054Z" fill="#76d0de"/>
        <path id="Trazado_20793" data-name="Trazado 20793" d="M468.809,892.386V911.9H434.332l-2.987-2.986V892.386Z" fill="#adecf7"/>
        <path id="Trazado_20794" data-name="Trazado 20794" d="M442.58,902.142a7.5,7.5,0,1,1,7.5,7.5A7.5,7.5,0,0,1,442.58,902.142Z" fill="#76d0de"/>
        <g id="Grupo_10822" data-name="Grupo 10822">
          <path id="Trazado_20795" data-name="Trazado 20795" d="M452.409,902.32a2.225,2.225,0,0,0-1.575-.652h-1.512a.472.472,0,0,0,0,.944h1.512a1.291,1.291,0,0,1,.909,2.2,1.265,1.265,0,0,1-.909.376h-2.8v.946h2.8a2.245,2.245,0,0,0,2.233-2.235A2.228,2.228,0,0,0,452.409,902.32Z" fill="#adecf7"/>
          <path id="Trazado_20796" data-name="Trazado 20796" d="M449.322,899.093h2.8v-.944h-2.8a2.184,2.184,0,0,0-1.575.656,2.231,2.231,0,0,0,1.575,3.807h1.512a.472.472,0,0,0,0-.944h-1.512a1.288,1.288,0,0,1,0-2.575Z" fill="#adecf7"/>
          <rect id="Rectángulo_2360" data-name="Rectángulo 2360" width="0.942" height="9.053" transform="translate(449.607 897.615)" fill="#adecf7"/>
        </g>
        <g id="Grupo_10823" data-name="Grupo 10823">
          <path id="Trazado_20797" data-name="Trazado 20797" d="M470.141,897.139v-6.084h-6.082A7.485,7.485,0,0,0,470.141,897.139Z" fill="#76d0de"/>
          <path id="Trazado_20798" data-name="Trazado 20798" d="M430.015,897.139a7.481,7.481,0,0,0,6.082-6.084h-6.082Z" fill="#76d0de"/>
          <path id="Trazado_20799" data-name="Trazado 20799" d="M464.055,913.23h6.086v-6.085A7.486,7.486,0,0,0,464.055,913.23Z" fill="#76d0de"/>
        </g>
        <path id="Trazado_20800" data-name="Trazado 20800" d="M436.944,906.3h-8.215l8.215,8.215Z" fill="#92deeb"/>
      </g>
      <g id="Grupo_10825" data-name="Grupo 10825">
        <path id="Trazado_20801" data-name="Trazado 20801" d="M540.9,889.767v17.006h17.013A17,17,0,0,0,540.9,889.767Z" fill="#fff"/>
        <path id="Trazado_20802" data-name="Trazado 20802" d="M540.9,906.773V889.767a17,17,0,1,0,12.018,29.016Z" fill="#353f49"/>
        <path id="Trazado_20803" data-name="Trazado 20803" d="M540.9,906.773l12.018,12.01a16.991,16.991,0,0,0,4.995-12.01Z" fill="#f77b55"/>
      </g>
    </g>
  </g>
</svg>
