<svg xmlns="http://www.w3.org/2000/svg" width="334.047" height="303.63" viewBox="0 0 334.047 303.63">
  <g id="Grupo_10458" data-name="Grupo 10458" transform="translate(-1350.654 -356.895)" opacity="0.8">
    <path id="Trazado_20040" data-name="Trazado 20040" d="M1782.068,667.766a9.568,9.568,0,1,1-9.568-9.568A9.569,9.569,0,0,1,1782.068,667.766Z" transform="translate(-331.559 -225.982)" fill="#4ad966"/>
    <circle id="Elipse_586" data-name="Elipse 586" cx="6.311" cy="6.311" r="6.311" transform="translate(1471.642 469.27)" fill="#fff"/>
    <circle id="Elipse_587" data-name="Elipse 587" cx="6.311" cy="6.311" r="6.311" transform="translate(1613.851 469.27)" fill="#fff"/>
    <path id="Trazado_20041" data-name="Trazado 20041" d="M1922.726,826.434a6.964,6.964,0,1,1,2.846-.612A6.974,6.974,0,0,1,1922.726,826.434Zm-.008-12.891a5.932,5.932,0,1,0,5.412,3.5A5.885,5.885,0,0,0,1922.718,813.543Z" transform="translate(-446.184 -341.72)" fill="#1a1a1a"/>
    <path id="Trazado_20042" data-name="Trazado 20042" d="M1760.024,666.063a10.041,10.041,0,1,1,4.1-.882A10.052,10.052,0,0,1,1760.024,666.063Zm-.01-19.137a9.1,9.1,0,1,0,8.307,5.377A9.044,9.044,0,0,0,1760.013,646.926Z" transform="translate(-321.845 -216.827)" fill="#1a1a1a"/>
    <path id="Trazado_20043" data-name="Trazado 20043" d="M1842.576,739.658a.513.513,0,0,1-.38-.167l-3.487-3.8a.515.515,0,1,1,.76-.7l3.488,3.8a.516.516,0,0,1-.38.865Zm-7.249-7.9a.511.511,0,0,1-.38-.168l-3.762-4.1a.515.515,0,1,1,.759-.7l3.762,4.1a.516.516,0,0,1-.38.865Zm-7.523-8.194a.512.512,0,0,1-.38-.167l-3.762-4.1a.516.516,0,0,1,.76-.7l3.761,4.1a.516.516,0,0,1-.38.864Zm-7.523-8.195a.512.512,0,0,1-.38-.167l-3.761-4.1a.515.515,0,1,1,.759-.7l3.761,4.1a.516.516,0,0,1-.38.865Z" transform="translate(-371.363 -265.016)" fill="#1a1a1a"/>
    <path id="Trazado_20044" data-name="Trazado 20044" d="M1440.551,775.512a.516.516,0,0,1-.338-.905l4.2-3.644a.516.516,0,1,1,.676.779l-4.2,3.644A.514.514,0,0,1,1440.551,775.512Zm8.4-7.288a.516.516,0,0,1-.338-.905l4.2-3.644a.516.516,0,1,1,.676.779l-4.2,3.644A.514.514,0,0,1,1448.956,768.224Zm8.4-7.288a.516.516,0,0,1-.338-.905l4.2-3.644a.516.516,0,1,1,.676.779l-4.2,3.644A.513.513,0,0,1,1457.361,760.936Zm8.4-7.288a.516.516,0,0,1-.338-.906l4.2-3.643a.516.516,0,1,1,.676.779l-4.2,3.643A.513.513,0,0,1,1465.766,753.648Zm8.4-7.287a.516.516,0,0,1-.338-.905l4.2-3.644a.516.516,0,1,1,.676.779l-4.2,3.644A.514.514,0,0,1,1474.169,746.361Zm8.4-7.288a.516.516,0,0,1-.338-.905l4.2-3.644a.516.516,0,1,1,.676.779l-4.2,3.644A.513.513,0,0,1,1482.574,739.073Zm8.4-7.288a.516.516,0,0,1-.338-.905l4.2-3.644a.516.516,0,1,1,.676.779l-4.2,3.644A.513.513,0,0,1,1490.979,731.785Zm8.405-7.288a.516.516,0,0,1-.338-.906l4.2-3.644a.516.516,0,1,1,.676.779l-4.2,3.644A.513.513,0,0,1,1499.384,724.5Zm8.405-7.288a.516.516,0,0,1-.338-.906l4.2-3.644a.516.516,0,1,1,.676.779l-4.2,3.644A.514.514,0,0,1,1507.789,717.209Zm8.4-7.288a.515.515,0,0,1-.338-.905l3.5-3.034a.516.516,0,1,1,.676.779l-3.5,3.033A.513.513,0,0,1,1516.193,709.921Z" transform="translate(-89.381 -261.726)" fill="#1a1a1a"/>
    <path id="Trazado_20045" data-name="Trazado 20045" d="M2489.3,808.891a6.961,6.961,0,0,1-2.853-13.311,6.96,6.96,0,1,1,2.853,13.311ZM2489.287,796a5.931,5.931,0,0,0-5.4,8.356,5.944,5.944,0,0,0,5.413,3.5,5.93,5.93,0,0,0-.009-11.86Z" transform="translate(-871.116 -328.562)" fill="#1a1a1a"/>
    <path id="Trazado_20046" data-name="Trazado 20046" d="M2706.062,605.941a10.033,10.033,0,0,1-4.112-19.189,9.938,9.938,0,0,1,4.1-.882,10.034,10.034,0,0,1,4.114,19.189A9.951,9.951,0,0,1,2706.062,605.941Zm-.012-19.137a9.1,9.1,0,0,0-8.3,12.826,9.1,9.1,0,1,0,8.3-12.826Z" transform="translate(-1031.386 -171.735)" fill="#1a1a1a"/>
    <path id="Trazado_20047" data-name="Trazado 20047" d="M2451.207,758.949a.512.512,0,0,1-.38-.167l-3.761-4.1a.516.516,0,1,1,.76-.7l3.762,4.1a.516.516,0,0,1-.38.864Zm-7.523-8.195a.513.513,0,0,1-.38-.167l-3.761-4.1a.515.515,0,0,1,.76-.7l3.762,4.1a.516.516,0,0,1-.38.864Z" transform="translate(-838.925 -291.553)" fill="#1a1a1a"/>
    <path id="Trazado_20048" data-name="Trazado 20048" d="M2526.864,687.522a.516.516,0,0,1-.338-.905l4.2-3.644a.516.516,0,1,1,.676.779l-4.2,3.644A.514.514,0,0,1,2526.864,687.522Zm8.4-7.288a.516.516,0,0,1-.338-.905l4.2-3.644a.516.516,0,1,1,.676.779l-4.2,3.644A.514.514,0,0,1,2535.269,680.234Zm8.405-7.288a.516.516,0,0,1-.338-.906l4.2-3.644a.516.516,0,1,1,.676.779l-4.2,3.644A.515.515,0,0,1,2543.674,672.946Zm8.4-7.288a.516.516,0,0,1-.338-.905l4.2-3.644a.516.516,0,1,1,.677.779l-4.2,3.644A.514.514,0,0,1,2552.078,665.658Zm8.4-7.288a.516.516,0,0,1-.338-.905l4.2-3.643a.516.516,0,1,1,.676.779l-4.2,3.643A.513.513,0,0,1,2560.482,658.37Zm8.4-7.287a.515.515,0,0,1-.338-.905l2.578-2.235a.516.516,0,1,1,.676.779l-2.578,2.235A.514.514,0,0,1,2568.886,651.083Z" transform="translate(-904.132 -218.195)" fill="#1a1a1a"/>
    <path id="Trazado_20049" data-name="Trazado 20049" d="M1961.577,775.188a.516.516,0,0,1-.338-.905l4.2-3.644a.516.516,0,1,1,.676.779l-4.2,3.644A.514.514,0,0,1,1961.577,775.188Zm8.405-7.288a.516.516,0,0,1-.338-.905l4.2-3.644a.516.516,0,1,1,.676.779l-4.2,3.644A.512.512,0,0,1,1969.982,767.9Zm8.4-7.287a.516.516,0,0,1-.338-.905l1.376-1.194a.516.516,0,1,1,.676.779l-1.376,1.193A.514.514,0,0,1,1978.387,760.612Z" transform="translate(-480.159 -301.125)" fill="#1a1a1a"/>
    <path id="Trazado_20050" data-name="Trazado 20050" d="M1599.361,685.506s-6.384,15.076-12.144,17.063c0,0,2.812,7.176.965,9.761l6.219,2.991,1.781-6.537s7.5-.657,7-8.37c0,0,2.042-.975,2.069-1.973s-3.005-3.2-3.005-3.2-2.059-8.822-2.655-9.732Z" transform="translate(-199.77 -246.463)" fill="#fff"/>
    <path id="Trazado_20051" data-name="Trazado 20051" d="M1520.694,681.856s4.267,9.05,0,11.858-10.753,4.955-16.172-2.528,1.9-14.984,6.3-16.043c0,0-1.386-10.743,1.542-13.067s6.188-3.376,15.018-4.33c7.54-.816,5.788,6.894,5.788,6.894S1527.854,678.808,1520.694,681.856Z" transform="translate(-136.307 -225.598)" opacity="0.2"/>
    <path id="Trazado_20052" data-name="Trazado 20052" d="M1637.965,749.589a.157.157,0,0,0-.184.236c.56.8,1.63,2.209,2.478,2.471h.086l.411-2.109A16.119,16.119,0,0,1,1637.965,749.589Z" transform="translate(-237.672 -294.519)"/>
    <path id="Trazado_20053" data-name="Trazado 20053" d="M1519.269,806.421a22.279,22.279,0,0,1,12.983,8.017c5.525,6.94,4.134,10,12.382,17.731a44.088,44.088,0,0,0,17.559,10.042l7.444,14.061s-12.461,1.261-18.072.154l7.38,4.689-1.175,14.175s-14.393-3.123-23.368-9.495l.672,13.809-35.722-4.631s3.818-31.221,3.881-36.95-.724-15.35,1.111-20.521,3.845-9.027,4.855-9.991A19.43,19.43,0,0,0,1519.269,806.421Z" transform="translate(-133.869 -337.151)" fill="#1a1a1a"/>
    <path id="Trazado_20054" data-name="Trazado 20054" d="M1735.393,1031.168l-.619,8.849,5.848,1.477,4.281-5.572Z" transform="translate(-310.439 -505.715)" fill="#fff"/>
    <path id="Trazado_20055" data-name="Trazado 20055" d="M1760.5,963.348l10,.107s4.7,3.324,7.02,3.345,10.111-4.823,10.016-5.189.666-1.7-1.4-1.618-4.3.2-4.3.2l-6.164-2.751,3.457-4.5s-4.625-1.052-12.15,3.826l-11.41-2.458Z" transform="translate(-326.032 -446.977)" fill="#fff"/>
    <path id="Trazado_20056" data-name="Trazado 20056" d="M1456.286,1344.145l-5.353,48.694s14.976,4.475,21.642,3.369l-12.437-4.661,12.438-46.051Z" transform="translate(-97.555 -740.453)" fill="#fff"/>
    <path id="Trazado_20057" data-name="Trazado 20057" d="M1629.673,1345.5l15.377-1.351,9.553,47.486,12.942,4.752s-7.365,1.14-22.121-3.545Z" transform="translate(-231.613 -740.453)" fill="#fff"/>
    <path id="Trazado_20058" data-name="Trazado 20058" d="M1447.707,1538.933s16.265,4.717,22.12,3.545c0,0,6.867,1.915,6.693,2.908s-2.655.7-2.655.7l-27.232-.259Z" transform="translate(-94.329 -886.546)" fill="#3a3a3a"/>
    <path id="Trazado_20059" data-name="Trazado 20059" d="M1692.681,1538.933s17.944,4.717,22.571,3.71c0,0,6.706,2.135,6.219,2.935s-3.243.509-3.243.509h-23.1Z" transform="translate(-278.869 -886.546)" fill="#3a3a3a"/>
    <path id="Trazado_20060" data-name="Trazado 20060" d="M1470.4,1080.642s-3.878,21.16-4.036,26.1.487,17.52-1.519,21.927-4.1,17.475-4.1,17.475,18.4,2.213,29.66,2.047,27.2-1.2,30.361-1.982l-14.647-60.933Z" transform="translate(-104.913 -542.821)" fill="#4ad966"/>
    <path id="Trazado_20061" data-name="Trazado 20061" d="M2145.046,410.819h20.163a25.761,25.761,0,0,0-.85-8.962s.145-7.216,7.44-7.744,7.438,7.439,7.438,7.439-1.632,7.313-.849,9.266h20.36v-20.2s5.989-.7,9.266.847c0,0,8.061-.385,7.433-7.718s-7.19-7.154-7.19-7.154-6.119,1.7-9.508.843V357.118l-20.361-.223s-.548,6.023.85,9.49c0,0-.366,7.828-7.7,7.438s-7.179-7.438-7.179-7.438,1.683-6.453.846-9.268h-20.159Z" transform="translate(-618.15)" fill="#4ad966"/>
    <path id="Trazado_20062" data-name="Trazado 20062" d="M2173.1,657.794s-.488,10.19-.767,11.6-1.577,7.029.371,10.061,5.97,2.112,5.97,2.112l.049,2.532s-.23,4.735,6.926,4.75,9.931-6.875,9.931-6.875l-.045-10.266s4.536-.534,4.679-4.707-5.407-5.892-7.622-3.214c0,0-.2-6.336-2.335-7.563C2190.257,656.22,2175.886,652.491,2173.1,657.794Z" transform="translate(-638.103 -223.543)" fill="#fff"/>
    <path id="Trazado_20063" data-name="Trazado 20063" d="M2048.406,572.6l11.939,12.217s-9.812,12.14-8.967,21.227,7.537,19.6,18,19.346l5.647-4.189,7.876,58.77,8.994-59.516,5.1,5.036s11.633.243,17.172-8.986,4.432-16.143,1.339-21.531-6.473-10.157-6.473-10.157l11.939-12.217s12.12,14.663,14.278,27.067.183,33.094-18.6,44.418l2.579,54.094s-6.751,5.336-35.666,4.883-33.331-4.2-33.331-4.2l2.481-54.533s-13.836-8.529-17.889-24.963C2029.647,598.354,2039.487,584.288,2048.406,572.6Z" transform="translate(-534.409 -161.786)" fill="#1a1a1a"/>
    <path id="Trazado_20064" data-name="Trazado 20064" d="M2203.491,633.9s2.763,3.365,2.186,7.368a6.134,6.134,0,0,1,5.961-.519s3.25-7.573-3.026-10.83c0,0-3.558-5.074-8.3-4.646-8.488.764-10.391,3.517-10.788,8.2C2189.521,633.479,2193.195,631.215,2203.491,633.9Z" transform="translate(-651.507 -201.27)" opacity="0.2"/>
    <path id="Trazado_20065" data-name="Trazado 20065" d="M2209.99,712.784s.779-3.044-1.279-2.856-1.309,3.25-2.635,3.622-4.2,0-4.274,2.15,4.335,2.069,5.917,1.468C2207.719,717.168,2206.465,713.465,2209.99,712.784Z" transform="translate(-660.718 -264.774)" fill="#3a3a3a"/>
    <path id="Trazado_20066" data-name="Trazado 20066" d="M2379.777,1460.422c-.018.272.1,14.484.1,14.484l12.169-22.168-.491-2.156,1.644.021s1.976-3.152,1.769-3.284-5.126-3.918-5.126-3.918Z" transform="translate(-794.201 -814.896)" fill="#3a3a3a"/>
    <path id="Trazado_20067" data-name="Trazado 20067" d="M2250.843,1542.84l.194,6.037,3.943.027.64-1.284,1.786,1.367,25.743.285-12.125-6.573Z" transform="translate(-697.499 -889.371)" fill="#3a3a3a"/>
    <path id="Trazado_20068" data-name="Trazado 20068" d="M2528.853,1380.132c0,1.5-11.209,2.724-25.035,2.724s-25.036-1.22-25.036-2.724c0-1.072,5.69-2,13.964-2.444,1.3-.07,2.791.889,4.208.844,1.568-.049,3.078-1.1,4.758-1.115q1.042-.008,2.105-.009C2517.644,1377.408,2528.853,1378.628,2528.853,1380.132Z" transform="translate(-868.457 -765.4)" fill="#3a3a3a"/>
    <path id="Trazado_20069" data-name="Trazado 20069" d="M2565.089,1087.557s-11.307-4.146-13.621,7.258c-.865,4.274-.331,9.881-3.181,13.435-1.381,1.724-3.324,2.884-5.072,4.237a30.22,30.22,0,0,0-9.69,13.635,24.684,24.684,0,0,0-.98,2.8,7.736,7.736,0,0,1-.646-.794c-1.75-2.522-1.13-6.268-1.513-9.182-1.023-7.776-8.82-5.514-8.82-5.514s-8.015,1.3-5.608,8.761c.9,2.8,3.068,5.917,2.566,8.947a18.848,18.848,0,0,1-1.581,4.162,20.362,20.362,0,0,0-1.191,11.21c1.288,7.79,7.625,17.554,16.819,15.337a10.853,10.853,0,0,0,5.818-3.516,12.47,12.47,0,0,0,1.434-2.1,20.806,20.806,0,0,0,4.317,1.951,16.094,16.094,0,0,0,10.082-.322c8.247-3.005,14.111-12.414,16.09-20.744a30.21,30.21,0,0,0-.618-16.716c-.718-2.089-1.705-4.125-1.915-6.324-.43-4.536,3.094-8.929,4.716-12.978C2576.819,1090.3,2565.089,1087.557,2565.089,1087.557Z" transform="translate(-895.96 -547.457)" opacity="0.1"/>
    <path id="Trazado_20070" data-name="Trazado 20070" d="M2484.626,1448.208s2,2.56,22.8,2.56,24.249-2.03,24.249-2.03-1.267,14.039-10.347,20.628a67.442,67.442,0,0,1-26.133.088S2487.534,1464.93,2484.626,1448.208Z" transform="translate(-872.84 -818.501)" fill="#fff"/>
    <path id="Trazado_20071" data-name="Trazado 20071" d="M2110.534,529.6s5.691-7.957,2.013-8.69c-3.188-.635-8.5,15.029-8.5,15.029l7.2,7.96s7.4-5.316,8.237-8.184l-9.087.223Z" transform="translate(-587.398 -122.998)" fill="#fff"/>
    <path id="Trazado_20072" data-name="Trazado 20072" d="M2318.54,529.365s-5.443-7.551-2.162-8.589c3.1-.98,9.015,15.716,9.015,15.716l-7.577,7.662s-7.4-5.316-8.237-8.183l8.812-.15Z" transform="translate(-741.552 -122.882)" fill="#fff"/>
    <path id="Trazado_20073" data-name="Trazado 20073" d="M1828.914,961.463l-16.144-12.406c-3.412,2.678-5.264,7.4-5.479,7.967a7.1,7.1,0,0,1-11.258-8.652c.492-.354,4.576-3.361,6.381-6.925-.1-.422-16.08-12.707-16.08-12.707a.338.338,0,0,0-.475.062l-32.726,42.579a.342.342,0,0,0,.064.477l15.988,12.287a.452.452,0,0,0,.158.061.483.483,0,0,0,.177-.021c3.075-2.719,4.926-7.44,5.142-8.008a7.1,7.1,0,0,1,11.26,8.653c-.493.354-4.576,3.359-6.383,6.925.1.421,16.236,12.828,16.236,12.828a.345.345,0,0,0,.207.069.358.358,0,0,0,.27-.133l12.311-16.018a.915.915,0,0,0,.049-.1.346.346,0,0,0-.016-.256c-2.71-3.059-7.431-4.91-8-5.126a7.1,7.1,0,0,1,8.652-11.258c.354.493,3.361,4.576,6.925,6.383a.4.4,0,0,0,.127.036c.228-.07.25-.088.27-.109s12.406-16.129,12.406-16.129a.345.345,0,0,0-.063-.476Z" transform="translate(-324.158 -428.84)" fill="#4ad966"/>
    <path id="Trazado_20074" data-name="Trazado 20074" d="M2379.5,1501.734a.343.343,0,0,1-.155-.039.329.329,0,0,1-.134-.444l3.319-6.158a.332.332,0,0,1,.444-.134.329.329,0,0,1,.134.444l-3.32,6.158A.328.328,0,0,1,2379.5,1501.734Z" transform="translate(-793.751 -853.538)" fill="#fff"/>
    <path id="Trazado_20075" data-name="Trazado 20075" d="M2379.731,1516.331a.329.329,0,0,1-.288-.483l3.321-6.156a.326.326,0,1,1,.575.31l-3.321,6.156A.324.324,0,0,1,2379.731,1516.331Z" transform="translate(-793.922 -864.487)" fill="#fff"/>
    <path id="Trazado_20076" data-name="Trazado 20076" d="M2315.048,1545.951h-6.994a.328.328,0,1,1,0-.655h6.994a.328.328,0,1,1,0,.655Z" transform="translate(-740.162 -891.319)" fill="#fff"/>
    <path id="Trazado_20077" data-name="Trazado 20077" d="M2327.79,1553.081H2320.8a.328.328,0,0,1,0-.655h6.993a.328.328,0,1,1,0,.655Z" transform="translate(-749.72 -896.666)" fill="#fff"/>
    <path id="Trazado_20078" data-name="Trazado 20078" d="M2112.583,1083.793s-1.945,28.927-2.112,39.734-.143,23.036.989,26.845,5.536,7.229,30.515,22.006l.353,25.826h28.135l.625-7.577,4.835,3.032,14.424-24.611-18.159-12.1-.282-73.563s-16.081,3.726-29.484,2.8S2117.648,1085.852,2112.583,1083.793Z" transform="translate(-592.162 -544.876)" fill="#fff"/>
    <path id="Trazado_20079" data-name="Trazado 20079" d="M1664.766,500.011a.516.516,0,0,1-.365-.151l-5.663-5.664a.516.516,0,0,1,.73-.729l5.663,5.664a.516.516,0,0,1-.365.881Z" transform="translate(-253.299 -102.317)" fill="#1a1a1a"/>
    <path id="Trazado_20080" data-name="Trazado 20080" d="M1659.1,500.011a.516.516,0,0,1-.365-.881l5.663-5.664a.516.516,0,1,1,.73.729l-5.663,5.664A.516.516,0,0,1,1659.1,500.011Z" transform="translate(-253.299 -102.317)" fill="#1a1a1a"/>
    <path id="Trazado_20081" data-name="Trazado 20081" d="M1703.786,470.618a2.134,2.134,0,1,1,2.132-2.135A2.137,2.137,0,0,1,1703.786,470.618Zm0-3.237a1.1,1.1,0,1,0,1.1,1.1A1.1,1.1,0,0,0,1703.786,467.381Z" transform="translate(-285.598 -82.092)" fill="#1a1a1a"/>
    <path id="Trazado_20082" data-name="Trazado 20082" d="M2691.5,873.074a2.134,2.134,0,1,1,2.133-2.134A2.136,2.136,0,0,1,2691.5,873.074Zm0-3.236a1.1,1.1,0,1,0,1.1,1.1A1.1,1.1,0,0,0,2691.5,869.838Z" transform="translate(-1026.397 -383.941)" fill="#1a1a1a"/>
    <path id="Trazado_20083" data-name="Trazado 20083" d="M2429.025,1050.743h-54.893a.515.515,0,1,1,0-1.031h54.893a.515.515,0,0,1,0,1.031Z" transform="translate(-789.582 -519.623)" fill="#1a1a1a"/>
    <path id="Trazado_20084" data-name="Trazado 20084" d="M2057.527,1050.743h-13.9a.515.515,0,0,1,0-1.031h13.9a.515.515,0,0,1,0,1.031Z" transform="translate(-541.696 -519.623)" fill="#1a1a1a"/>
    <path id="Trazado_20085" data-name="Trazado 20085" d="M1642.269,1050.743h-2.728a.515.515,0,0,1,0-1.031h2.728a.515.515,0,0,1,0,1.031Z" transform="translate(-238.627 -519.623)" fill="#1a1a1a"/>
    <path id="Trazado_20086" data-name="Trazado 20086" d="M2183.49,687.231a.6.6,0,0,1-.565-.629l.088-1.679a.6.6,0,1,1,1.194.061l-.087,1.68A.6.6,0,0,1,2183.49,687.231Z" transform="translate(-646.559 -245.6)"/>
    <path id="Trazado_20087" data-name="Trazado 20087" d="M2221.345,687.377a.6.6,0,0,1-.564-.628l.086-1.681a.6.6,0,0,1,1.194.063l-.088,1.681A.6.6,0,0,1,2221.345,687.377Z" transform="translate(-674.952 -245.71)"/>
    <path id="Trazado_20088" data-name="Trazado 20088" d="M2198.227,762.6a.516.516,0,0,1-.515-.516v-.712a.515.515,0,1,1,1.031,0v.712A.516.516,0,0,1,2198.227,762.6Z" transform="translate(-657.65 -302.977)" fill="#1a1a1a"/>
    <path id="Trazado_20089" data-name="Trazado 20089" d="M2265.963,730.638a.515.515,0,0,1-.515-.5l-.314-10.779a.515.515,0,0,1,.5-.53.47.47,0,0,1,.53.5l.314,10.779a.515.515,0,0,1-.5.53Z" transform="translate(-708.217 -271.448)" fill="#1a1a1a"/>
    <path id="Trazado_20090" data-name="Trazado 20090" d="M2178.162,689.351a11.9,11.9,0,0,1-5.2-1.059c-4.333-2.121-3.406-7.64-2.852-10.938.1-.565.18-1.073.229-1.5.325-2.844.722-11.189.727-11.273a.542.542,0,0,1,.539-.491.516.516,0,0,1,.491.54c-.017.344-.4,8.462-.733,11.342-.051.439-.138.966-.236,1.55-.539,3.209-1.354,8.059,2.287,9.841,4.117,2.016,10.052.189,10.111.171a.516.516,0,0,1,.31.984A20.877,20.877,0,0,1,2178.162,689.351Z" transform="translate(-636.583 -230.403)" fill="#1a1a1a"/>
    <path id="Trazado_20091" data-name="Trazado 20091" d="M2203.826,716.282c-1.761,0-3.486-.894-3.927-2.036a1.925,1.925,0,0,1,.167-1.831,2.713,2.713,0,0,1,2.562-.992,9.236,9.236,0,0,0,.947.065.86.86,0,0,0,.7-.208c.25-.191.365-.279.571-1.554a2.5,2.5,0,0,1,2.232-2.313,2.017,2.017,0,0,1,1.209.423,3.4,3.4,0,0,1,1.032,2.718,5.649,5.649,0,0,1-2.112,4.564A5.53,5.53,0,0,1,2203.826,716.282Zm-1.569-3.847a1.618,1.618,0,0,0-1.34.564.9.9,0,0,0-.055.876,3.356,3.356,0,0,0,2.965,1.375,4.515,4.515,0,0,0,2.758-.951,4.626,4.626,0,0,0,1.707-3.736,2.519,2.519,0,0,0-.612-1.9c-.771-.564-1.632.11-1.812,1.222-.235,1.459-.427,1.8-.962,2.21a1.846,1.846,0,0,1-1.33.42,10.352,10.352,0,0,1-1.057-.07A2.416,2.416,0,0,0,2202.257,712.435Z" transform="translate(-659.175 -262.894)" fill="#1a1a1a"/>
    <path id="Trazado_20092" data-name="Trazado 20092" d="M2224.606,724.84a.366.366,0,0,1-.345-.247,3.257,3.257,0,0,1,.112-2.8,3.445,3.445,0,0,1,2.208-1.452.365.365,0,0,1,.123.72,2.742,2.742,0,0,0-1.706,1.109,2.576,2.576,0,0,0-.046,2.186.364.364,0,0,1-.228.464A.359.359,0,0,1,2224.606,724.84Z" transform="translate(-677.37 -272.587)" fill="#1a1a1a"/>
    <path id="Trazado_20093" data-name="Trazado 20093" d="M2223.948,672.834a.515.515,0,0,1-.356-.142,5.113,5.113,0,0,0-1.919-1.113.516.516,0,1,1,.25-1,6.086,6.086,0,0,1,2.381,1.368.515.515,0,0,1-.356.888Z" transform="translate(-675.328 -235.256)" fill="#1a1a1a"/>
    <path id="Trazado_20094" data-name="Trazado 20094" d="M2183.911,673.124a.516.516,0,0,1-.386-.859,4.342,4.342,0,0,1,2.338-1.118.516.516,0,0,1,.155,1.02,3.36,3.36,0,0,0-1.721.782A.518.518,0,0,1,2183.911,673.124Z" transform="translate(-646.912 -235.69)" fill="#1a1a1a"/>
    <path id="Trazado_20095" data-name="Trazado 20095" d="M2192.03,693.714a.517.517,0,0,1-.506-.615l1.607-8.214a.516.516,0,0,1,1.013.2l-1.322,6.762.8-.682a.516.516,0,0,1,.67.785l-1.924,1.642A.518.518,0,0,1,2192.03,693.714Z" transform="translate(-653.002 -245.685)" fill="#1a1a1a"/>
    <path id="Trazado_20096" data-name="Trazado 20096" d="M2254.185,692.95a4.978,4.978,0,0,1-2.72-.8.516.516,0,0,1,.563-.865,3.973,3.973,0,1,0,2.158-7.309,3.988,3.988,0,0,0-3.607,2.3.515.515,0,1,1-.935-.433,5,5,0,1,1,4.542,7.107Z" transform="translate(-696.564 -244.539)" fill="#1a1a1a"/>
    <path id="Trazado_20097" data-name="Trazado 20097" d="M2197.575,639.44a.5.5,0,0,1-.209-.045.516.516,0,0,1-.264-.68c3.251-7.344-2.352-10.027-2.591-10.137a.52.52,0,0,1-.235-.219c-2.61-4.721-10.122-5.065-16.414-3.308-2.682.749-4.461,2.067-5.289,3.917-1.411,3.147.366,6.835.384,6.872a.516.516,0,1,1-.926.454c-.083-.168-2-4.164-.4-7.747.959-2.143,2.962-3.654,5.954-4.489,6.619-1.849,14.568-1.418,17.515,3.665,1,.547,6.283,3.869,2.946,11.409A.517.517,0,0,1,2197.575,639.44Z" transform="translate(-637.612 -199.624)" fill="#1a1a1a"/>
    <path id="Trazado_20098" data-name="Trazado 20098" d="M2195.073,662.369a.529.529,0,0,1-.512-.579c.008-.052.6-5.194-1.927-7.221-1.251-.307-13.578-3.2-16.289,1.515a.515.515,0,1,1-.893-.514c3.227-5.617,16.957-2.127,17.542-1.974a.522.522,0,0,1,.182.088c3.093,2.339,2.438,7.992,2.409,8.23A.517.517,0,0,1,2195.073,662.369Z" transform="translate(-640.903 -221.623)" fill="#1a1a1a"/>
    <path id="Trazado_20099" data-name="Trazado 20099" d="M2256.259,643.861a.516.516,0,0,1-.318-.921l2.021-1.592a.515.515,0,1,1,.637.81l-2.021,1.592A.512.512,0,0,1,2256.259,643.861Z" transform="translate(-701.175 -213.262)" fill="#1a1a1a"/>
    <path id="Trazado_20100" data-name="Trazado 20100" d="M2174.727,824.758a.514.514,0,0,1-.474-.313l-13.581-31.78a.513.513,0,0,1-.025-.334l1.9-7.228-6.49-1.509a.516.516,0,0,1-.38-.645l3.725-12.979a.517.517,0,0,1,.158-.247l6.789-5.893a.515.515,0,0,1,.849.321l8.024,59.867a.517.517,0,0,1,.052.225.527.527,0,0,1-.527.515Zm-13.038-32.335,12.023,28.134-7.415-55.321-5.951,5.166-3.534,12.311,6.478,1.506a.515.515,0,0,1,.383.634Z" transform="translate(-626.105 -305.112)" fill="#1a1a1a"/>
    <path id="Trazado_20101" data-name="Trazado 20101" d="M2230.408,823.462a.513.513,0,0,1-.509-.593l9.125-60.455a.515.515,0,0,1,.881-.28l6.059,6.326a.521.521,0,0,1,.124.214l3.727,12.979a.516.516,0,0,1-.38.645l-6.491,1.509,1.894,7.228a.507.507,0,0,1-.027.338l-13.931,31.78A.512.512,0,0,1,2230.408,823.462Zm9.477-59.856-8.385,55.568,12.294-28.049-1.982-7.568a.518.518,0,0,1,.383-.634l6.479-1.506-3.543-12.335Z" transform="translate(-681.786 -303.817)" fill="#1a1a1a"/>
    <path id="Trazado_20102" data-name="Trazado 20102" d="M2204.721,769.648a6.827,6.827,0,0,1-5.038-1.806,6.75,6.75,0,0,1-1.808-4.624.516.516,0,0,1,1.031.034,5.8,5.8,0,0,0,1.514,3.869,6.049,6.049,0,0,0,4.647,1.491c6.52-.21,9.7-6.3,9.735-6.357a.515.515,0,1,1,.917.469c-.138.273-3.5,6.69-10.619,6.919Q2204.909,769.649,2204.721,769.648Z" transform="translate(-657.772 -303.814)" fill="#1a1a1a"/>
    <path id="Trazado_20103" data-name="Trazado 20103" d="M1629.3,718.134a.5.5,0,0,0,.46-.538l-.106-1.407a.5.5,0,0,0-1,.077l.107,1.407A.5.5,0,0,0,1629.3,718.134Z" transform="translate(-230.849 -269.129)"/>
    <path id="Trazado_20104" data-name="Trazado 20104" d="M1614.408,784.123a.507.507,0,0,1-.136-.019.515.515,0,0,1-.362-.633l1.781-6.537a.515.515,0,1,1,.995.271l-1.781,6.537A.515.515,0,0,1,1614.408,784.123Z" transform="translate(-219.777 -314.75)" fill="#1a1a1a"/>
    <g id="Grupo_10447" data-name="Grupo 10447" transform="translate(1541.934 358.721)">
      <path id="Trazado_20105" data-name="Trazado 20105" d="M2213.154,381.938a7.964,7.964,0,0,1-7.954-7.955.519.519,0,0,1,.023-.153c.016-.05,1.565-5.137.833-9.019a.515.515,0,1,1,1.013-.191c.739,3.913-.63,8.743-.837,9.438a6.923,6.923,0,0,0,13.845,0c-.207-.695-1.579-5.525-.84-9.438a.515.515,0,1,1,1.012.191c-.731,3.882.821,8.969.837,9.019a.524.524,0,0,1,.022.153A7.964,7.964,0,0,1,2213.154,381.938Z" transform="translate(-2205.2 -364.199)" fill="#1a1a1a"/>
    </g>
    <g id="Grupo_10448" data-name="Grupo 10448" transform="translate(1541.934 395.718)">
      <path id="Trazado_20106" data-name="Trazado 20106" d="M2219.746,529.932a.514.514,0,0,1-.506-.421c-.739-3.913.63-8.743.837-9.437a6.923,6.923,0,0,0-13.845,0c.207.694,1.579,5.525.84,9.437a.515.515,0,1,1-1.013-.191c.731-3.882-.82-8.968-.836-9.019a.515.515,0,0,1-.023-.153,7.954,7.954,0,0,1,15.909,0,.526.526,0,0,1-.022.153c-.016.05-1.565,5.137-.834,9.019a.516.516,0,0,1-.506.611Z" transform="translate(-2205.2 -512.195)" fill="#1a1a1a"/>
    </g>
    <g id="Grupo_10449" data-name="Grupo 10449" transform="translate(1555.962 358.721)">
      <path id="Trazado_20107" data-name="Trazado 20107" d="M2282.192,404.928a.515.515,0,0,1-.515-.516v-6.2a.516.516,0,0,1,.42-.507c3.914-.735,8.741.632,9.435.838a6.923,6.923,0,0,0,0-13.846c-.694.208-5.514,1.58-9.435.841a.516.516,0,0,1-.42-.507v-19.8h-19.846a.516.516,0,0,1,0-1.032h20.361a.515.515,0,0,1,.515.516V384.6a23.394,23.394,0,0,0,8.6-.905.542.542,0,0,1,.154-.023,7.955,7.955,0,0,1,0,15.91.518.518,0,0,1-.152-.023,23.489,23.489,0,0,0-8.6-.9v5.759A.515.515,0,0,1,2282.192,404.928Z" transform="translate(-2261.315 -364.201)" fill="#1a1a1a"/>
    </g>
    <g id="Grupo_10450" data-name="Grupo 10450" transform="translate(1555.964 405.967)">
      <path id="Trazado_20108" data-name="Trazado 20108" d="M2282.2,560.682h-20.359a.516.516,0,0,1,0-1.032h19.843v-5.94a.515.515,0,1,1,1.03,0v6.456A.515.515,0,0,1,2282.2,560.682Z" transform="translate(-2261.327 -553.194)" fill="#1a1a1a"/>
    </g>
    <g id="Grupo_10451" data-name="Grupo 10451" transform="translate(1522.62 406.084)">
      <path id="Trazado_20109" data-name="Trazado 20109" d="M2148.622,561.033h-20.163a.516.516,0,0,1-.516-.516v-6.339a.515.515,0,1,1,1.031,0V560h19.648a.516.516,0,0,1,0,1.032Z" transform="translate(-2127.943 -553.661)" fill="#1a1a1a"/>
    </g>
    <g id="Grupo_10452" data-name="Grupo 10452" transform="translate(1522.62 382.514)">
      <path id="Trazado_20110" data-name="Trazado 20110" d="M2128.459,476.3a.516.516,0,0,1-.516-.516v-15.89a.515.515,0,1,1,1.031,0v15.89A.516.516,0,0,1,2128.459,476.3Z" transform="translate(-2127.943 -459.377)" fill="#1a1a1a"/>
    </g>
    <g id="Grupo_10453" data-name="Grupo 10453" transform="translate(1522.62 358.721)">
      <path id="Trazado_20111" data-name="Trazado 20111" d="M2128.459,374.36a.516.516,0,0,1-.516-.516v-9.127a.516.516,0,0,1,.516-.516h20.16a.516.516,0,0,1,0,1.032h-19.645v8.611A.516.516,0,0,1,2128.459,374.36Z" transform="translate(-2127.943 -364.201)" fill="#1a1a1a"/>
    </g>
    <g id="Grupo_10454" data-name="Grupo 10454" transform="translate(1468.285 507.875)">
      <path id="Trazado_20112" data-name="Trazado 20112" d="M1918.525,980.688a7.958,7.958,0,0,1-6.293-12.8.569.569,0,0,1,.111-.107c.044-.031,4.372-3.119,6.156-6.643a.516.516,0,0,1,.921.466c-1.8,3.552-5.827,6.548-6.416,6.972a6.924,6.924,0,0,0,10.98,8.438c.259-.677,2.115-5.343,5.084-8a.516.516,0,1,1,.688.768c-2.95,2.636-4.814,7.612-4.833,7.662a.5.5,0,0,1-.074.136,7.911,7.911,0,0,1-5.276,3.039A8.038,8.038,0,0,1,1918.525,980.688Z" transform="translate(-1910.589 -960.851)" fill="#1a1a1a"/>
    </g>
    <g id="Grupo_10455" data-name="Grupo 10455" transform="translate(1443.42 539.685)">
      <path id="Trazado_20113" data-name="Trazado 20113" d="M1822.09,1107.935a.515.515,0,0,1-.46-.748c1.8-3.553,5.829-6.549,6.416-6.974a6.924,6.924,0,0,0-10.978-8.438c-.259.678-2.116,5.342-5.084,8a.516.516,0,0,1-.688-.768c2.949-2.636,4.814-7.611,4.832-7.66a.52.52,0,0,1,.074-.136,7.955,7.955,0,0,1,12.616,9.695.55.55,0,0,1-.111.107c-.044.03-4.371,3.12-6.156,6.643A.514.514,0,0,1,1822.09,1107.935Z" transform="translate(-1811.123 -1088.1)" fill="#1a1a1a"/>
    </g>
    <path id="Trazado_20114" data-name="Trazado 20114" d="M1988.1,1022.532a.515.515,0,0,1-.41-.83l12.067-15.7-15.735-12.1a.516.516,0,0,1,.629-.819L2000.8,1005.5a.517.517,0,0,1,.1.724l-12.381,16.108A.515.515,0,0,1,1988.1,1022.532Z" transform="translate(-497.23 -477.076)" fill="#1a1a1a"/>
    <path id="Trazado_20115" data-name="Trazado 20115" d="M1934.948,1094.945a.514.514,0,0,1-.384-.171c-2.631-2.944-7.611-4.814-7.66-4.832a.517.517,0,0,1-.136-.074,7.955,7.955,0,1,1,9.694-12.616.574.574,0,0,1,.107.112c.03.043,3.12,4.371,6.643,6.156a.516.516,0,0,1-.468.92c-3.55-1.8-6.547-5.829-6.971-6.415a6.923,6.923,0,0,0-8.438,10.978c.677.259,5.343,2.116,8,5.084a.515.515,0,0,1-.384.859Z" transform="translate(-452.107 -539.041)" fill="#1a1a1a"/>
    <path id="Trazado_20116" data-name="Trazado 20116" d="M1869.586,1165.915a.515.515,0,0,1-.314-.106l-16.141-12.4a.516.516,0,1,1,.629-.819l15.731,12.091,12-15.609a.516.516,0,1,1,.819.629L1870,1165.714A.516.516,0,0,1,1869.586,1165.915Z" transform="translate(-399.057 -593.989)" fill="#1a1a1a"/>
    <g id="Grupo_10456" data-name="Grupo 10456" transform="translate(1427.433 516.583)">
      <path id="Trazado_20117" data-name="Trazado 20117" d="M1763.673,1030.591a.515.515,0,0,1-.314-.106l-15.988-12.287a.518.518,0,0,1-.1-.724l16.591-21.587a.516.516,0,1,1,.819.628l-16.276,21.177,15.578,11.973a.515.515,0,0,1-.314.925Z" transform="translate(-1747.17 -995.685)" fill="#1a1a1a"/>
    </g>
    <g id="Grupo_10457" data-name="Grupo 10457" transform="translate(1452.575 495.589)">
      <path id="Trazado_20118" data-name="Trazado 20118" d="M1871.826,925.024a.513.513,0,0,1-.314-.107l-15.574-11.972-7.267,9.456a.516.516,0,0,1-.819-.628l7.581-9.865a.517.517,0,0,1,.343-.2.5.5,0,0,1,.381.1l15.983,12.286a.516.516,0,0,1-.314.925Z" transform="translate(-1847.745 -911.705)" fill="#1a1a1a"/>
    </g>
    <path id="Trazado_20119" data-name="Trazado 20119" d="M2080.557,702.01c-29.706,0-33.063-4.289-33.347-4.779a.511.511,0,0,1-.07-.283l2.582-54.137c-11.6-6.5-15.525-16.98-18.3-26.308-6.674-22.454,13.915-45.587,14.123-45.818a.514.514,0,0,1,.373-.17.479.479,0,0,1,.38.155l11.938,12.217a.515.515,0,0,1,.043.669c-5.887,7.881-11.337,16.392-7.763,26.156,1.874,5.12,6.454,13.6,16.226,13.6.188,0,.377,0,.571-.01a.573.573,0,0,1,.532.5.516.516,0,0,1-.5.532c-.206.007-.411.01-.614.01-10.39,0-15.216-8.9-17.183-14.274-3.695-10.092,1.937-19.1,7.641-26.774l-11.239-11.5c-2.707,3.191-19.562,24.154-13.54,44.417,2.735,9.206,6.615,19.556,18.086,25.854a.516.516,0,0,1,.267.477l-2.588,54.253c.639.59,5.626,4.186,32.377,4.186,26.6,0,34.364-3.547,35.692-4.288l-2.582-54.151a.515.515,0,0,1,.266-.477c11.474-6.3,15.352-16.649,18.086-25.854,6.025-20.273-10.834-41.227-13.541-44.418l-11.239,11.5c5.7,7.672,11.337,16.677,7.644,26.774-3.1,8.474-11.924,14.654-20.375,14.371a.516.516,0,0,1,.016-1.031c8.126.265,16.435-5.619,19.39-13.694,3.573-9.77-1.878-18.278-7.766-26.156a.515.515,0,0,1,.043-.669l11.939-12.217a.38.38,0,0,1,.38-.155.514.514,0,0,1,.372.17c.208.231,20.8,23.364,14.125,45.818-2.77,9.327-6.7,19.807-18.3,26.308l2.582,54.137a.518.518,0,0,1-.2.435C2116.842,697.572,2110.651,702.01,2080.557,702.01Z" transform="translate(-531.935 -160.212)" fill="#1a1a1a"/>
    <path id="Trazado_20120" data-name="Trazado 20120" d="M1616.438,707.238a.516.516,0,0,1-.031-1.03c3.021-.187,5.187-1.116,6.436-2.762a7.025,7.025,0,0,0,1.112-5.191.518.518,0,0,1,.308-.585,4.98,4.98,0,0,0,2.022-1.281,9.888,9.888,0,0,0-1.254-1.1c-1.05-.847-1.695-1.4-1.786-2.008a46.242,46.242,0,0,0-2.689-9.931.516.516,0,1,1,.95-.4,46.528,46.528,0,0,1,2.761,10.179c.06.267.938.976,1.412,1.357a5.1,5.1,0,0,1,1.58,1.625c.36.975-1.1,1.843-2.226,2.353a7.849,7.849,0,0,1-1.361,5.6c-1.438,1.9-3.861,2.972-7.2,3.178Z" transform="translate(-221.299 -244.307)" fill="#1a1a1a"/>
    <path id="Trazado_20121" data-name="Trazado 20121" d="M1513.08,694.769a15.292,15.292,0,0,1-4.389-.587,12.723,12.723,0,0,1-7.559-6.708,9.972,9.972,0,0,1,.085-7.891c.883-2.041,2.888-4.77,7.427-6.358-.326-1.706-1.282-7.81.8-11.951,1.918-3.815,16.7-7.184,23.413-4.407,2.349.972,4.8,3.119,3.136,7.83a.521.521,0,0,1-.657.313.507.507,0,0,1-.317-.647c1.123-3.183.262-5.389-2.563-6.558-6.434-2.66-20.552.87-22.089,3.922-2.231,4.433-.644,11.653-.627,11.726a.506.506,0,0,1-.342.593c-3.547,1.143-6.049,3.2-7.234,5.937a9.049,9.049,0,0,0-.1,7.051A11.687,11.687,0,0,0,1509,693.21a18.018,18.018,0,0,0,8.738,0,7.086,7.086,0,0,0,4.761-3.156c1.026-1.869.551-3.956-.071-6.11l-.091-.335a27.522,27.522,0,0,0-.932-3.11.5.5,0,0,1-.136-.187.505.505,0,0,1,.276-.665c6.624-2.732,12.214-16.62,12.271-16.76a.522.522,0,0,1,.667-.288.506.506,0,0,1,.292.659c-.228.574-5.541,13.766-12.32,17.1.183.494.445,1.376.88,3l.085.314c.683,2.365,1.2,4.669-.012,6.874a8.107,8.107,0,0,1-5.437,3.663A22.088,22.088,0,0,1,1513.08,694.769Z" transform="translate(-134.629 -224.219)" fill="#1a1a1a"/>
    <path id="Trazado_20122" data-name="Trazado 20122" d="M1491.3,1147.157a251.393,251.393,0,0,1-32.177-2.051.516.516,0,0,1-.426-.637c.054-.21,5.31-21.227,5.5-32.522.263-15.883,4.11-32.8,4.149-32.967a.506.506,0,0,1,.569-.395l35.926,4.631a.515.515,0,0,1,.435.389l8.138,33.359a.515.515,0,1,1-1,.244l-8.055-33.015-35.107-4.526c-.612,2.8-3.785,17.977-4.024,32.3-.173,10.371-4.552,28.763-5.392,32.2,4.359.581,33.115,4.107,59.157.012l-3.855-15.806a.515.515,0,1,1,1-.244l3.99,16.349a.514.514,0,0,1-.07.406.52.52,0,0,1-.348.225A181.121,181.121,0,0,1,1491.3,1147.157Z" transform="translate(-103.365 -541.275)" fill="#1a1a1a"/>
    <path id="Trazado_20123" data-name="Trazado 20123" d="M1486.105,1394.647a.46.46,0,0,1-.134-.018.515.515,0,0,1-.363-.631l12.463-46.136a.515.515,0,0,1,.995.268l-12.463,46.136A.513.513,0,0,1,1486.105,1394.647Z" transform="translate(-123.548 -742.953)" fill="#1a1a1a"/>
    <path id="Trazado_20124" data-name="Trazado 20124" d="M1474.3,1398.948h-29.21a.514.514,0,0,1-.512-.569l.865-8.362,5.563-47.492a.5.5,0,0,1,.572-.453.515.515,0,0,1,.453.572l-5.563,47.487-.805,7.787H1474.3a.164.164,0,0,0,.055-.317l-19.188-7.045a.515.515,0,1,1,.354-.968l19.189,7.045a1.194,1.194,0,0,1-.411,2.316Z" transform="translate(-92.782 -738.893)" fill="#1a1a1a"/>
    <path id="Trazado_20125" data-name="Trazado 20125" d="M1599.723,804.134a.517.517,0,0,1-.488-.35l-2.469-7.279-6.2-2.558a.516.516,0,0,1,.393-.953l6.42,2.648a.516.516,0,0,1,.292.31l2.545,7.5a.517.517,0,0,1-.488.682Z" transform="translate(-202.039 -327.051)" fill="#1a1a1a"/>
    <path id="Trazado_20126" data-name="Trazado 20126" d="M1533.73,881.837c-.066,0-35.992-4.636-35.992-4.636a.511.511,0,0,1-.344-.2.516.516,0,0,1-.1-.384c.046-.34,4.615-34.123,3.909-43.005-1.346-16.909,5.775-24.434,6.079-24.746a.516.516,0,0,1,.74.719c-.071.073-7.1,7.54-5.791,23.946.676,8.492-3.248,38.254-3.845,42.711l34.766,4.483c-.345-3.488-1.79-19.614.076-28.09a.515.515,0,0,1,1.007.222c-2.019,9.169-.01,28.216.009,28.406a.516.516,0,0,1-.512.57Z" transform="translate(-132.322 -338.87)" fill="#1a1a1a"/>
    <path id="Trazado_20127" data-name="Trazado 20127" d="M1604.8,856.313c-37.393,0-45.359-32.335-45.44-32.689a.514.514,0,0,1,.386-.619.52.52,0,0,1,.618.386c.086.372,9.127,36.949,53.469,31.3l-7-13.215c-2.054-.632-18.1-5.961-24.817-19.723-4.462-9.14-10.3-14.478-17.353-15.865a.516.516,0,0,1,.2-1.013c7.386,1.454,13.47,6.98,18.08,16.426,6.942,14.231,24.211,19.2,24.384,19.247a.511.511,0,0,1,.317.255l7.445,14.061a.516.516,0,0,1-.386.752A73.193,73.193,0,0,1,1604.8,856.313Z" transform="translate(-178.864 -335.981)" fill="#1a1a1a"/>
    <path id="Trazado_20128" data-name="Trazado 20128" d="M1661.383,1024.28a.5.5,0,0,1-.1-.01,65.648,65.648,0,0,1-23.557-9.576.515.515,0,0,1,.584-.849,65.355,65.355,0,0,0,22.61,9.3l1.1-13.259a51.457,51.457,0,0,1-7.184-4.6.516.516,0,1,1,.691-.765c1.857,1.678,7.225,4.589,7.281,4.618a.519.519,0,0,1,.268.5l-1.175,14.175a.515.515,0,0,1-.2.37A.523.523,0,0,1,1661.383,1024.28Z" transform="translate(-237.482 -485.627)" fill="#1a1a1a"/>
    <path id="Trazado_20129" data-name="Trazado 20129" d="M1470.248,1541.739c-6.493,0-20.351-3.68-21-3.852a.516.516,0,0,1,.265-1c.174.047,17.392,4.633,22.345,3.7a.516.516,0,0,1,.188,1.016A10.2,10.2,0,0,1,1470.248,1541.739Z" transform="translate(-96.006 -885.001)" fill="#1a1a1a"/>
    <path id="Trazado_20130" data-name="Trazado 20130" d="M1699.19,1390.6a.516.516,0,0,1-.506-.414l-9.553-47.486a.516.516,0,1,1,1.013-.2l9.553,47.486a.518.518,0,0,1-.405.608A.6.6,0,0,1,1699.19,1390.6Z" transform="translate(-276.199 -738.91)" fill="#1a1a1a"/>
    <path id="Trazado_20131" data-name="Trazado 20131" d="M1672.012,1403.01h-25.686a.515.515,0,0,1-.491-.359l-2.658-8.362-15.538-46.127a.516.516,0,1,1,.977-.331l15.541,46.136,2.546,8.012h25.31a.164.164,0,0,0,.057-.317l-19.19-7.045a.515.515,0,1,1,.355-.968l19.189,7.045a1.194,1.194,0,0,1-.411,2.316Z" transform="translate(-230.066 -742.954)" fill="#1a1a1a"/>
    <path id="Trazado_20132" data-name="Trazado 20132" d="M1712,1541.739c-6.491,0-20.35-3.68-21-3.852a.516.516,0,1,1,.265-1c.174.047,17.4,4.639,22.345,3.7a.516.516,0,1,1,.188,1.016A10.172,10.172,0,0,1,1712,1541.739Z" transform="translate(-277.32 -885.001)" fill="#1a1a1a"/>
    <path id="Trazado_20133" data-name="Trazado 20133" d="M2102.5,534.961a.543.543,0,0,1-.177-.031.516.516,0,0,1-.307-.661c.526-1.444,5.23-14.138,8.22-15.269a1.292,1.292,0,0,1,1.112.052,2.314,2.314,0,0,1,1.2,1.617c.6,2.794-3,7.549-3.15,7.75a.515.515,0,1,1-.819-.625c.964-1.266,3.375-4.975,2.961-6.909a1.294,1.294,0,0,0-.687-.927.285.285,0,0,0-.253.007c-1.919.725-5.69,9.375-7.617,14.657A.516.516,0,0,1,2102.5,534.961Z" transform="translate(-585.851 -121.506)" fill="#1a1a1a"/>
    <path id="Trazado_20134" data-name="Trazado 20134" d="M2131.305,588.013a.516.516,0,0,1-.258-.963c.054-.03,5.394-3.155,8.047-7.771a.515.515,0,1,1,.894.514c-2.793,4.861-8.2,8.018-8.426,8.15A.511.511,0,0,1,2131.305,588.013Z" transform="translate(-607.457 -166.598)" fill="#1a1a1a"/>
    <path id="Trazado_20135" data-name="Trazado 20135" d="M2341.172,535.407a.516.516,0,0,1-.482-.333c-2.075-5.453-6.1-14.376-8.055-15.1a.28.28,0,0,0-.244-.008,1.334,1.334,0,0,0-.7.94c-.41,1.919,1.945,5.544,2.886,6.779a.515.515,0,1,1-.819.625c-.15-.2-3.668-4.849-3.075-7.619a2.334,2.334,0,0,1,1.212-1.631,1.287,1.287,0,0,1,1.1-.054c3.041,1.126,8.094,14.213,8.661,15.7a.515.515,0,0,1-.3.665A.505.505,0,0,1,2341.172,535.407Z" transform="translate(-757.332 -121.514)" fill="#1a1a1a"/>
    <path id="Trazado_20136" data-name="Trazado 20136" d="M2316.066,588.013a.51.51,0,0,1-.258-.069c-.229-.132-5.632-3.289-8.426-8.15a.515.515,0,1,1,.894-.514c2.654,4.616,7.994,7.74,8.048,7.771a.516.516,0,0,1-.258.963Z" transform="translate(-739.853 -166.598)" fill="#1a1a1a"/>
    <path id="Trazado_20137" data-name="Trazado 20137" d="M1784.222,994.467h-9.6a.515.515,0,1,1,0-1.03h9.6a.515.515,0,1,1,0,1.03Z" transform="translate(-339.94 -477.416)" fill="#1a1a1a"/>
    <path id="Trazado_20138" data-name="Trazado 20138" d="M1765.424,960.128a.517.517,0,0,1-.109-.012l-11.41-2.458a.516.516,0,0,1-.4-.613.508.508,0,0,1,.613-.4l11.41,2.458a.516.516,0,0,1-.109,1.02Z" transform="translate(-324.483 -449.815)" fill="#1a1a1a"/>
    <path id="Trazado_20139" data-name="Trazado 20139" d="M1738.791,1066.254a.541.541,0,0,1-.144-.019l-5.942-1.73a.517.517,0,0,1,.289-.992l5.942,1.731a.516.516,0,0,1-.145,1.011Z" transform="translate(-308.609 -529.96)" fill="#1a1a1a"/>
    <path id="Trazado_20140" data-name="Trazado 20140" d="M1745.58,1035.067a.516.516,0,0,1-.231-.054l-9.388-4.693a.516.516,0,0,1,.462-.923l9.388,4.692a.515.515,0,0,1-.231.977Z" transform="translate(-311.117 -504.345)" fill="#1a1a1a"/>
    <path id="Trazado_20141" data-name="Trazado 20141" d="M1810.289,965.355a15.544,15.544,0,0,1-7.474-3.5.515.515,0,1,1,.742-.715,14.963,14.963,0,0,0,6.743,3.185c5.422-1.52,9.5-4.66,9.407-5.416-.453-.582-2.1-.378-3.31-.231-.566.068-1.09.117-1.522.127-1.453-.027-6.226-2.573-6.765-2.863a.516.516,0,0,1-.165-.768l2.956-3.846c-4.479-.594-10.875,3.862-10.943,3.91a.516.516,0,0,1-.6-.843c.31-.218,7.619-5.327,12.591-3.9a.516.516,0,0,1,.267.81l-3.086,4.014c1.991,1.042,4.931,2.44,5.759,2.455a9.986,9.986,0,0,0,1.379-.119c1.61-.2,3.44-.422,4.261.644a1.07,1.07,0,0,1,.137,1.02c-.6,1.8-5.505,4.713-10.1,6A1.042,1.042,0,0,1,1810.289,965.355Z" transform="translate(-358.718 -445.023)" fill="#1a1a1a"/>
    <path id="Trazado_20142" data-name="Trazado 20142" d="M1621.734,707.633a.516.516,0,0,1-.338-.906,6.942,6.942,0,0,1,2.525-1.323.516.516,0,1,1,.256,1,5.877,5.877,0,0,0-2.106,1.1A.516.516,0,0,1,1621.734,707.633Z" transform="translate(-225.272 -261.374)" fill="#1a1a1a"/>
    <path id="Trazado_20143" data-name="Trazado 20143" d="M2489.269,1423.495a.515.515,0,0,1-.289-.088c-12.211-8.289-12.263-35.5-12.259-36.65a.515.515,0,0,1,1.031,0c0,.277.051,27.813,11.806,35.792a.515.515,0,0,1-.289.943Z" transform="translate(-866.911 -772.027)" fill="#1a1a1a"/>
    <path id="Trazado_20144" data-name="Trazado 20144" d="M2629.907,1423.407a.516.516,0,0,1-.295-.938c11.636-8.087,11.684-35.433,11.684-35.708a.515.515,0,0,1,1.03,0c0,1.145-.044,28.162-12.125,36.558A.519.519,0,0,1,2629.907,1423.407Z" transform="translate(-981.416 -772.027)" fill="#1a1a1a"/>
    <path id="Trazado_20145" data-name="Trazado 20145" d="M2559.8,1198.576a.515.515,0,0,1-.5-.641,14.869,14.869,0,0,1,.665-1.988c.106-.268.216-.548.329-.864a30.572,30.572,0,0,1,9.86-13.867.516.516,0,1,1,.632.816,29.522,29.522,0,0,0-9.52,13.4c-.118.325-.231.612-.34.889a13.608,13.608,0,0,0-.625,1.861A.516.516,0,0,1,2559.8,1198.576Z" transform="translate(-928.835 -618.172)" fill="#1a1a1a"/>
    <path id="Trazado_20146" data-name="Trazado 20146" d="M2597.836,1151.483a17.432,17.432,0,0,1-4.745-.674,21.71,21.71,0,0,1-4.433-1.991.515.515,0,1,1,.518-.89,21.073,21.073,0,0,0,4.2,1.89,15.61,15.61,0,0,0,9.763-.311c8.263-3.01,13.873-12.4,15.766-20.378a29.509,29.509,0,0,0-.6-16.43c-.183-.53-.383-1.056-.582-1.581a18.943,18.943,0,0,1-1.361-4.862c-.318-3.331,1.35-6.488,2.963-9.542a40.413,40.413,0,0,0,1.789-3.675c1.191-2.975,1.224-5.58.1-7.742-2.015-3.869-7.091-5.094-7.142-5.106-.11-.036-5.038-1.793-8.835.333-2.125,1.19-3.525,3.385-4.162,6.524a40.154,40.154,0,0,0-.521,4.052,33.679,33.679,0,0,1-.883,5.744.525.525,0,0,1-.636.359.517.517,0,0,1-.359-.636,32.813,32.813,0,0,0,.852-5.565,40.62,40.62,0,0,1,.538-4.159c.7-3.449,2.272-5.879,4.675-7.223,4.215-2.353,9.41-.5,9.627-.416.167.034,5.53,1.332,7.761,5.616,1.272,2.441,1.252,5.336-.057,8.6a40.538,40.538,0,0,1-1.833,3.772c-1.542,2.92-3.136,5.94-2.847,8.963a17.832,17.832,0,0,0,1.3,4.6c.2.534.407,1.071.591,1.61a30.527,30.527,0,0,1,.632,17.005c-1.957,8.244-7.791,17.968-16.417,21.108A16.4,16.4,0,0,1,2597.836,1151.483Z" transform="translate(-950.674 -541.162)" fill="#1a1a1a"/>
    <path id="Trazado_20147" data-name="Trazado 20147" d="M2593.982,1178.319a.486.486,0,0,1-.151-.022.514.514,0,0,1-.342-.643l22.311-73.274a.509.509,0,0,1,.643-.343.514.514,0,0,1,.343.643l-22.311,73.274A.514.514,0,0,1,2593.982,1178.319Z" transform="translate(-954.472 -560.348)" fill="#1a1a1a"/>
    <path id="Trazado_20148" data-name="Trazado 20148" d="M2505.905,1233.737c-7.822,0-13.414-8.288-14.707-16.087a20.749,20.749,0,0,1,1.226-11.5c.152-.357.314-.71.476-1.065a11.8,11.8,0,0,0,1.071-2.981c.328-1.973-.594-4.055-1.485-6.068a27.384,27.384,0,0,1-1.063-2.636,6.912,6.912,0,0,1,.38-5.925c1.741-2.841,5.479-3.477,5.638-3.5a9.878,9.878,0,0,1,2.521-.313c2.266,0,6.176.815,6.892,6.268a26.934,26.934,0,0,1,.17,2.838c.058,2.2.118,4.478,1.257,6.119a11.927,11.927,0,0,0,2.249,2.235c.3.249.6.5.884.755a20.75,20.75,0,0,1,6.034,9.864c1.583,5.532,1.358,13.237-2.712,17.979a11.392,11.392,0,0,1-6.089,3.683A11.7,11.7,0,0,1,2505.905,1233.737Zm-5.943-49.042a9.3,9.3,0,0,0-2.3.286c-.094.02-3.5.6-4.986,3.041a5.94,5.94,0,0,0-.274,5.066,26.662,26.662,0,0,0,1.023,2.534c.953,2.152,1.937,4.377,1.561,6.654a12.779,12.779,0,0,1-1.153,3.245c-.158.344-.316.688-.463,1.035a19.7,19.7,0,0,0-1.157,10.925c1.047,6.323,5.985,15.225,13.688,15.225a10.684,10.684,0,0,0,2.5-.305,10.355,10.355,0,0,0,5.547-3.352c3.821-4.45,4.01-11.755,2.5-17.023a19.718,19.718,0,0,0-5.727-9.376c-.281-.25-.572-.493-.861-.735a12.786,12.786,0,0,1-2.433-2.438c-1.315-1.894-1.38-4.328-1.441-6.679a26.588,26.588,0,0,0-.161-2.733C2505.247,1185.625,2502.318,1184.694,2499.962,1184.694Z" transform="translate(-877.537 -620.088)" fill="#1a1a1a"/>
    <path id="Trazado_20149" data-name="Trazado 20149" d="M2530.448,1250.623a.516.516,0,0,1-.5-.4l-11.067-49.177a.516.516,0,0,1,1.007-.226l11.067,49.177a.514.514,0,0,1-.5.629Z" transform="translate(-898.519 -632.653)" fill="#1a1a1a"/>
    <path id="Trazado_20150" data-name="Trazado 20150" d="M2502.272,1381.826c-1.044,0-25.551-.036-25.551-3.239,0-.542,0-2.194,14.587-2.966a.526.526,0,0,1,.542.489.516.516,0,0,1-.488.542c-8.871.471-12.859,1.382-13.547,1.937,1.11.932,10.1,2.207,24.458,2.207s23.356-1.276,24.458-2.208c-1.1-.932-10.094-2.208-24.458-2.208q-1.057,0-2.088.009a.515.515,0,0,1-.009-1.031q1.037-.009,2.1-.009c1.044,0,25.55.036,25.55,3.239S2503.316,1381.826,2502.272,1381.826Z" transform="translate(-866.911 -763.855)" fill="#1a1a1a"/>
    <path id="Trazado_20151" data-name="Trazado 20151" d="M2538.3,1532.928c-2.764,0-11.885-.082-13.248-1.135a.516.516,0,1,1,.631-.816c.46.356,4.292.92,12.616.92,8.542,0,12.381-.6,12.877-1a.516.516,0,0,1,.649.8C2550.419,1532.84,2541.117,1532.928,2538.3,1532.928Z" transform="translate(-903.011 -880.432)" fill="#1a1a1a"/>
    <path id="Trazado_20152" data-name="Trazado 20152" d="M2508.147,1459.834c-2.4,0-23.5-.086-23.5-3.078a.515.515,0,1,1,1.03,0c.59.78,8.951,2.047,22.467,2.047,13.6,0,22.013-1.269,22.634-2.144a.466.466,0,0,1,.5-.467.55.55,0,0,1,.5.564C2531.788,1459.8,2509.113,1459.834,2508.147,1459.834Z" transform="translate(-872.858 -824.489)" fill="#1a1a1a"/>
    <path id="Trazado_20153" data-name="Trazado 20153" d="M2259.987,696.006a.522.522,0,0,1-.259-.07l-2.746-1.6a.516.516,0,0,1-.1-.817l3.2-3.087a.516.516,0,0,1,.718.741l-2.707,2.614,2.156,1.255a.516.516,0,0,1-.259.962Z" transform="translate(-701.911 -250.05)" fill="#1a1a1a"/>
    <path id="Trazado_20154" data-name="Trazado 20154" d="M2281.427,1548.348l-25.648-.414a.513.513,0,0,1-.337-.133l-1.281-1.158-.312.905a.506.506,0,0,1-.5.347l-3.731-.059a.517.517,0,0,1-.506-.487l-.336-6.17a.517.517,0,0,1,.487-.544.49.49,0,0,1,.543.487l.31,5.69,2.875.046.445-1.29a.51.51,0,0,1,.359-.33.5.5,0,0,1,.474.116l1.717,1.552,23.376.377-10.282-5.682a.516.516,0,0,1,.5-.9l12.09,6.682a.515.515,0,0,1-.249.966Z" transform="translate(-695.952 -887.823)" fill="#1a1a1a"/>
    <path id="Trazado_20155" data-name="Trazado 20155" d="M2377.092,1474.975a.515.515,0,0,1-.515-.532l.447-14.6a.515.515,0,0,1,1.03.033l-.383,12.527,11.6-20.3-.457-2.27a.512.512,0,0,1,.142-.466.518.518,0,0,1,.468-.14l1.334.274,1.427-2.5-4.875-3.266a.518.518,0,0,1-.142-.716.524.524,0,0,1,.717-.142l5.275,3.534a.517.517,0,0,1,.161.685l-1.851,3.238a.511.511,0,0,1-.552.249l-.937-.192.341,1.695a.516.516,0,0,1-.057.357l-12.725,22.26A.516.516,0,0,1,2377.092,1474.975Z" transform="translate(-791.802 -814.45)" fill="#1a1a1a"/>
    <path id="Trazado_20156" data-name="Trazado 20156" d="M2220.572,1163.694H2208.5a.515.515,0,1,1,0-1.031h12.068a.515.515,0,0,1,0,1.031Z" transform="translate(-665.357 -604.338)" fill="#1a1a1a"/>
    <path id="Trazado_20157" data-name="Trazado 20157" d="M2356.821,1155.529a.516.516,0,0,1-.515-.515l.023-73.178a.515.515,0,1,1,1.03,0l-.022,73.178A.515.515,0,0,1,2356.821,1155.529Z" transform="translate(-776.598 -543.331)" fill="#1a1a1a"/>
    <path id="Trazado_20158" data-name="Trazado 20158" d="M2263.66,1464.182h-28.135a.515.515,0,0,1-.515-.508l-.354-25.826a.515.515,0,0,1,1.031-.015l.347,25.319h27.15l.587-7.1a.524.524,0,0,1,.555-.472.515.515,0,0,1,.472.555l-.625,7.577A.516.516,0,0,1,2263.66,1464.182Z" transform="translate(-685.359 -810.339)" fill="#1a1a1a"/>
    <path id="Trazado_20159" data-name="Trazado 20159" d="M2232.146,1197.1a.514.514,0,0,1-.515-.508l-.445-32.223a.514.514,0,0,1,.508-.523.534.534,0,0,1,.522.508l.445,32.223a.514.514,0,0,1-.507.523Z" transform="translate(-682.756 -605.223)" fill="#1a1a1a"/>
    <path id="Trazado_20160" data-name="Trazado 20160" d="M2193.524,1351.191a.514.514,0,0,1-.274-.079l-59.145-37.1a.515.515,0,1,1,.548-.873l58.7,36.817,13.909-23.733-48.836-32.544a.516.516,0,1,1,.572-.858l49.241,32.814a.515.515,0,0,1,.159.689l-14.424,24.611a.516.516,0,0,1-.323.24A.483.483,0,0,1,2193.524,1351.191Z" transform="translate(-609.763 -701.893)" fill="#1a1a1a"/>
    <path id="Trazado_20161" data-name="Trazado 20161" d="M2112.825,1102.567a.522.522,0,0,1-.515-.543c.582-10.43,1.188-18.5,1.194-18.585a.5.5,0,0,1,.552-.475.513.513,0,0,1,.475.552c-.006.08-.611,8.146-1.191,18.564A.517.517,0,0,1,2112.825,1102.567Z" transform="translate(-593.597 -544.561)" fill="#1a1a1a"/>
    <path id="Trazado_20162" data-name="Trazado 20162" d="M2114.957,1265.309a.515.515,0,0,1-.317-.109c-3.524-2.743-4.807-4.249-5.494-6.441-1.164-3.724-1.468-14.01-.9-30.571a.516.516,0,0,1,1.031.036c-.555,16.213-.259,26.665.856,30.229.551,1.765,1.425,3.041,5.142,5.934a.515.515,0,0,1-.317.922Z" transform="translate(-590.34 -653.11)" fill="#1a1a1a"/>
  </g>
</svg>
