<svg xmlns="http://www.w3.org/2000/svg" width="501.167" height="318.723" viewBox="0 0 501.167 318.723">
  <g id="Grupo_10365" data-name="Grupo 10365" transform="translate(-190.842 -998.456)" opacity="0.8">
    <rect id="Rectángulo_2212" data-name="Rectángulo 2212" width="97.976" height="97.975" transform="translate(508.09 1036.789)" fill="#ffce26"/>
    <rect id="Rectángulo_2213" data-name="Rectángulo 2213" width="266.402" height="179.675" rx="20.211" transform="translate(279.562 1092.052)" fill="#fefefe"/>
    <path id="Trazado_19769" data-name="Trazado 19769" d="M282.413,1268.484V1249.9s-7.439,1.937-8.357-4.89,5.994-7.367,7.25-6.87,3.618,1.674,3.618,1.674,3.533-2.715,4.87-5.331,2.1-8.37,2.1-8.37,4.907,4.925,9.132,5.042a39.673,39.673,0,0,0,7.08-.373l.171,1.679a8.4,8.4,0,0,1,3.422,7.127c-.084,4.912-1.566,7.156-2.842,7.714l-.176,7.6s-.739,5.91-6.782,6.145l.928,8.024-4.179,15.944Z" transform="translate(-37.248 -102.004)" fill="#fefefe"/>
    <path id="Trazado_19770" data-name="Trazado 19770" d="M240.4,1314.83s-14.653,2.469-21.052,10.808-12.992,17.571-17.5,29.815-4.288,11.736-6.172,17.734-3.606,17.354-3.925,23.479,1.622,16.321,9.806,20.857,12.6,4.813,12.6,4.813-.067,7.575-.136,10.505.136,6.966.136,6.966h87.017s-2.515-9.951-2.975-13.78-1.147-12.837-1.147-12.837l-7.5.294s-9.346-3.228-9.618-10.5,0-21.846,0-21.846l3.621-3.738a34.553,34.553,0,0,0-8.422-13.079c-6.316-6.189-6.826-6.763-6.826-6.763s5.111-8.9,6.224-11.278,2.038-7.161,5.276-6.459l-.079-21.5-9.652-3.324Z" transform="translate(-0.393 -141.758)" fill="#1a1a1a"/>
    <path id="Trazado_19771" data-name="Trazado 19771" d="M285.076,1303.5l-5.16,6.014,11.689,25.5,2.091-2.534,7.431,21.031,3.431-2.735,3.058,1.734,2.9-4.821-1.669-17.04.653.906.1-21.873-4.577-6.707Z" transform="translate(-39.911 -136.446)" fill="#fefefe"/>
    <path id="Trazado_19772" data-name="Trazado 19772" d="M946.844,1267.444s-11.922.584-15.2-10.634,2.271-15.913,4.665-16.963,4.569-5.667,5.533-7.384,3.331-6.189,8.613-6.771,9.349.535,11.431,3.087c0,0,5.486-1.385,9.449.644s7.671,4.674,10.1,10.66c0,0,1.439,4.6.777,7.894s-1.786,5.1-.672,7.418,2.138,3.5.479,5.859-7.656,6-11.421,6.189Z" transform="translate(-331.48 -101.751)" fill="#fefefe"/>
    <path id="Trazado_19773" data-name="Trazado 19773" d="M901.924,1334.463s4.632-6.482,11.4-8.881,14.651-4.3,17.735-4.439l17.247-.3s11.167-.491,15.9,1.749,8.769,2.771,14.812,15.808c0,0,6.522,12.086,8.052,15.517s7.115,16.9,8.16,23.852,3.4,19.346-3.4,30.1c0,0-4.3,6.676-6.777,7.184l-.076,27.3H897.4A52.7,52.7,0,0,0,900.936,1428c.67-7.656.9-11.8.9-11.8s-11.886.585-18.119-9.783c0,0-6.469-8.452-7.754-13.834a38.229,38.229,0,0,0-2.5-7.742Z" transform="translate(-305.865 -144.431)" fill="#1a1a1a"/>
    <path id="Trazado_19774" data-name="Trazado 19774" d="M950.942,1255.114s2.374,12.177,3.381,16.039,3.232,10.249,9.558,9.125l.406.532,1.845,7.416s-1.63,12.367,1.768,12.715,12.571-10.242,14.564-13.177l-5.185-20.219s6.355-1.609,4.924-7.02c0,0-.934-4.814-7.4-3.055a10.757,10.757,0,0,1-4.55-6.646c-1.04-4.613-1.545-6.7-1.545-6.7a15.287,15.287,0,0,1-8.174,5.3C955.459,1250.521,951.536,1253.608,950.942,1255.114Z" transform="translate(-340.578 -110.076)" fill="#fefefe"/>
    <path id="Trazado_19775" data-name="Trazado 19775" d="M965.808,1383.585l-3.654,4.591-1.144-3.335S964.819,1382.968,965.808,1383.585Z" transform="translate(-345.089 -172.509)" fill="#fefefe"/>
    <path id="Trazado_19776" data-name="Trazado 19776" d="M974.977,1384.3l-5.529,6.564-4.17,1.223,5.886,17.162s4.244-.3,5.52-.551a21.982,21.982,0,0,1,5.615,7.272,42.921,42.921,0,0,0,7.417-5.448,93.467,93.467,0,0,0,6.859-7.929s-6.193-8.3-9.244-11.428S982.01,1385.421,974.977,1384.3Z" transform="translate(-347.001 -172.884)" fill="#fefefe"/>
    <path id="Trazado_19777" data-name="Trazado 19777" d="M864.516,1382.143l2.546,6.979s6.119.988,8.98.674,6.9.27,6.549,3.321a8.529,8.529,0,0,1-1.325,4.228s2.681,1.846,2.394,3.768a11.025,11.025,0,0,1-1.31,3.607,2.587,2.587,0,0,1,1.7,2.5c.147,2.1-.753,3.772-3.351,4.664s-9.389,2.4-15,.363-7.082-12.772-7.4-16.558S859.571,1385.075,864.516,1382.143Z" transform="translate(-299.048 -171.918)" fill="#fefefe"/>
    <path id="Trazado_19778" data-name="Trazado 19778" d="M591.538,1275.11a13.977,13.977,0,0,0-8.339-3.717c-5.423-.577-5.671.43-5.671.43s-2.808-1.32-4.566-.43-1.381,3.513-1.381,3.513-2.58,1.57-1.255,6.46a14.9,14.9,0,0,0,2.744,8.835c3.041,4.2,4.271,5.587,5.116,7.333a37.361,37.361,0,0,1,1.709,4.845s6.147-3.022,10.471-3.157a67.181,67.181,0,0,1,8.9.429s-1.344-5.826-1.34-6.9a33.481,33.481,0,0,0-.613-6.551c-.471-1.518-1.953-4.839-1.953-4.839l-9.351-.534-5.681-5.926Z" transform="translate(-169.866 -122.156)" fill="#fefefe"/>
    <path id="Trazado_19779" data-name="Trazado 19779" d="M727.815,1325.812c-.018.317-.125,2.131-.125,2.131l2.761-.1Z" transform="translate(-240.545 -146.678)" fill="#fefefe"/>
    <path id="Trazado_19780" data-name="Trazado 19780" d="M725.1,1273.484s4.367,2.859,7.232-.748a5.329,5.329,0,0,0-.886-7.9c-1.4-.779-4.629-1.727-6.9.184a10.052,10.052,0,0,1-6.935-6.33,36.125,36.125,0,0,1-2.327-10.516s-3.491.377-6.049,6.84l-1.6,10.247s-5.12.969-5.5,2.563,3.336,4.8,3.336,4.8-1.8,10.651,8.175,11.424c0,0,2-4.1,4.854-5.255s5.35-1.784,6.05-2.511S726.106,1274.872,725.1,1273.484Z" transform="translate(-229.081 -111.89)" fill="#fefefe"/>
    <path id="Trazado_19781" data-name="Trazado 19781" d="M963.083,1382.456l9.907-11.761,4.286,3.611-8.812,10.461-3.83,1.123Z" transform="translate(-346.018 -166.789)" fill="#ffce26"/>
    <path id="Trazado_19782" data-name="Trazado 19782" d="M981.032,1369.129l1.624-1.929,4.2,3.264-1.54,1.955Z" transform="translate(-354.06 -165.223)" fill="#fefefe"/>
    <path id="Trazado_19783" data-name="Trazado 19783" d="M867.47,1374.885l-8.064-23.515h45.66l22.681,66.4-45.363.1Z" transform="translate(-299.563 -158.13)" fill="#fefefe"/>
    <path id="Trazado_19784" data-name="Trazado 19784" d="M865.465,1348.469l-.751-2.192,45.315-.139,23.171,66.7h-3.872l-21.883-63.812Z" transform="translate(-301.941 -155.786)" fill="#ffce26"/>
    <path id="Trazado_19785" data-name="Trazado 19785" d="M730.241,1269.4a3.292,3.292,0,0,1-2.955,2.86c-2.744.383-7.971,3.262-8.866,6.607s.544,8.769,10.128,10.556,16.007.44,18.054-.585,6.6-2.925,6.083-7.518-4.883-7.064-5.762-7.806-.612-2.4-.256-4.113,3.462-12.7,3.569-13.787.755-6.267-2.006-10.123-9.995-5.6-9.995-5.6-7.241-2.468-12.034-2.31-9.78.265-11.6,3.414-3.52,6.17-1.287,11.123a11.268,11.268,0,0,1,6.444-8.937s.9,9.563,3.137,12.29,3.753,4.6,5.859,4.728a5.149,5.149,0,0,1,3.673-1.372,6.2,6.2,0,0,1,5.808,5.205s-.486,5.194-3.644,5.736S730.241,1269.4,730.241,1269.4Z" transform="translate(-233.627 -107.145)" fill="#1a1a1a"/>
    <path id="Trazado_19786" data-name="Trazado 19786" d="M663.567,1326s-9.827,1.239-13.518,5.391a51.092,51.092,0,0,0-8.874,13.533c-2.008,4.72-4.953,12.339-5.9,14.085s-3.2,7.349-8.8,6.454-6.124-5.232-7.019-7.974-10.593-32.356-10.593-32.356-6.043-4.688-16.061-3.106-14.384,8.318-14.384,8.318,2.733,16.528,4.442,23.214,4.9,18.2,8.345,25,11.217,18.659,23.7,20.994,20.79,0,23.931-1.276l.387.172-1.617,44.326,70.55.108-1.4-37.217s7.436,4.6,13.256,1.049,6.019-8.923,5.815-12.161a77.642,77.642,0,0,0-3-15.733,126.849,126.849,0,0,0-9.887-23.055c-5.367-9.383-12.018-19.24-12.018-19.24a24.988,24.988,0,0,0-8.171-7.838c-5-2.707-5.786-1.965-5.786-1.965a34.011,34.011,0,0,1-12.109,1.349A52.33,52.33,0,0,1,663.567,1326Z" transform="translate(-173.661 -144.837)" fill="#ffce26"/>
    <path id="Trazado_19787" data-name="Trazado 19787" d="M588.751,1278.008l20.438,1.15-.315,5.6-14.442-.82Z" transform="translate(-178.291 -125.259)" fill="#1a1a1a"/>
    <rect id="Rectángulo_2214" data-name="Rectángulo 2214" width="5.605" height="2.729" transform="translate(430.583 1159.495) rotate(-86.779)" fill="#fefefe"/>
    <path id="Trazado_19788" data-name="Trazado 19788" d="M566.268,1276.548l-6.724,2.8,5.323,2.8S565.2,1277.52,566.268,1276.548Z" transform="translate(-165.204 -124.605)" fill="#fefefe"/>
    <path id="Trazado_19789" data-name="Trazado 19789" d="M635.885,1559.073l24.627-2.485-19.74-8.749-20.768,1.7,3.365,2.244-6.06-.181-19.659,8.713,24.547,2.521,10.073-5.868Z" transform="translate(-182.278 -246.162)" fill="#fefefe"/>
    <path id="Trazado_19790" data-name="Trazado 19790" d="M718.82,1393.274S714.749,1426,688,1437.917l-.118-7.566s7.944-1.747,16.493-11.062S718.82,1393.274,718.82,1393.274Z" transform="translate(-222.707 -176.906)" fill="#1a1a1a"/>
    <path id="Trazado_19791" data-name="Trazado 19791" d="M897.4,1430.912s-1.237,6.332-7.289,7.031l-1.412-3S894.532,1435.241,897.4,1430.912Z" transform="translate(-312.687 -193.771)" fill="#b5b5b5"/>
    <rect id="Rectángulo_2215" data-name="Rectángulo 2215" width="23.734" height="23.734" transform="translate(533.344 1146.511)" fill="#fefefe"/>
    <path id="Trazado_19792" data-name="Trazado 19792" d="M833.452,1271.765a1.733,1.733,0,1,1-1.733-1.733A1.733,1.733,0,0,1,833.452,1271.765Z" transform="translate(-286.382 -121.685)" fill="#ffce26"/>
    <path id="Trazado_19793" data-name="Trazado 19793" d="M652.687,1209.547a1.263,1.263,0,1,1-1.263-1.263A1.263,1.263,0,0,1,652.687,1209.547Z" transform="translate(-205.806 -94.018)" fill="#ffce26"/>
    <rect id="Rectángulo_2216" data-name="Rectángulo 2216" width="18.574" height="39.71" transform="translate(512.087 1052.218)" fill="#1a1a1a"/>
    <path id="Trazado_19794" data-name="Trazado 19794" d="M828.628,1134.605v22.14l2.919,4.322.518,9.073H847.1v-35.534Z" transform="translate(-285.773 -61.004)" fill="#fff"/>
    <rect id="Rectángulo_2217" data-name="Rectángulo 2217" width="18.326" height="22.566" transform="translate(573.658 1086.569)" fill="#fff"/>
    <path id="Trazado_19795" data-name="Trazado 19795" d="M330.1,1378.015s3.747-6.089,5.266-9.032,2.572-6.244,3.194-7.3,1.627-2.153,3.254-1.675,1.866,1.866,1.771,3.684-1.8,6.029-1.643,7.274.631,3.168,3.171,2.469,5.524-3.244,6.879-4.483,6.714-6.5,6.714-6.5a3.439,3.439,0,0,1,3.876-.287,3.144,3.144,0,0,1,1.245,3.637,3.9,3.9,0,0,1,2.44,1.1c.862,1.005,1.24,2.838.524,3.357a1.647,1.647,0,0,0,.864,1.333c.909.622,1,2.2.382,3.541s-5.168,6.89-9.426,10.288-11.2,7.93-14.068,8.75c0,0-4.211-6.071-6.556-8.894A73.467,73.467,0,0,0,330.1,1378.015Z" transform="translate(-62.399 -161.951)" fill="#fefefe"/>
    <path id="Trazado_19796" data-name="Trazado 19796" d="M287.05,1269.995l-.2,3.326-2.54-3.308Z" transform="translate(-41.881 -121.668)" fill="#1a1a1a"/>
    <path id="Trazado_19797" data-name="Trazado 19797" d="M285.4,1232.692s4.663-3.431,5.928-7.43a27.842,27.842,0,0,0,1.371-6.513,12.552,12.552,0,0,0,9.944,5.057c6.986.329,6.376-.628,6.376-.628l.014,1.427,1.314.774a18.135,18.135,0,0,0-.2-6.631c-.809-3.035-3.122-5.48-6.894-7.391a16.452,16.452,0,0,0-9.371-1.493c-.886.317-5.1,1.432-5.827,2.349l-.609.454s-5.058.292-7.27,2.447-3.705,3.948-4.142,7.491-.41,7.646.7,9.469a5.936,5.936,0,0,1,4-1.427A7.573,7.573,0,0,1,285.4,1232.692Z" transform="translate(-38.054 -94.645)" fill="#ffce26"/>
    <path id="Trazado_19798" data-name="Trazado 19798" d="M311.163,1269.641s2.4,1.04,3.089,2.579a4.786,4.786,0,0,1,.275,2.986,6.776,6.776,0,0,0,4.072-.311c1.905-.88,2.03-2.654,1.417-3.4s-2.2-.182-3.088-.131-1.987-.009-2.32-.843-1.1-2.589-2.372-2.441S311.163,1269.641,311.163,1269.641Z" transform="translate(-53.908 -120.807)" fill="#1a1a1a"/>
    <path id="Trazado_19799" data-name="Trazado 19799" d="M308.45,1343l4.6,6.372-.945,11.294,1.812,6.658,3.988-2.534,2.5,1.533,2.9-4.821-.834-5.942-3.668-6.733.6-7.463-5.446-7.562Z" transform="translate(-52.696 -150.258)" fill="#ffce26"/>
    <path id="Trazado_19800" data-name="Trazado 19800" d="M969.636,1321.225l.358,1.44s-1.9,12.538,1.572,12.636,9.5-6.78,10.587-8,4.172-5.093,4.172-5.093l-.475-1.22,2.967.108a43.662,43.662,0,0,1-1.675,12.394c-1.867,6.125-3.924,10.479-7.369,10.527a7.985,7.985,0,0,1-6.6-3.637,14.582,14.582,0,0,1-1.34-4.168s-5.981,5.46-8.661,5.221-4.692-2.615-2.968-6.882,7.083-12.832,7.083-12.832Z" transform="translate(-344.44 -144.515)" fill="#ffce26"/>
    <path id="Trazado_19801" data-name="Trazado 19801" d="M380.675,1140.616h42.984v-42.983a41.966,41.966,0,0,0-31.192,13.41C378.922,1125.654,380.675,1140.616,380.675,1140.616Z" transform="translate(-85.025 -44.427)" fill="#1a1a1a"/>
    <path id="Trazado_19802" data-name="Trazado 19802" d="M444.786,1116.56v43.492H401.294a43.491,43.491,0,1,0,43.492-43.492Z" transform="translate(-94.297 -52.919)" fill="#ffce26"/>
    <path id="Trazado_19803" data-name="Trazado 19803" d="M632.27,1560.022l-8.087-4.793-6.874-.574-19.659,8.713,24.547,2.521Z" transform="translate(-182.278 -249.216)" fill="#ffce26"/>
    <path id="Trazado_19804" data-name="Trazado 19804" d="M321.191,1211.467a16.385,16.385,0,0,0-5.387-1.538c-.076.044,12.028,6.421,8.383,14.038,2.27-.075,2.7-.4,2.767-.571l.013,1.319,1.314.774a18.135,18.135,0,0,0-.2-6.631C327.276,1215.824,324.963,1213.379,321.191,1211.467Z" transform="translate(-55.991 -94.755)" fill="#fff"/>
    <path id="Trazado_19805" data-name="Trazado 19805" d="M298.94,1225.638s-4.641,11.365-9.283,12.286l2.21,1.725c.972-.765,4.588-3.787,5.68-7.238a27.838,27.838,0,0,0,1.371-6.513s.046.072.132.191Z" transform="translate(-44.276 -101.793)" fill="#fff"/>
    <path id="Trazado_19806" data-name="Trazado 19806" d="M719.757,1243.354s.9,9.563,3.137,12.29,3.753,4.6,5.858,4.728c-7.47-4.811-6.739-20.452-6.615-22.42-3.312.272-6.235.966-7.538,3.217-1.822,3.148-3.52,6.169-1.287,11.122A11.267,11.267,0,0,1,719.757,1243.354Z" transform="translate(-233.627 -107.311)" fill="#fff"/>
    <path id="Trazado_19807" data-name="Trazado 19807" d="M731.3,1314.773a4.616,4.616,0,0,1-2.071-1.82,7.432,7.432,0,0,1-1.094-2.594,10.5,10.5,0,0,1,.481-6.471,6.757,6.757,0,0,1,2.176-2.589,25.983,25.983,0,0,1,2.786-1.544,7,7,0,0,0,1.98-1.488,6.284,6.284,0,0,0,1.417-1.957s-.386-.277-1-.708a2.835,2.835,0,0,1-.907-.365,3.292,3.292,0,0,1-2.955,2.86c-2.744.383-7.971,3.262-8.866,6.607C722.42,1307.791,723.6,1312.635,731.3,1314.773Z" transform="translate(-238.453 -132.979)" fill="#fff"/>
    <path id="Trazado_19808" data-name="Trazado 19808" d="M315.064,1337.458l3.774,4.594-.235,7.273,7.257,13.007-.058-5.236-4.043-7.982,1.007-7.463-5.878-7.208Z" transform="translate(-55.66 -150.546)" fill="#fff"/>
    <g id="Grupo_10227" data-name="Grupo 10227" transform="translate(393.641 1148.455)">
      <g id="Grupo_10221" data-name="Grupo 10221" transform="translate(0 2.988)">
        <g id="Grupo_10218" data-name="Grupo 10218" transform="translate(16.314 0.802)">
          <path id="Trazado_19809" data-name="Trazado 19809" d="M608.463,1284.85c-.029,0-14.043-.789-14.043-.789a.5.5,0,0,1,.029-1.008c.029,0,13.539.76,13.539.76l.258-4.587-19.934-1.123a.5.5,0,0,1,.029-1.009c.029,0,20.467,1.152,20.467,1.152a.505.505,0,0,1,.475.533l-.315,5.6A.5.5,0,0,1,608.463,1284.85Z" transform="translate(-587.835 -1277.094)"/>
        </g>
        <g id="Grupo_10219" data-name="Grupo 10219" transform="translate(36.433 1.95)">
          <path id="Trazado_19810" data-name="Trazado 19810" d="M627.52,1285.933c-.029,0-2.756-.151-2.756-.151a.5.5,0,0,1-.475-.533.475.475,0,0,1,.533-.475l2.223.122.258-4.587-2.223-.126a.5.5,0,0,1,.029-1.008c.029,0,2.756.155,2.756.155a.5.5,0,0,1,.475.533l-.315,5.6A.5.5,0,0,1,627.52,1285.933Z" transform="translate(-624.287 -1279.175)"/>
        </g>
        <g id="Grupo_10220" data-name="Grupo 10220">
          <path id="Trazado_19811" data-name="Trazado 19811" d="M564.765,1282.484a.49.49,0,0,1-.234-.057l-5.984-3.143a.506.506,0,0,1,.052-.918l6.919-2.7a.518.518,0,0,1,.653.288.506.506,0,0,1-.286.656L560,1278.906l5,2.628a.5.5,0,0,1-.234.95Z" transform="translate(-558.278 -1275.641)"/>
        </g>
      </g>
      <g id="Grupo_10222" data-name="Grupo 10222" transform="translate(7.488)">
        <path id="Trazado_19812" data-name="Trazado 19812" d="M583.84,1287.455a.489.489,0,0,1-.278-.083c-9.325-6.12-11.3-10.682-11.647-12.86a3.92,3.92,0,0,1,.668-3.143c2.085-2.621,6.02.083,6.185.2.175.18,7.972,9.354,12.372,10.859a.506.506,0,0,1-.328.958c-4.527-1.552-11.954-10.179-12.674-11.021-.421-.277-3.365-2.121-4.767-.368a2.938,2.938,0,0,0-.457,2.355c.257,1.62,1.867,6.049,11.2,12.177a.5.5,0,0,1-.277.926Z" transform="translate(-571.845 -1270.228)"/>
      </g>
      <g id="Grupo_10223" data-name="Grupo 10223" transform="translate(5.791 2.783)">
        <path id="Trazado_19813" data-name="Trazado 19813" d="M578.829,1294.9a.5.5,0,0,1-.324-.115c-.384-.32-9.41-7.921-9.727-14.535a6.211,6.211,0,0,1,1.849-4.835.505.505,0,1,1,.716.713,5.16,5.16,0,0,0-1.555,4.076c.3,6.175,9.273,13.729,9.365,13.8a.505.505,0,0,1-.324.893Z" transform="translate(-568.77 -1275.27)"/>
      </g>
      <g id="Grupo_10224" data-name="Grupo 10224" transform="translate(12.866 0.275)">
        <path id="Trazado_19814" data-name="Trazado 19814" d="M597.2,1275.9a.5.5,0,0,1-.371-.162c-.029-.032-2.907-3.121-5.892-3.77-3.046-.659-8.706.274-8.762.285a.483.483,0,0,1-.583-.414.507.507,0,0,1,.414-.58c.242-.043,5.9-.979,9.147-.277,3.3.716,6.292,3.935,6.418,4.072a.5.5,0,0,1-.371.846Z" transform="translate(-581.588 -1270.726)"/>
      </g>
      <g id="Grupo_10225" data-name="Grupo 10225" transform="translate(31.345 10.246)">
        <path id="Trazado_19815" data-name="Trazado 19815" d="M619.482,1308.09a.5.5,0,0,1-.48-.353c-.065-.2-1.556-4.951-1.359-8.148a19.834,19.834,0,0,0-2.5-10.031.506.506,0,0,1,.868-.518,20.583,20.583,0,0,1,2.641,10.614c-.184,3.006,1.3,7.73,1.312,7.78a.505.505,0,0,1-.327.634A.566.566,0,0,1,619.482,1308.09Z" transform="translate(-615.07 -1288.793)"/>
      </g>
      <g id="Grupo_10226" data-name="Grupo 10226" transform="translate(6.318 10.332)">
        <path id="Trazado_19816" data-name="Trazado 19816" d="M580.225,1310.64a.5.5,0,0,1-.463-.3,54.976,54.976,0,0,0-3.143-6.376c-.094-.123-.252-.317-.463-.576-1.89-2.319-7.647-9.379-6.2-14.081a.5.5,0,1,1,.965.3c-1.286,4.188,4.213,10.935,6.02,13.149.222.27.389.479.486.609a59.445,59.445,0,0,1,3.262,6.579.505.505,0,0,1-.261.666A.493.493,0,0,1,580.225,1310.64Z" transform="translate(-569.725 -1288.948)"/>
      </g>
    </g>
    <g id="Grupo_10237" data-name="Grupo 10237" transform="translate(615.416 1201.316)">
      <g id="Grupo_10230" data-name="Grupo 10230" transform="translate(1.144 0)">
        <g id="Grupo_10228" data-name="Grupo 10228" transform="translate(0 2.088)">
          <path id="Trazado_19817" data-name="Trazado 19817" d="M967.826,1385.134a.512.512,0,0,1-.326-.119.5.5,0,0,1-.061-.709l8.718-10.348L972.643,1371l-9.585,11.374a.5.5,0,0,1-.774-.649l9.91-11.763a.515.515,0,0,1,.713-.061l4.287,3.612a.5.5,0,0,1,.061.709l-9.042,10.733A.507.507,0,0,1,967.826,1385.134Z" transform="translate(-962.167 -1369.784)"/>
        </g>
        <g id="Grupo_10229" data-name="Grupo 10229" transform="translate(9.907)">
          <path id="Trazado_19818" data-name="Trazado 19818" d="M984.909,1372.706a.511.511,0,0,1-.326-.119.506.506,0,0,1-.061-.71l1.435-1.7-3.514-2.96-1.437,1.7a.5.5,0,0,1-.711.061.5.5,0,0,1-.06-.71l1.761-2.088a.512.512,0,0,1,.711-.061l4.286,3.611a.5.5,0,0,1,.061.709l-1.759,2.089A.505.505,0,0,1,984.909,1372.706Z" transform="translate(-980.116 -1366.002)"/>
        </g>
      </g>
      <g id="Grupo_10231" data-name="Grupo 10231" transform="translate(4.797 23.064)">
        <path id="Trazado_19819" data-name="Trazado 19819" d="M969.292,1410.236a.5.5,0,0,1-.124-.994,45.531,45.531,0,0,0,4.561-1.418.5.5,0,0,1,.646.3.506.506,0,0,1-.3.648,47.165,47.165,0,0,1-4.654,1.448A.5.5,0,0,1,969.292,1410.236Z" transform="translate(-968.787 -1407.79)"/>
      </g>
      <g id="Grupo_10232" data-name="Grupo 10232" transform="translate(2.356 14.936)">
        <path id="Trazado_19820" data-name="Trazado 19820" d="M964.869,1396.515a.5.5,0,0,1-.081-1c2.7-.439,6.043-1.105,7.9-2.365a.505.505,0,1,1,.569.835c-2.018,1.372-5.5,2.07-8.3,2.524A.308.308,0,0,1,964.869,1396.515Z" transform="translate(-964.364 -1393.064)"/>
      </g>
      <g id="Grupo_10233" data-name="Grupo 10233" transform="translate(6.629 29.085)">
        <path id="Trazado_19821" data-name="Trazado 19821" d="M972.61,1420.459a.505.505,0,0,1-.051-1.008,34.99,34.99,0,0,0,4.672-.735.5.5,0,0,1,.614.364.5.5,0,0,1-.365.615,36.031,36.031,0,0,1-4.819.763Z" transform="translate(-972.106 -1418.698)"/>
      </g>
      <g id="Grupo_10234" data-name="Grupo 10234" transform="translate(0 8.805)">
        <path id="Trazado_19822" data-name="Trazado 19822" d="M960.6,1384.671a.5.5,0,0,1-.263-.936,13.8,13.8,0,0,1,5.618-1.779.484.484,0,0,1,.539.472.505.505,0,0,1-.47.536,12.984,12.984,0,0,0-5.162,1.635A.5.5,0,0,1,960.6,1384.671Z" transform="translate(-960.095 -1381.954)"/>
      </g>
      <g id="Grupo_10235" data-name="Grupo 10235" transform="translate(12.055 9.595)">
        <path id="Trazado_19823" data-name="Trazado 19823" d="M1004.038,1402.685a.5.5,0,0,1-.4-.194c-.094-.119-9.4-12.094-11.727-14.074a19.879,19.879,0,0,0-9.525-4.025.5.5,0,0,1-.448-.555.533.533,0,0,1,.556-.45,20.6,20.6,0,0,1,10.073,4.259c2.406,2.049,11.485,13.729,11.87,14.225a.507.507,0,0,1-.09.709A.5.5,0,0,1,1004.038,1402.685Z" transform="translate(-981.936 -1383.387)"/>
      </g>
      <g id="Grupo_10236" data-name="Grupo 10236" transform="translate(8.242 33.992)">
        <path id="Trazado_19824" data-name="Trazado 19824" d="M986.931,1435.867a.5.5,0,0,1-.432-.245c-2.27-3.774-4.763-6.989-5.445-7.025a7.429,7.429,0,0,0-.9.141,20.024,20.024,0,0,1-4.648.41.5.5,0,0,1-.481-.529.516.516,0,0,1,.528-.479,19.285,19.285,0,0,0,4.419-.4,7.044,7.044,0,0,1,1.078-.155c1.62,0,4.952,5.253,6.31,7.514a.5.5,0,0,1-.171.691A.5.5,0,0,1,986.931,1435.867Z" transform="translate(-975.028 -1427.59)"/>
      </g>
    </g>
    <g id="Grupo_10239" data-name="Grupo 10239" transform="translate(475.883 1160.344)">
      <g id="Grupo_10238" data-name="Grupo 10238" transform="translate(0 0)">
        <path id="Trazado_19825" data-name="Trazado 19825" d="M708.847,1297.747a3.111,3.111,0,0,1-.852-.122.5.5,0,0,1-.356-.619.5.5,0,0,1,.619-.353,2.568,2.568,0,0,0,1.278.015,3.666,3.666,0,0,0,2.616-1.955,2.008,2.008,0,0,0,.3-1.523.689.689,0,0,0-.385-.375.864.864,0,0,0-.639.058,2.188,2.188,0,0,0-.706.666,3.119,3.119,0,0,1-.958.893,2.317,2.317,0,0,1-2.233-.249.505.505,0,1,1,.512-.871c.544.317.932.392,1.247.227a2.274,2.274,0,0,0,.643-.63,3.061,3.061,0,0,1,1.066-.95,1.86,1.86,0,0,1,1.411-.09,1.69,1.69,0,0,1,.956.9,2.849,2.849,0,0,1-.326,2.423,4.7,4.7,0,0,1-3.354,2.48A5.454,5.454,0,0,1,708.847,1297.747Z" transform="translate(-707.286 -1291.767)"/>
      </g>
    </g>
    <g id="Grupo_10240" data-name="Grupo 10240" transform="translate(190.842 1172.9)">
      <path id="Trazado_19826" data-name="Trazado 19826" d="M218.093,1423.019c-11.253,0-23.931-6.722-26.464-18.045-3.293-14.73,4.652-37.564,7.167-44.211,4.95-13.091,7.48-17.938,13.06-26.777,8.868-14.046,17.637-17.938,28.075-19.46a.5.5,0,0,1,.574.429.506.506,0,0,1-.427.572c-10.452,1.523-18.677,5.236-27.369,19-5.538,8.774-8.049,13.588-12.971,26.6-2.488,6.578-10.355,29.175-7.123,43.627,2.69,12.04,17.437,18.64,28.993,17.019,21.361-2.981,57.941-41.431,61.016-44.7a35.681,35.681,0,0,0-6.508-10.459c-6.153-7.259-9.957-9.433-10.877-9.891-3.232,2.009-39.376,24.75-51.892,43.861a.5.5,0,0,1-.7.143.5.5,0,0,1-.146-.7c13.165-20.1,52.046-44.069,52.437-44.311a.52.52,0,0,1,.445-.039c.169.065,4.207,1.674,11.5,10.279,5.361,6.329,6.741,10.906,6.8,11.1a.5.5,0,0,1-.113.482c-1.593,1.718-39.269,42.086-61.821,45.233A26.58,26.58,0,0,1,218.093,1423.019Z" transform="translate(-190.842 -1314.518)"/>
    </g>
    <g id="Grupo_10244" data-name="Grupo 10244" transform="translate(256.283 1146.808)">
      <g id="Grupo_10242" data-name="Grupo 10242" transform="translate(0)">
        <g id="Grupo_10241" data-name="Grupo 10241">
          <path id="Trazado_19827" data-name="Trazado 19827" d="M315.2,1275.467a5.713,5.713,0,0,1-5.583-4.378,3.543,3.543,0,0,1,.251-3.01,1.934,1.934,0,0,1,1.809-.817,2.842,2.842,0,0,1,2.14,1.729c.58,1.235.724,1.293,1.04,1.415s.466.188,1.732-.327a2.846,2.846,0,0,1,2.744.191,1.966,1.966,0,0,1,.767,1.832,3.709,3.709,0,0,1-1.907,2.513A5.687,5.687,0,0,1,315.2,1275.467Zm-3.741-7.208a1,1,0,0,0-.792.439,2.67,2.67,0,0,0-.076,2.121,4.865,4.865,0,0,0,2.812,3.291,4.726,4.726,0,0,0,4.259-.357,2.818,2.818,0,0,0,1.433-1.746.97.97,0,0,0-.363-.929,1.864,1.864,0,0,0-1.765-.065c-1.492.6-1.865.576-2.477.335s-.9-.468-1.588-1.933a1.886,1.886,0,0,0-1.338-1.152A.955.955,0,0,0,311.455,1268.259Z" transform="translate(-309.41 -1267.244)"/>
        </g>
      </g>
      <g id="Grupo_10243" data-name="Grupo 10243" transform="translate(0.032 1.478)">
        <path id="Trazado_19828" data-name="Trazado 19828" d="M313.917,1276.5c-.395-.083-.559-.356-.49-.63.947-3.73-3.395-4.908-3.58-4.954a.506.506,0,0,1,.256-.979c1.9.5,5.258,2.427,4.3,6.185A.5.5,0,0,1,313.917,1276.5Z" transform="translate(-309.468 -1269.923)"/>
      </g>
    </g>
    <g id="Grupo_10245" data-name="Grupo 10245" transform="translate(223.393 1202.889)">
      <path id="Trazado_19829" data-name="Trazado 19829" d="M250.325,1412.364a.525.525,0,0,1-.23-.054.506.506,0,0,1-.22-.68c9.342-18.28,11.637-42.083,11.661-42.32a.5.5,0,1,1,1,.094c-.021.241-2.336,24.235-11.764,42.687A.507.507,0,0,1,250.325,1412.364Z" transform="translate(-249.819 -1368.852)"/>
    </g>
    <g id="Grupo_10246" data-name="Grupo 10246" transform="translate(252.305 1144.965)">
      <path id="Trazado_19830" data-name="Trazado 19830" d="M310.93,1278.723c-1.062,0-2.212-.05-3.458-.148a20.875,20.875,0,0,1-4.922-.936.5.5,0,1,1,.313-.957,19.912,19.912,0,0,0,4.688.885c5.7.447,9.268-.126,11.241-1.818a6.246,6.246,0,0,0,1.99-4.537c.1-1.353.192-4.281.214-6.808a.506.506,0,0,1,1.012.007c-.023,2.546-.117,5.5-.218,6.874a7.2,7.2,0,0,1-2.34,5.232C317.716,1278,314.968,1278.723,310.93,1278.723Z" transform="translate(-302.201 -1263.904)"/>
    </g>
    <g id="Grupo_10247" data-name="Grupo 10247" transform="translate(270.456 1128.23)">
      <path id="Trazado_19831" data-name="Trazado 19831" d="M335.658,1235.97a.5.5,0,0,1-.5-.482l-.065-1.376a.5.5,0,0,1,.479-.529.509.509,0,0,1,.529.479l.065,1.383a.5.5,0,0,1-.481.525Z" transform="translate(-335.089 -1233.583)"/>
    </g>
    <g id="Grupo_10248" data-name="Grupo 10248" transform="translate(244.659 1147.388)">
      <path id="Trazado_19832" data-name="Trazado 19832" d="M288.855,1288.3a.506.506,0,0,1-.506-.5v-19a.506.506,0,0,1,1.012,0v19A.506.506,0,0,1,288.855,1288.3Z" transform="translate(-288.349 -1268.294)"/>
    </g>
    <g id="Grupo_10249" data-name="Grupo 10249" transform="translate(236.306 1135.62)">
      <path id="Trazado_19833" data-name="Trazado 19833" d="M279.819,1260.2a6.609,6.609,0,0,1-.792-13.171,6.5,6.5,0,0,1,4.866,1.365,6.609,6.609,0,0,1,2.043,2.711.506.506,0,0,1-.936.382,5.627,5.627,0,0,0-1.732-2.3,5.463,5.463,0,0,0-4.121-1.152,5.54,5.54,0,0,0-3.73,2.1,5.593,5.593,0,0,0,7.9,7.82.513.513,0,0,1,.711.076.5.5,0,0,1-.077.709A6.584,6.584,0,0,1,279.819,1260.2Z" transform="translate(-273.215 -1246.973)"/>
    </g>
    <g id="Grupo_10250" data-name="Grupo 10250" transform="translate(264.141 1158.529)">
      <path id="Trazado_19834" data-name="Trazado 19834" d="M325.081,1297.512a.5.5,0,0,1-.5-.447l-.927-8.022a.5.5,0,0,1,.445-.558.482.482,0,0,1,.56.443l.927,8.022a.505.505,0,0,1-.445.558A.292.292,0,0,1,325.081,1297.512Z" transform="translate(-323.648 -1288.48)"/>
    </g>
    <g id="Grupo_10251" data-name="Grupo 10251" transform="translate(246.838 1123.598)">
      <path id="Trazado_19835" data-name="Trazado 19835" d="M292.8,1240.146a.5.5,0,0,1-.412-.213.507.507,0,0,1,.121-.706c6.918-4.871,7.084-13.448,7.084-13.534a.508.508,0,0,1,.345-.475.5.5,0,0,1,.561.172c.222.289,5.572,7.079,15.792,4.447a.506.506,0,1,1,.252.979,16.477,16.477,0,0,1-16.024-3.924c-.292,2.643-1.6,9.055-7.428,13.164A.518.518,0,0,1,292.8,1240.146Z" transform="translate(-292.297 -1225.191)"/>
    </g>
    <g id="Grupo_10252" data-name="Grupo 10252" transform="translate(240.539 1138.181)">
      <path id="Trazado_19836" data-name="Trazado 19836" d="M281.389,1259.375a.5.5,0,0,1-.233-.95l4.068-2.128-3.9-3.82a.5.5,0,1,1,.706-.719l4.4,4.306a.5.5,0,0,1,.147.432.5.5,0,0,1-.267.375l-4.684,2.448A.5.5,0,0,1,281.389,1259.375Z" transform="translate(-280.885 -1251.612)"/>
    </g>
    <g id="Grupo_10253" data-name="Grupo 10253" transform="translate(249.496 1117.504)">
      <path id="Trazado_19837" data-name="Trazado 19837" d="M300.163,1218.182a.506.506,0,0,1-.387-.181l-2.546-3.024a.5.5,0,0,1,.774-.648l2.546,3.025a.5.5,0,0,1-.387.828Z" transform="translate(-297.112 -1214.15)"/>
    </g>
    <g id="Grupo_10254" data-name="Grupo 10254" transform="translate(237.016 1114.697)">
      <path id="Trazado_19838" data-name="Trazado 19838" d="M275.928,1232.091a.5.5,0,0,1-.481-.353c-.111-.349-2.691-8.674,1.174-14.528,2.011-3.042,5.392-4.828,10.052-5.307.969-.785,7.011-5.156,16.379-1.217,7.9,3.316,7.937,10.722,7.253,14.842a.469.469,0,0,1-.581.414.5.5,0,0,1-.416-.58c.776-4.674.252-10.848-6.648-13.747-9.415-3.953-15.207.943-15.45,1.156a.524.524,0,0,1-.284.122c-4.421.421-7.6,2.063-9.462,4.875-3.6,5.455-1.081,13.585-1.055,13.667a.506.506,0,0,1-.328.634A.573.573,0,0,1,275.928,1232.091Z" transform="translate(-274.501 -1209.063)"/>
    </g>
    <g id="Grupo_10255" data-name="Grupo 10255" transform="translate(241.615 1147.844)">
      <path id="Trazado_19839" data-name="Trazado 19839" d="M286.388,1273.594a.511.511,0,0,1-.306-.1,15.8,15.8,0,0,1-3.17-3.6.508.508,0,0,1,.16-.7.518.518,0,0,1,.7.158,14.883,14.883,0,0,0,2.925,3.334.505.505,0,0,1-.306.907Z" transform="translate(-282.835 -1269.121)"/>
    </g>
    <g id="Grupo_10256" data-name="Grupo 10256" transform="translate(264.433 1135.585)">
      <path id="Trazado_19840" data-name="Trazado 19840" d="M325.945,1259.1a.5.5,0,0,1-.47-.32.507.507,0,0,1,.285-.655c.176-.069.357-.133.536-.194a7.215,7.215,0,0,0,1.094-.461,1.711,1.711,0,0,0,.891-1.03,1.271,1.271,0,0,0-.208-.947,2.216,2.216,0,0,0-1.508-.886c-.111-.014-.95-.083-1.146-.086a.466.466,0,0,1-.22-.022.5.5,0,0,1-.343-.429c0-.018-.681-7.068-.681-7.068l1-.094.637,6.6a8,8,0,0,1,.92.1,3.178,3.178,0,0,1,2.18,1.325,2.286,2.286,0,0,1,.351,1.714,2.648,2.648,0,0,1-1.381,1.7,7.851,7.851,0,0,1-1.253.533c-.169.061-.338.119-.5.187A.558.558,0,0,1,325.945,1259.1Z" transform="translate(-324.176 -1246.91)"/>
    </g>
    <g id="Grupo_10257" data-name="Grupo 10257" transform="translate(481.773 1145.385)">
      <path id="Trazado_19841" data-name="Trazado 19841" d="M723.03,1266.92a.51.51,0,0,1-.369-.158,3.217,3.217,0,0,0-3.946-.695.513.513,0,0,1-.689-.188.5.5,0,0,1,.183-.688,4.223,4.223,0,0,1,5.19.879.507.507,0,0,1-.025.716A.5.5,0,0,1,723.03,1266.92Z" transform="translate(-717.958 -1264.666)"/>
    </g>
    <path id="Trazado_19842" data-name="Trazado 19842" d="M720.281,1273.184c-.4-.065-.674.107-.8,1.559-.136,1.619.283,1.906.647,1.893s.729-.511.716-1.669S720.809,1273.269,720.281,1273.184Z" transform="translate(-236.857 -123.092)"/>
    <g id="Grupo_10258" data-name="Grupo 10258" transform="translate(493.865 1151.309)">
      <path id="Trazado_19843" data-name="Trazado 19843" d="M745.031,1287.412a6,6,0,0,1-3.447-1.087.505.505,0,1,1,.58-.828,5,5,0,1,0-1.364-6.751.505.505,0,1,1-.853-.54,6.009,6.009,0,1,1,5.086,9.206Z" transform="translate(-739.867 -1275.398)"/>
    </g>
    <g id="Grupo_10259" data-name="Grupo 10259" transform="translate(496.109 1153.978)">
      <path id="Trazado_19844" data-name="Trazado 19844" d="M748.225,1286.57a.5.5,0,0,1-.279-.083l-3.788-2.5a.508.508,0,0,1-.021-.828l3.807-2.827a.506.506,0,0,1,.6.814l-3.228,2.394,3.186,2.106a.5.5,0,0,1-.279.925Z" transform="translate(-743.932 -1280.234)"/>
    </g>
    <g id="Grupo_10260" data-name="Grupo 10260" transform="translate(486.639 1178.629)">
      <path id="Trazado_19845" data-name="Trazado 19845" d="M727.279,1328.037a.511.511,0,0,1-.5-.533l.126-2.131a.488.488,0,0,1,.535-.475.506.506,0,0,1,.474.533l-.126,2.132A.5.5,0,0,1,727.279,1328.037Z" transform="translate(-726.774 -1324.898)"/>
    </g>
    <g id="Grupo_10261" data-name="Grupo 10261" transform="translate(463.431 1252.554)">
      <path id="Trazado_19846" data-name="Trazado 19846" d="M685.237,1504.729a.5.5,0,0,1-.506-.5c-.124-9.733,1.628-44.567,1.645-44.916a.526.526,0,0,1,.529-.479.5.5,0,0,1,.479.529c-.018.349-1.766,35.151-1.642,44.851a.5.5,0,0,1-.5.511Z" transform="translate(-684.725 -1458.837)"/>
    </g>
    <g id="Grupo_10264" data-name="Grupo 10264" transform="translate(299.114 1056.879)">
      <g id="Grupo_10262" data-name="Grupo 10262">
        <path id="Trazado_19847" data-name="Trazado 19847" d="M430.985,1148.781H387.518a.5.5,0,1,1,0-1.008h42.961v-42.961a.506.506,0,0,1,1.012,0v43.465A.506.506,0,0,1,430.985,1148.781Z" transform="translate(-387.012 -1104.308)"/>
      </g>
      <g id="Grupo_10263" data-name="Grupo 10263">
        <path id="Trazado_19848" data-name="Trazado 19848" d="M430.985,1192.25a43.97,43.97,0,1,1,29.651-11.5.506.506,0,0,1-.681-.749,42.841,42.841,0,1,0-21.565,10.6.494.494,0,0,1,.583.41.5.5,0,0,1-.41.583A44.258,44.258,0,0,1,430.985,1192.25Z" transform="translate(-387.012 -1104.308)"/>
      </g>
    </g>
    <g id="Grupo_10265" data-name="Grupo 10265" transform="translate(269.183 1172.733)">
      <path id="Trazado_19849" data-name="Trazado 19849" d="M343.145,1319.168a.5.5,0,0,1-.272-.079,24.116,24.116,0,0,0-9.664-3.87.506.506,0,0,1-.421-.576.519.519,0,0,1,.576-.425,25.132,25.132,0,0,1,10.052,4.022.5.5,0,0,1-.272.929Z" transform="translate(-332.782 -1314.216)"/>
    </g>
    <g id="Grupo_10266" data-name="Grupo 10266" transform="translate(296.158 1271.568)">
      <path id="Trazado_19850" data-name="Trazado 19850" d="M386.284,1520.273a.505.505,0,0,1-.478-.342c-2.081-6.211-3.478-15-4.15-26.111a.505.505,0,0,1,.474-.533.488.488,0,0,1,.534.475c.666,11.025,2.045,19.721,4.1,25.845a.506.506,0,0,1-.318.641A.5.5,0,0,1,386.284,1520.273Z" transform="translate(-381.655 -1493.286)"/>
    </g>
    <g id="Grupo_10267" data-name="Grupo 10267" transform="translate(212.995 1280.073)">
      <path id="Trazado_19851" data-name="Trazado 19851" d="M231.753,1527.177a.505.505,0,0,1-.5-.469,146.293,146.293,0,0,1,0-17.542.5.5,0,0,1,.538-.468.5.5,0,0,1,.47.54,144.943,144.943,0,0,0,0,17.4.508.508,0,0,1-.467.54Z" transform="translate(-230.979 -1508.696)"/>
    </g>
    <g id="Grupo_10268" data-name="Grupo 10268" transform="translate(265.372 1129.741)">
      <path id="Trazado_19852" data-name="Trazado 19852" d="M330.771,1252.935a3.029,3.029,0,0,1-1.432-.314.506.506,0,0,1,.465-.9,2.192,2.192,0,0,0,1.021.205c2.048-.043,3.717-3.42,3.636-7.374s-1.892-7.244-3.931-7.223c-.954.018-1.86.756-2.551,2.077a11.14,11.14,0,0,0-1.087,5.3,9.7,9.7,0,0,0,.918,4.321.506.506,0,0,1-.893.475,10.7,10.7,0,0,1-1.037-4.775,12.205,12.205,0,0,1,1.2-5.79c.869-1.66,2.086-2.589,3.424-2.614,2.722,0,4.871,3.586,4.965,8.209.092,4.656-1.941,8.346-4.63,8.4Z" transform="translate(-325.876 -1236.322)"/>
    </g>
    <g id="Grupo_10269" data-name="Grupo 10269" transform="translate(253.135 1129.5)">
      <path id="Trazado_19853" data-name="Trazado 19853" d="M308.615,1252.494c-2.663,0-4.812-3.586-4.906-8.209a12.191,12.191,0,0,1,1.2-5.785c.869-1.66,2.086-2.589,3.424-2.615a3.475,3.475,0,0,1,2.445,1.059c1.495,1.433,2.459,4.173,2.521,7.147a12.2,12.2,0,0,1-1.2,5.79c-.869,1.66-2.086,2.589-3.424,2.614Zm-.214-15.6c-1,.018-1.9.756-2.592,2.074a11.156,11.156,0,0,0-1.087,5.3c.077,3.931,1.858,7.222,3.9,7.222.99-.018,1.9-.756,2.587-2.077a11.148,11.148,0,0,0,1.088-5.3c-.055-2.718-.9-5.185-2.209-6.441A2.438,2.438,0,0,0,308.4,1236.894Z" transform="translate(-303.706 -1235.885)"/>
    </g>
    <g id="Grupo_10270" data-name="Grupo 10270" transform="translate(650.503 1224.849)">
      <path id="Trazado_19854" data-name="Trazado 19854" d="M1048.528,1434.653a.507.507,0,0,1-.439-.252c-6-10.506-20.037-22.042-24.2-24.836a.5.5,0,0,1-.139-.7.5.5,0,0,1,.7-.136c4.213,2.826,18.426,14.51,24.516,25.167a.508.508,0,0,1-.189.691A.518.518,0,0,1,1048.528,1434.653Z" transform="translate(-1023.666 -1408.64)"/>
    </g>
    <g id="Grupo_10271" data-name="Grupo 10271" transform="translate(566.894 1239.827)">
      <path id="Trazado_19855" data-name="Trazado 19855" d="M899.993,1468.221a20.109,20.109,0,0,1-4.245-.461c-10.727-2.315-19.556-17.4-23.547-31.335a.507.507,0,0,1,.348-.626.5.5,0,0,1,.625.345c3.906,13.642,12.468,28.4,22.787,30.629a19.111,19.111,0,0,0,5.069.407.544.544,0,0,1,.533.475.5.5,0,0,1-.475.533Q900.542,1468.221,899.993,1468.221Z" transform="translate(-872.181 -1435.777)"/>
    </g>
    <g id="Grupo_10272" data-name="Grupo 10272" transform="translate(629.179 1175.918)">
      <path id="Trazado_19856" data-name="Trazado 19856" d="M1026.979,1417.512c-15.495,0-35.762-21.556-41.822-28.426a.5.5,0,0,1,.756-.669c16.721,18.957,32.813,29.4,43.093,27.947,10.344-1.465,16.454-13.8,16.952-24.66.5-10.96-2.857-24.173-9.984-39.27-1.442-3.057-3.078-6.074-4.659-8.994-.931-1.717-1.861-3.435-2.762-5.17-.276-.536-.55-1.076-.826-1.616-1.927-3.8-3.922-7.72-7.267-10.452-7.273-5.944-18.445-5.422-22.917-4.925a.482.482,0,0,1-.558-.443.5.5,0,0,1,.447-.558c4.6-.516,16.1-1.044,23.67,5.141,3.508,2.87,5.551,6.891,7.527,10.78q.41.805.822,1.606c.9,1.731,1.825,3.446,2.753,5.156,1.588,2.935,3.231,5.966,4.686,9.044,7.2,15.248,10.589,28.62,10.078,39.746-.515,11.266-6.937,24.073-17.821,25.618A15.45,15.45,0,0,1,1026.979,1417.512Z" transform="translate(-985.031 -1319.985)"/>
    </g>
    <g id="Grupo_10273" data-name="Grupo 10273" transform="translate(595.554 1176.201)">
      <path id="Trazado_19857" data-name="Trazado 19857" d="M924.614,1334.833a.5.5,0,0,1-.308-.1.5.5,0,0,1-.092-.709c6.075-7.9,14.71-10.686,21.551-12.227.229-.047,5.368-1.095,7.976-1.293a.505.505,0,1,1,.076,1.008c-2.546.195-7.786,1.26-7.84,1.272-6.666,1.5-15.084,4.212-20.963,11.86A.511.511,0,0,1,924.614,1334.833Z" transform="translate(-924.108 -1320.498)"/>
    </g>
    <g id="Grupo_10274" data-name="Grupo 10274" transform="translate(609.858 1144.23)">
      <path id="Trazado_19858" data-name="Trazado 19858" d="M961.716,1289.051a8.045,8.045,0,0,1-1.092-.072c-2.217-.3-3.907-1.6-5.174-3.979a25.485,25.485,0,0,1-2.378-7.013c-.237-1.167-.54-2.718-.864-4.382-.778-3.975-1.743-8.922-2.163-10.384a.507.507,0,0,1,.348-.626.5.5,0,0,1,.625.346c.43,1.508,1.359,6.268,2.18,10.471.326,1.664.628,3.208.864,4.374a24.4,24.4,0,0,0,2.281,6.74,5.83,5.83,0,0,0,4.414,3.453,10.648,10.648,0,0,0,4.063-.4c1.624-.428,3.979-1.138,5.574-1.761a.513.513,0,0,1,.653.289.506.506,0,0,1-.286.655c-1.745.677-4.151,1.39-5.683,1.8A13.44,13.44,0,0,1,961.716,1289.051Z" transform="translate(-950.025 -1262.573)"/>
    </g>
    <g id="Grupo_10275" data-name="Grupo 10275" transform="translate(632.238 1146.304)">
      <path id="Trazado_19859" data-name="Trazado 19859" d="M994.955,1277.874a5.7,5.7,0,0,1-1.738-.27.506.506,0,0,1,.306-.965,4.759,4.759,0,1,0,.324-9.167,4.787,4.787,0,0,0-2.4,1.411.5.5,0,1,1-.742-.684,5.769,5.769,0,1,1,5.593,9.513A5.7,5.7,0,0,1,994.955,1277.874Z" transform="translate(-990.573 -1266.33)"/>
    </g>
    <g id="Grupo_10276" data-name="Grupo 10276" transform="translate(633.744 1148.377)">
      <path id="Trazado_19860" data-name="Trazado 19860" d="M997.779,1276.722a.507.507,0,0,1-.236-.057l-3.971-2.1a.5.5,0,0,1-.263-.364.51.51,0,0,1,.133-.432l3.368-3.532a.506.506,0,1,1,.731.7l-2.908,3.049,3.381,1.782a.5.5,0,0,1-.236.95Z" transform="translate(-993.302 -1270.086)"/>
    </g>
    <g id="Grupo_10277" data-name="Grupo 10277" transform="translate(650.914 1201.473)">
      <path id="Trazado_19861" data-name="Trazado 19861" d="M1030.372,1395.023a.506.506,0,0,1-.506-.5,80.712,80.712,0,0,0-5.415-27.532.505.505,0,0,1,.933-.389,81.865,81.865,0,0,1,5.494,27.922A.505.505,0,0,1,1030.372,1395.023Z" transform="translate(-1024.412 -1366.287)"/>
    </g>
    <g id="Grupo_10278" data-name="Grupo 10278" transform="translate(621.148 1158.027)">
      <path id="Trazado_19862" data-name="Trazado 19862" d="M971.58,1292.528a6.436,6.436,0,0,1-.643-.029.506.506,0,0,1-.454-.551.515.515,0,0,1,.551-.457,3.222,3.222,0,0,0,2.663-.709,3.791,3.791,0,0,0,.893-2.672.506.506,0,0,1,.466-.54.525.525,0,0,1,.542.464,4.777,4.777,0,0,1-1.188,3.464A3.866,3.866,0,0,1,971.58,1292.528Z" transform="translate(-970.481 -1287.571)"/>
    </g>
    <g id="Grupo_10279" data-name="Grupo 10279" transform="translate(591.443 1259.543)">
      <path id="Trazado_19863" data-name="Trazado 19863" d="M917.167,1509.606a.491.491,0,0,1-.211-.047.5.5,0,0,1-.248-.67c4.5-9.815,4.227-36.609,4.223-36.879a.506.506,0,0,1,1.012-.014c.013,1.108.282,27.3-4.317,37.318A.5.5,0,0,1,917.167,1509.606Z" transform="translate(-916.661 -1471.499)"/>
    </g>
    <g id="Grupo_10280" data-name="Grupo 10280" transform="translate(558.965 1209.719)">
      <path id="Trazado_19864" data-name="Trazado 19864" d="M873.042,1413.236c-5.264,0-9.455-1.257-11.194-3.478a17.3,17.3,0,0,1-2.958-6.581,36.286,36.286,0,0,1-.839-12.883c.551-4.727,5.737-8.793,5.957-8.962a.506.506,0,0,1,.619.8c-.05.04-5.071,3.978-5.572,8.278a35.77,35.77,0,0,0,.814,12.522,16.357,16.357,0,0,0,2.774,6.207c1.614,2.063,6.729,3.738,14.5,2.845,2.329-.27,6.54-2.045,6.205-5.116a2.716,2.716,0,0,0-1.44-2.113.505.505,0,0,1-.2-.684.5.5,0,0,1,.686-.2,3.767,3.767,0,0,1,1.963,2.891c.4,3.644-4,5.869-7.1,6.225A36.714,36.714,0,0,1,873.042,1413.236Z" transform="translate(-857.815 -1381.227)"/>
    </g>
    <g id="Grupo_10281" data-name="Grupo 10281" transform="translate(564.391 1215.273)">
      <path id="Trazado_19865" data-name="Trazado 19865" d="M881.343,1402.738a74.655,74.655,0,0,1-11.831-1.171.506.506,0,0,1-.29-.655.516.516,0,0,1,.653-.288c.844.328,10.475,1.372,12.639,1.048l.371-.051c.94-.123,2.36-.31,2.854-1.1a4.054,4.054,0,0,0,.472-3.507,4.377,4.377,0,0,0-2.166-2.293,5.473,5.473,0,0,0-2.967-.357c-.272.014-.544.029-.815.036-10.425.263-12.341-2.049-12.524-2.315a.5.5,0,0,1,.819-.59c.052.061,1.948,2.138,11.68,1.9.259-.008.52-.022.781-.04a6.2,6.2,0,0,1,3.506.479,5.336,5.336,0,0,1,2.636,2.845,5.046,5.046,0,0,1-.565,4.378c-.746,1.2-2.451,1.422-3.579,1.57l-.354.05A10.434,10.434,0,0,1,881.343,1402.738Z" transform="translate(-867.648 -1391.29)"/>
    </g>
    <g id="Grupo_10282" data-name="Grupo 10282" transform="translate(565.628 1224.925)">
      <path id="Trazado_19866" data-name="Trazado 19866" d="M880.523,1418.343a84.532,84.532,0,0,1-10.2-.72.506.506,0,0,1,.141-1,69.559,69.559,0,0,0,13.883.536c2.09-.213,4.242-1.577,4.024-4.069a4.983,4.983,0,0,0-2.176-3.391.505.505,0,0,1,.569-.836,5.955,5.955,0,0,1,2.612,4.14c.281,3.172-2.356,4.9-4.927,5.163C883.206,1418.293,881.865,1418.343,880.523,1418.343Z" transform="translate(-869.888 -1408.777)"/>
    </g>
    <g id="Grupo_10283" data-name="Grupo 10283" transform="translate(623.205 1156.964)">
      <path id="Trazado_19867" data-name="Trazado 19867" d="M978.619,1320.041a2.231,2.231,0,0,1-.718-.111c-3.125-1.088-2.08-10.675-1.8-12.832l-1.879-8.209a.508.508,0,0,1,.38-.6.514.514,0,0,1,.6.381l1.9,8.3c-.587,4.724-.632,11.4,1.129,12.011,2.618.94,9.986-7.226,14.107-12.71l-5.125-19.986a.505.505,0,1,1,.979-.252l5.185,20.22a.507.507,0,0,1-.084.428C992.224,1308.1,983.183,1320.041,978.619,1320.041Z" transform="translate(-974.207 -1285.644)"/>
    </g>
    <g id="Grupo_10290" data-name="Grupo 10290" transform="translate(239.5 1166.387)">
      <g id="Grupo_10284" data-name="Grupo 10284" transform="translate(0 0)">
        <path id="Trazado_19868" data-name="Trazado 19868" d="M291.445,1335.947a.511.511,0,0,1-.459-.3l-11.937-26.039a.5.5,0,0,1,.072-.532l5.159-6.182a.607.607,0,0,1,.387-.18.5.5,0,0,1,.364.155l15.464,16,4.093-15.619a.5.5,0,0,1,.4-.368.474.474,0,0,1,.5.212l4.067,6.017a.51.51,0,0,1,.088.284v22.114a.508.508,0,0,1-.351.482.523.523,0,0,1-.565-.187l-7.937-11.021-8.916,14.909A.51.51,0,0,1,291.445,1335.947ZM280.1,1309.484l11.4,24.875,8.62-14.412-15.43-15.969Zm21.2,10.29,7.332,10.178v-20.393l-3.356-4.965Z" transform="translate(-279.002 -1302.718)"/>
      </g>
      <g id="Grupo_10285" data-name="Grupo 10285" transform="translate(13.779 29.142)">
        <path id="Trazado_19869" data-name="Trazado 19869" d="M311.9,1377.557a.506.506,0,0,1-.482-.357c-3.2-10.427-7.375-20.887-7.417-20.991a.5.5,0,1,1,.936-.374c.043.1,4.238,10.6,7.446,21.07a.5.5,0,0,1-.334.63A.528.528,0,0,1,311.9,1377.557Z" transform="translate(-303.968 -1355.518)"/>
      </g>
      <g id="Grupo_10286" data-name="Grupo 10286" transform="translate(28.926 27.308)">
        <path id="Trazado_19870" data-name="Trazado 19870" d="M333.585,1369.966a.5.5,0,0,1-.5-.472,164.033,164.033,0,0,0-1.662-16.7.506.506,0,0,1,.405-.59.493.493,0,0,1,.589.4,164.961,164.961,0,0,1,1.676,16.818.507.507,0,0,1-.472.536Z" transform="translate(-331.411 -1352.196)"/>
      </g>
      <g id="Grupo_10287" data-name="Grupo 10287" transform="translate(15.748 24.213)">
        <path id="Trazado_19871" data-name="Trazado 19871" d="M312.635,1355.6a.5.5,0,0,1-.41-.209l-4.594-6.369a.507.507,0,0,1,.115-.706.5.5,0,0,1,.705.115l4.425,6.135,5.039-.479.569-7.039a.506.506,0,1,1,1.008.079l-.6,7.464a.509.509,0,0,1-.457.464l-5.75.544Z" transform="translate(-307.536 -1346.588)"/>
      </g>
      <g id="Grupo_10288" data-name="Grupo 10288" transform="translate(19.397 32.221)">
        <path id="Trazado_19872" data-name="Trazado 19872" d="M314.652,1374.48a.511.511,0,0,1-.5-.544l.945-12.375a.521.521,0,0,1,.541-.464.5.5,0,0,1,.466.543l-.945,12.375A.5.5,0,0,1,314.652,1374.48Z" transform="translate(-314.146 -1361.097)"/>
      </g>
      <g id="Grupo_10289" data-name="Grupo 10289" transform="translate(26.093 31.674)">
        <path id="Trazado_19873" data-name="Trazado 19873" d="M330.884,1369.344a.5.5,0,0,1-.452-.277l-4.1-8.228a.505.505,0,1,1,.9-.453l4.1,8.227a.508.508,0,0,1-.226.681A.5.5,0,0,1,330.884,1369.344Z" transform="translate(-326.278 -1360.106)"/>
      </g>
    </g>
    <g id="Grupo_10291" data-name="Grupo 10291" transform="translate(195.478 1297.546)">
      <path id="Trazado_19874" data-name="Trazado 19874" d="M695.266,1541.362H199.748a.5.5,0,1,1,0-1.008H695.266a.5.5,0,1,1,0,1.008Z" transform="translate(-199.242 -1540.354)"/>
    </g>
    <path id="Trazado_19875" data-name="Trazado 19875" d="M956.57,1271.816c.381-.145.682-.031,1.093,1.367.459,1.559.107,1.924-.252,1.985s-.818-.354-1.038-1.49S956.069,1272.006,956.57,1271.816Z" transform="translate(-342.934 -122.463)"/>
    <path id="Trazado_19876" data-name="Trazado 19876" d="M977.056,1266.9c.385-.135.682-.013,1.057,1.395.418,1.571.056,1.927-.3,1.978s-.809-.375-1-1.517S976.551,1267.082,977.056,1266.9Z" transform="translate(-352.105 -120.265)"/>
    <g id="Grupo_10292" data-name="Grupo 10292" transform="translate(678.602 1270.589)">
      <path id="Trazado_19877" data-name="Trazado 19877" d="M1075.082,1519.345a.509.509,0,0,1-.5-.53c.336-6.941,0-26.593,0-26.791a.5.5,0,0,1,.506-.511.506.506,0,0,1,.506.5c0,.2.337,19.882,0,26.856A.5.5,0,0,1,1075.082,1519.345Z" transform="translate(-1074.576 -1491.513)"/>
    </g>
    <g id="Grupo_10293" data-name="Grupo 10293" transform="translate(404.23 1176.409)">
      <path id="Trazado_19878" data-name="Trazado 19878" d="M623.55,1400.75c-8.866,0-17.772-2.844-24.685-9.9-8.069-8.23-12.044-19.59-14.868-29.618-3.075-10.906-4.571-19.745-6.465-30.935l-.063-.374a.507.507,0,0,1,.044-.3c.146-.306,3.7-7.474,16.177-8.6,11.222-1.005,14.978,3.226,15.131,3.406a.556.556,0,0,1,.1.169l10.711,32.728c.848,2.625,1.648,5.109,4.033,6.47a6.482,6.482,0,0,0,7.415-.8c2.1-1.753,3.28-4.32,4.4-7.017.549-1.321,1.084-2.657,1.622-4a121.472,121.472,0,0,1,5.791-12.933c3.228-5.92,7.208-9.959,11.83-12a25.257,25.257,0,0,1,9.323-1.991.513.513,0,0,1,.533.475.5.5,0,0,1-.475.533,24.4,24.4,0,0,0-8.974,1.9c-4.413,1.952-8.231,5.84-11.351,11.562a120.754,120.754,0,0,0-5.739,12.828c-.54,1.339-1.076,2.678-1.627,4.007-1.124,2.7-2.411,5.505-4.684,7.406a7.483,7.483,0,0,1-8.564.9c-2.727-1.559-3.623-4.346-4.493-7.039l-3.722-11.388-6.954-21.225c-.509-.508-4.307-3.9-14.211-2.992-10.944.983-14.737,6.924-15.284,7.892l.034.2c1.889,11.162,3.379,19.975,6.439,30.831,2.791,9.905,6.71,21.117,14.617,29.186,12.3,12.555,31.16,11.352,44.383,4.591a.505.505,0,1,1,.461.9A46.686,46.686,0,0,1,623.55,1400.75Z" transform="translate(-577.463 -1320.875)"/>
    </g>
    <g id="Grupo_10294" data-name="Grupo 10294" transform="translate(512.792 1181.39)">
      <path id="Trazado_19879" data-name="Trazado 19879" d="M795.859,1447.064a.5.5,0,0,1-.5-.454c-.025-.259-2.555-26.111-1.293-45.071,1.26-18.891.013-44.484,0-44.74-.193-3.9-2.193-8.634-4.326-13.167a25.115,25.115,0,0,0-5.934-8.378,19.164,19.164,0,0,0-9.248-4.36.5.5,0,0,1-.387-.6.51.51,0,0,1,.6-.389,20.332,20.332,0,0,1,9.7,4.591,26.016,26.016,0,0,1,6.182,8.7c2.177,4.626,4.218,9.473,4.42,13.549.013.255,1.263,25.905,0,44.855-1.257,18.881,1.263,44.646,1.289,44.905a.509.509,0,0,1-.452.555Z" transform="translate(-774.158 -1329.9)"/>
    </g>
    <g id="Grupo_10295" data-name="Grupo 10295" transform="translate(446.185 1211.129)">
      <path id="Trazado_19880" data-name="Trazado 19880" d="M658.163,1428.977c-1.37,0-2.772-.057-4.22-.177a.508.508,0,0,1-.462-.547.522.522,0,0,1,.545-.461c40.394,3.42,50.044-43.137,50.137-43.606a.523.523,0,0,1,.592-.4.506.506,0,0,1,.4.594C705.063,1384.842,695.918,1428.977,658.163,1428.977Z" transform="translate(-653.479 -1383.782)"/>
    </g>
    <g id="Grupo_10296" data-name="Grupo 10296" transform="translate(523.663 1187.239)">
      <path id="Trazado_19881" data-name="Trazado 19881" d="M811.219,1417.053a16.184,16.184,0,0,1-8.442-2.693.506.506,0,0,1,.591-.821c.363.259,8.988,6.337,15.871-1.264,9.423-10.416-8.819-50.986-25.27-70.951a.505.505,0,0,1,.782-.641c17.057,20.7,35.15,61.312,25.238,72.269A11.487,11.487,0,0,1,811.219,1417.053Z" transform="translate(-793.854 -1340.498)"/>
    </g>
    <g id="Grupo_10297" data-name="Grupo 10297" transform="translate(472.546 1135.54)">
      <path id="Trazado_19882" data-name="Trazado 19882" d="M712.979,1283.955c-3.044-.28-5.3-1.411-6.749-3.37-2.292-3.089-1.835-7.223-1.658-8.346-.8-.763-3.353-3.33-3.333-5.026.023-1.865,3.875-2.714,5.559-3l1.215-9.016c.126-.392,2.58-7.4,6.76-8.364a.533.533,0,0,1,.423.093.509.509,0,0,1,.195.385c.005.151.517,15.162,8.855,16.6a.5.5,0,0,1,.41.583.481.481,0,0,1-.583.411c-8.182-1.411-9.466-13.823-9.66-16.9-3.3,1.364-5.4,7.359-5.422,7.424l-1.242,9.289a.5.5,0,0,1-.426.432c-2.441.364-5.063,1.282-5.072,2.07-.014,1.091,1.96,3.313,3.208,4.461a.5.5,0,0,1,.153.471c-.009.047-.916,4.666,1.431,7.831a7.976,7.976,0,0,0,5.982,2.956.5.5,0,0,1-.047,1.008Z" transform="translate(-701.24 -1246.828)"/>
    </g>
    <g id="Grupo_10298" data-name="Grupo 10298" transform="translate(478.013 1129.941)">
      <path id="Trazado_19883" data-name="Trazado 19883" d="M736.993,1290.585a44.507,44.507,0,0,1-11.038-1.548,14.7,14.7,0,0,1-6.1-2.9,7.474,7.474,0,0,1-2.781-6.2c.333-3.6,3.674-6.208,6.434-7.348.493-.2,1.066-.371,1.671-.551,2.331-.688,3.988-1.307,4.06-3.053a.5.5,0,0,1,1.008.044c-.106,2.6-2.7,3.366-4.781,3.978a16.469,16.469,0,0,0-1.572.519c-2.5,1.03-5.522,3.355-5.815,6.506a6.57,6.57,0,0,0,2.438,5.347,13.786,13.786,0,0,0,5.692,2.686c5.764,1.512,14,2.665,20.489-.435a9.57,9.57,0,0,0,4.128-3.4c2.371-3.77-.565-7.072-3.388-9.527l-.3-.256c-.8-.659-2-1.653-1.87-2.9.322-3.06,1.587-8.252,3.76-15.435.09-.3.146-.479.159-.529.633-4.44-.141-8.087-2.312-10.8-3.427-4.281-9.253-4.789-9.313-4.792a20.812,20.812,0,0,0-5.062-1.394c-12.769-2.175-18.028-.511-20.095,6.359-.844,2.812.7,7.917.715,7.968a.5.5,0,1,1-.965.3c-.068-.219-1.649-5.455-.718-8.551,2.547-8.461,10.013-8.976,21.232-7.064a20.632,20.632,0,0,1,5.061,1.387c.8.079,6.416.774,9.928,5.156,2.357,2.938,3.2,6.848,2.521,11.622,0,.018-.065.245-.184.634-2.682,8.872-3.505,13.188-3.723,15.251-.075.705.879,1.494,1.509,2.016l.32.27c2.884,2.51,6.393,6.362,3.585,10.831a10.59,10.59,0,0,1-4.55,3.77A23.557,23.557,0,0,1,736.993,1290.585Z" transform="translate(-711.144 -1236.684)"/>
    </g>
    <g id="Grupo_10299" data-name="Grupo 10299" transform="translate(373.583 1154.355)">
      <path id="Trazado_19884" data-name="Trazado 19884" d="M522.44,1302.816a.49.49,0,0,1-.357-.148.5.5,0,0,1,0-.713l20.888-20.886a.5.5,0,0,1,.713,0,.5.5,0,0,1,0,.713L522.8,1302.668A.489.489,0,0,1,522.44,1302.816Z" transform="translate(-521.935 -1280.917)"/>
    </g>
    <g id="Grupo_10300" data-name="Grupo 10300" transform="translate(360.613 1168.173)">
      <path id="Trazado_19885" data-name="Trazado 19885" d="M506.01,1314.033a.491.491,0,0,1-.357-.148l-7.067-7.068a.5.5,0,0,1,0-.713.5.5,0,0,1,.713,0l7.068,7.068a.5.5,0,0,1,0,.713A.489.489,0,0,1,506.01,1314.033Z" transform="translate(-498.438 -1305.954)"/>
    </g>
    <g id="Grupo_10301" data-name="Grupo 10301" transform="translate(335.709 1168.094)">
      <path id="Trazado_19886" data-name="Trazado 19886" d="M453.82,1326.578a.487.487,0,0,1-.356-.147.5.5,0,0,1,0-.713l19.759-19.756a.5.5,0,0,1,.713,0,.5.5,0,0,1,0,.713l-19.76,19.756A.488.488,0,0,1,453.82,1326.578Z" transform="translate(-453.315 -1305.81)"/>
    </g>
    <g id="Grupo_10302" data-name="Grupo 10302" transform="translate(314.549 1172.901)">
      <path id="Trazado_19887" data-name="Trazado 19887" d="M430.795,1330.84a.49.49,0,0,1-.357-.148l-15.313-15.309a.5.5,0,0,1,0-.713.5.5,0,0,1,.713,0l15.313,15.31a.5.5,0,0,1,0,.713A.489.489,0,0,1,430.795,1330.84Z" transform="translate(-414.977 -1314.519)"/>
    </g>
    <g id="Grupo_10303" data-name="Grupo 10303" transform="translate(354.249 1161.455)">
      <path id="Trazado_19888" data-name="Trazado 19888" d="M491.249,1302.466a4.342,4.342,0,1,1,4.344-4.343A4.347,4.347,0,0,1,491.249,1302.466Zm0-7.677a3.334,3.334,0,1,0,3.332,3.334A3.338,3.338,0,0,0,491.249,1294.789Z" transform="translate(-486.906 -1293.781)"/>
    </g>
    <g id="Grupo_10304" data-name="Grupo 10304" transform="translate(366.977 1174.279)">
      <path id="Trazado_19889" data-name="Trazado 19889" d="M514.311,1325.7a4.34,4.34,0,1,1,4.342-4.338A4.345,4.345,0,0,1,514.311,1325.7Zm0-7.672a3.332,3.332,0,1,0,3.33,3.334A3.338,3.338,0,0,0,514.311,1318.025Z" transform="translate(-509.967 -1317.017)"/>
    </g>
    <g id="Grupo_10305" data-name="Grupo 10305" transform="translate(328.887 1187.122)">
      <path id="Trazado_19890" data-name="Trazado 19890" d="M445.3,1348.967a4.341,4.341,0,1,1,4.342-4.339A4.346,4.346,0,0,1,445.3,1348.967Zm0-7.673a3.332,3.332,0,1,0,3.33,3.334A3.338,3.338,0,0,0,445.3,1341.294Z" transform="translate(-440.955 -1340.286)"/>
    </g>
    <g id="Grupo_10306" data-name="Grupo 10306" transform="translate(307.968 1166.024)">
      <path id="Trazado_19891" data-name="Trazado 19891" d="M407.4,1310.744a4.342,4.342,0,1,1,4.344-4.342A4.347,4.347,0,0,1,407.4,1310.744Zm0-7.676a3.334,3.334,0,1,0,3.332,3.334A3.337,3.337,0,0,0,407.4,1303.068Z" transform="translate(-403.054 -1302.06)"/>
    </g>
    <g id="Grupo_10307" data-name="Grupo 10307" transform="translate(559.337 1192.736)">
      <path id="Trazado_19892" data-name="Trazado 19892" d="M927.484,1418.034h-45.66a.5.5,0,0,1-.477-.338l-6.277-18.305a.5.5,0,1,1,.954-.331l6.161,17.966h44.592l-22.483-65.561H859.7l7.847,22.881a.505.505,0,1,1-.954.331l-8.077-23.551a.5.5,0,0,1,.477-.67h45.66a.5.5,0,0,1,.477.338l22.831,66.569a.5.5,0,0,1-.477.67Z" transform="translate(-858.489 -1350.457)"/>
    </g>
    <g id="Grupo_10308" data-name="Grupo 10308" transform="translate(562.267 1189.989)">
      <path id="Trazado_19893" data-name="Trazado 19893" d="M932.793,1413.053H928.92a.5.5,0,1,1,0-1.008h3.165L909.6,1346.488H865.012l.521,1.519a.505.505,0,1,1-.954.331l-.751-2.189a.5.5,0,0,1,.477-.67h45.658a.5.5,0,0,1,.477.338l22.831,66.565a.5.5,0,0,1-.477.67Z" transform="translate(-863.799 -1345.48)"/>
    </g>
    <g id="Grupo_10309" data-name="Grupo 10309" transform="translate(608.506 1133.222)">
      <path id="Trazado_19894" data-name="Trazado 19894" d="M948.081,1258.217a.506.506,0,0,1-.506-.5c0-.245.036-5.995,8.911-8.623,8.265-2.452,10.467-6.175,10.489-6.211a.506.506,0,0,1,.943.213c.008.112.821,11.107,5.581,13.243a.505.505,0,0,1,.253.666.511.511,0,0,1-.667.255c-4.313-1.937-5.673-9.714-6.048-12.821-1.267,1.383-4.214,3.831-10.263,5.624-8.105,2.4-8.189,7.431-8.188,7.644a.51.51,0,0,1-.5.508Z" transform="translate(-947.575 -1242.629)"/>
    </g>
    <g id="Grupo_10310" data-name="Grupo 10310" transform="translate(598.701 1123.142)">
      <path id="Trazado_19895" data-name="Trazado 19895" d="M969.954,1267.557a.5.5,0,0,1-.09-1c3.113-.558,9.99-3.085,11.79-6.4a3.032,3.032,0,0,0,.169-2.776c-.134-.317-.3-.623-.466-.929a9.731,9.731,0,0,1-.583-1.2c-.72-1.883-.285-3.762.135-5.58a19.482,19.482,0,0,0,.438-2.276,18.727,18.727,0,0,0-1.231-9.027,15.345,15.345,0,0,0-11.088-9.491,19.242,19.242,0,0,0-5.264-.385c-.07.008-.256.04-.484.079-1.613.277-1.887.285-2.128.025-2.794-2.919-7.916-4.028-12.189-2.613a11.584,11.584,0,0,0-6.349,4.9c-.427.727-.806,1.505-1.174,2.258-.4.828-.819,1.685-1.309,2.5a16.643,16.643,0,0,1-4.864,4.814c-.479.353-.969.716-1.465,1.1a6.82,6.82,0,0,0-1.9,2.7,16.351,16.351,0,0,0-.869,8.6c1.154,8.123,7.111,13.693,14.564,13.693.149,0,.3,0,.45-.007a.5.5,0,0,1,.029,1.008c-8.2.288-14.793-5.739-16.044-14.549a17.352,17.352,0,0,1,.945-9.146,7.749,7.749,0,0,1,2.2-3.085c.5-.4,1-.767,1.487-1.127a15.573,15.573,0,0,0,4.6-4.526c.466-.767.871-1.6,1.264-2.409.376-.774.765-1.57,1.212-2.329a12.6,12.6,0,0,1,6.9-5.35c4.556-1.519,10.034-.353,13.113,2.747.308-.018,1.021-.141,1.348-.194.3-.054.529-.09.6-.094a20.345,20.345,0,0,1,5.529.407,16.329,16.329,0,0,1,11.811,10.1,19.735,19.735,0,0,1,1.3,9.509,20.6,20.6,0,0,1-.458,2.394c-.4,1.746-.786,3.4-.176,4.994a8.557,8.557,0,0,0,.526,1.072,11.017,11.017,0,0,1,.513,1.023,4.043,4.043,0,0,1-.214,3.647c-2.144,3.95-9.913,6.449-12.5,6.913A.36.36,0,0,1,969.954,1267.557Z" transform="translate(-929.81 -1224.365)"/>
    </g>
    <g id="Grupo_10311" data-name="Grupo 10311" transform="translate(610.455 1145.349)">
      <path id="Trazado_19896" data-name="Trazado 19896" d="M951.611,1267.052a.5.5,0,0,1-.312-.9,8.793,8.793,0,0,1,3.365-1.548.506.506,0,0,1,.19.994,7.935,7.935,0,0,0-2.932,1.347A.506.506,0,0,1,951.611,1267.052Z" transform="translate(-951.106 -1264.599)"/>
    </g>
    <g id="Grupo_10312" data-name="Grupo 10312" transform="translate(620.291 1142.5)">
      <path id="Trazado_19897" data-name="Trazado 19897" d="M969.433,1261.748a.5.5,0,0,1-.333-.882,7.152,7.152,0,0,1,7.415-.76.506.506,0,0,1-.385.937,6.225,6.225,0,0,0-6.364.579A.492.492,0,0,1,969.433,1261.748Z" transform="translate(-968.928 -1259.439)"/>
    </g>
    <g id="Grupo_10313" data-name="Grupo 10313" transform="translate(628.883 1224.423)">
      <path id="Trazado_19898" data-name="Trazado 19898" d="M986.285,1428.985a1.749,1.749,0,0,1-1.364-.518c-1.041-1.145-.174-3.467,2.575-6.906a.518.518,0,0,1,.709-.079.509.509,0,0,1,.079.713c-2.661,3.323-3.071,5.09-2.614,5.594.328.364,1.62.3,4.184-1.087a50.122,50.122,0,0,0,14.9-13.506c1.629-2.413,1.82-3.694,1.49-4.058-.477-.522-1.68-.256-3.678.821a.5.5,0,1,1-.479-.886c1.813-.98,3.81-1.815,4.906-.612.828.911.357,2.7-1.4,5.3a51.148,51.148,0,0,1-15.258,13.83A9.413,9.413,0,0,1,986.285,1428.985Z" transform="translate(-984.495 -1407.868)"/>
    </g>
    <g id="Grupo_10314" data-name="Grupo 10314" transform="translate(615.451 1147.164)">
      <path id="Trazado_19899" data-name="Trazado 19899" d="M963.421,1280.189a3.6,3.6,0,0,1-2.9-1.124,1.852,1.852,0,0,1-.162-1.955c.578-1.285,1.012-6.75,1.131-8.746a.49.49,0,0,1,.534-.475.507.507,0,0,1,.474.533c-.045.756-.459,7.417-1.217,9.1a.858.858,0,0,0,.045.933,3.291,3.291,0,0,0,2.888.659.506.506,0,0,1,.151,1A6.591,6.591,0,0,1,963.421,1280.189Z" transform="translate(-960.158 -1267.889)"/>
    </g>
    <g id="Grupo_10315" data-name="Grupo 10315" transform="translate(564.387 1184.766)">
      <path id="Trazado_19900" data-name="Trazado 19900" d="M873.321,1349.877a4.025,4.025,0,0,1-2.774-1.386,10.458,10.458,0,0,1-2.432-4.411c-1.1-3.831-.228-7.33,1.988-7.968,2.065-.583,4.493,1.566,5.7,5.005a.5.5,0,0,1-.954.331c-1.008-2.877-2.98-4.785-4.463-4.364-1.617.465-2.21,3.54-1.3,6.715a9.433,9.433,0,0,0,2.178,3.983,2.66,2.66,0,0,0,2.486,1.022.506.506,0,1,1,.281.972A2.63,2.63,0,0,1,873.321,1349.877Z" transform="translate(-867.639 -1336.017)"/>
    </g>
    <g id="Grupo_10316" data-name="Grupo 10316" transform="translate(578.382 1184.766)">
      <path id="Trazado_19901" data-name="Trazado 19901" d="M898.678,1349.877a4.026,4.026,0,0,1-2.774-1.386,10.463,10.463,0,0,1-2.432-4.411c-1.1-3.831-.229-7.33,1.987-7.968,2.065-.583,4.493,1.566,5.7,5.005a.505.505,0,0,1-.954.331c-1.008-2.877-2.979-4.785-4.462-4.364-1.617.465-2.211,3.54-1.3,6.715a9.438,9.438,0,0,0,2.178,3.983,2.663,2.663,0,0,0,2.486,1.022.506.506,0,0,1,.281.972A2.63,2.63,0,0,1,898.678,1349.877Z" transform="translate(-892.996 -1336.017)"/>
    </g>
    <g id="Grupo_10317" data-name="Grupo 10317" transform="translate(592.487 1184.766)">
      <path id="Trazado_19902" data-name="Trazado 19902" d="M924.23,1349.877a4.023,4.023,0,0,1-2.775-1.386,11.345,11.345,0,0,1-2.714-9.441,3.588,3.588,0,0,1,2.27-2.938c2.074-.583,4.492,1.566,5.7,5.005a.505.505,0,0,1-.954.331c-1.008-2.877-2.97-4.785-4.461-4.364-.742.213-1.3.99-1.565,2.189a10.365,10.365,0,0,0,2.446,8.508,2.672,2.672,0,0,0,2.486,1.022.506.506,0,1,1,.281.972A2.63,2.63,0,0,1,924.23,1349.877Z" transform="translate(-918.552 -1336.017)"/>
    </g>
    <g id="Grupo_10318" data-name="Grupo 10318" transform="translate(414.538 1304.934)">
      <path id="Trazado_19903" data-name="Trazado 19903" d="M621.52,1565.985c-.049,0-24.925-2.376-24.925-2.376a.506.506,0,0,1-.157-.965l19.988-8.861a.691.691,0,0,1,.254-.043l6.877.659a.506.506,0,0,1,.454.551.531.531,0,0,1-.551.458l-6.746-.649-18.1,8.026,22.795,2.178,9.932-5.786a.5.5,0,1,1,.508.872l-10.072,5.869A.493.493,0,0,1,621.52,1565.985Z" transform="translate(-596.14 -1553.74)"/>
    </g>
    <g id="Grupo_10319" data-name="Grupo 10319" transform="translate(437.221 1301.172)">
      <path id="Trazado_19904" data-name="Trazado 19904" d="M653.622,1559.168a.492.492,0,0,1-.254-.068l-15.88-9.254a.505.505,0,0,1,.205-.94l20.767-1.984a.7.7,0,0,1,.254.043l19.988,8.861a.505.505,0,0,1-.157.965l-24.875,2.376Zm-14.271-9.4,14.384,8.382,22.795-2.178-18.1-8.026Z" transform="translate(-637.237 -1546.923)"/>
    </g>
    <g id="Grupo_10320" data-name="Grupo 10320" transform="translate(570.623 1203.667)">
      <path id="Trazado_19905" data-name="Trazado 19905" d="M908.48,1371.27H879.444a.5.5,0,1,1,0-1.008H908.48a.5.5,0,1,1,0,1.008Z" transform="translate(-878.938 -1370.262)"/>
    </g>
    <g id="Grupo_10321" data-name="Grupo 10321" transform="translate(573.239 1211.419)">
      <path id="Trazado_19906" data-name="Trazado 19906" d="M913.22,1385.315H884.183a.5.5,0,1,1,0-1.008H913.22a.5.5,0,1,1,0,1.008Z" transform="translate(-883.678 -1384.307)"/>
    </g>
    <g id="Grupo_10322" data-name="Grupo 10322" transform="translate(582.793 1225.889)">
      <path id="Trazado_19907" data-name="Trazado 19907" d="M925.986,1411.533H901.494a.5.5,0,1,1,0-1.008h24.493a.5.5,0,1,1,0,1.008Z" transform="translate(-900.988 -1410.525)"/>
    </g>
    <g id="Grupo_10323" data-name="Grupo 10323" transform="translate(582.147 1219.016)">
      <path id="Trazado_19908" data-name="Trazado 19908" d="M923.13,1399.079H900.323a.5.5,0,1,1,0-1.008H923.13a.5.5,0,1,1,0,1.008Z" transform="translate(-899.817 -1398.071)"/>
    </g>
    <g id="Grupo_10324" data-name="Grupo 10324" transform="translate(584.124 1233.482)">
      <path id="Trazado_19909" data-name="Trazado 19909" d="M929.625,1425.29H903.9a.5.5,0,1,1,0-1.008h25.72a.5.5,0,1,1,0,1.008Z" transform="translate(-903.399 -1424.282)"/>
    </g>
    <g id="Grupo_10325" data-name="Grupo 10325" transform="translate(583.365 1241.08)">
      <path id="Trazado_19910" data-name="Trazado 19910" d="M931.567,1439.055H902.531a.5.5,0,1,1,0-1.008h29.036a.5.5,0,1,1,0,1.008Z" transform="translate(-902.025 -1438.047)"/>
    </g>
    <g id="Grupo_10326" data-name="Grupo 10326" transform="translate(532.838 1146.009)">
      <path id="Trazado_19911" data-name="Trazado 19911" d="M834.718,1290.535H810.984a.506.506,0,0,1-.506-.5V1266.3a.506.506,0,0,1,.506-.5h23.734a.506.506,0,0,1,.506.5v23.731A.506.506,0,0,1,834.718,1290.535Zm-23.229-1.008h22.723V1266.8H811.49Z" transform="translate(-810.478 -1265.796)"/>
    </g>
    <g id="Grupo_10327" data-name="Grupo 10327" transform="translate(433.116 1111.282)">
      <path id="Trazado_19912" data-name="Trazado 19912" d="M654.039,1227.62H630.305a.506.506,0,0,1-.506-.5v-23.735a.506.506,0,0,1,.506-.5h23.734a.506.506,0,0,1,.506.5v23.735A.506.506,0,0,1,654.039,1227.62Zm-23.229-1.008h22.723v-22.726H630.811Z" transform="translate(-629.799 -1202.877)"/>
    </g>
    <g id="Grupo_10328" data-name="Grupo 10328" transform="translate(443.325 1113.241)">
      <path id="Trazado_19913" data-name="Trazado 19913" d="M650.588,1211.005a2.29,2.29,0,1,1,2.293-2.289A2.292,2.292,0,0,1,650.588,1211.005Zm0-3.572a1.282,1.282,0,1,0,1.282,1.282A1.283,1.283,0,0,0,650.588,1207.434Z" transform="translate(-648.296 -1206.426)"/>
    </g>
    <g id="Grupo_10329" data-name="Grupo 10329" transform="translate(449.705 1121.741)">
      <path id="Trazado_19914" data-name="Trazado 19914" d="M663.04,1222.835h-2.678a.5.5,0,1,1,0-1.008h2.678a.5.5,0,1,1,0,1.008Z" transform="translate(-659.856 -1221.827)"/>
    </g>
    <g id="Grupo_10330" data-name="Grupo 10330" transform="translate(437.837 1121.741)">
      <path id="Trazado_19915" data-name="Trazado 19915" d="M645.112,1222.835H638.86a.5.5,0,1,1,0-1.008h6.252a.5.5,0,1,1,0,1.008Z" transform="translate(-638.354 -1221.827)"/>
    </g>
    <g id="Grupo_10331" data-name="Grupo 10331" transform="translate(437.837 1126.671)">
      <path id="Trazado_19916" data-name="Trazado 19916" d="M653.406,1231.766H638.86a.5.5,0,1,1,0-1.008h14.546a.5.5,0,1,1,0,1.008Z" transform="translate(-638.354 -1230.758)"/>
    </g>
    <g id="Grupo_10332" data-name="Grupo 10332" transform="translate(543.046 1147.964)">
      <path id="Trazado_19917" data-name="Trazado 19917" d="M831.266,1273.917a2.29,2.29,0,1,1,2.292-2.29A2.294,2.294,0,0,1,831.266,1273.917Zm0-3.571a1.282,1.282,0,1,0,1.28,1.281A1.283,1.283,0,0,0,831.266,1270.346Z" transform="translate(-828.973 -1269.338)"/>
    </g>
    <g id="Grupo_10333" data-name="Grupo 10333" transform="translate(537.559 1156.465)">
      <path id="Trazado_19918" data-name="Trazado 19918" d="M834.084,1285.748H819.537a.5.5,0,1,1,0-1.008h14.548a.5.5,0,1,1,0,1.008Z" transform="translate(-819.031 -1284.74)"/>
    </g>
    <g id="Grupo_10334" data-name="Grupo 10334" transform="translate(537.559 1161.394)">
      <path id="Trazado_19919" data-name="Trazado 19919" d="M826.491,1294.678h-6.954a.5.5,0,1,1,0-1.008h6.954a.5.5,0,1,1,0,1.008Z" transform="translate(-819.031 -1293.67)"/>
    </g>
    <g id="Grupo_10335" data-name="Grupo 10335" transform="translate(352.782 1227.963)">
      <path id="Trazado_19920" data-name="Trazado 19920" d="M496.014,1415.29h-11.26a.5.5,0,1,1,0-1.008h11.26a.5.5,0,1,1,0,1.008Z" transform="translate(-484.248 -1414.282)"/>
    </g>
    <g id="Grupo_10336" data-name="Grupo 10336" transform="translate(305.034 1227.963)">
      <path id="Trazado_19921" data-name="Trazado 19921" d="M440.685,1415.29H398.243a.5.5,0,1,1,0-1.008h42.442a.5.5,0,1,1,0,1.008Z" transform="translate(-397.737 -1414.282)"/>
    </g>
    <g id="Grupo_10337" data-name="Grupo 10337" transform="translate(305.034 1236.953)">
      <path id="Trazado_19922" data-name="Trazado 19922" d="M443.773,1431.579h-45.53a.5.5,0,1,1,0-1.008h45.53a.5.5,0,1,1,0,1.008Z" transform="translate(-397.737 -1430.571)"/>
    </g>
    <g id="Grupo_10338" data-name="Grupo 10338" transform="translate(337.087 1245.944)">
      <path id="Trazado_19923" data-name="Trazado 19923" d="M483.273,1447.868H456.319a.5.5,0,1,1,0-1.009h26.955a.5.5,0,1,1,0,1.009Z" transform="translate(-455.813 -1446.86)"/>
    </g>
    <g id="Grupo_10339" data-name="Grupo 10339" transform="translate(305.034 1245.944)">
      <path id="Trazado_19924" data-name="Trazado 19924" d="M410.261,1447.868H398.243a.5.5,0,1,1,0-1.009h12.018a.5.5,0,1,1,0,1.009Z" transform="translate(-397.737 -1446.86)"/>
    </g>
    <g id="Grupo_10340" data-name="Grupo 10340" transform="translate(393.834 1227.963)">
      <path id="Trazado_19925" data-name="Trazado 19925" d="M574.285,1415.29h-15.15a.5.5,0,1,1,0-1.008h15.15a.5.5,0,1,1,0,1.008Z" transform="translate(-558.628 -1414.282)"/>
    </g>
    <g id="Grupo_10341" data-name="Grupo 10341" transform="translate(393.834 1236.953)">
      <path id="Trazado_19926" data-name="Trazado 19926" d="M584.3,1431.579H559.134a.5.5,0,1,1,0-1.008H584.3a.5.5,0,1,1,0,1.008Z" transform="translate(-558.628 -1430.571)"/>
    </g>
    <g id="Grupo_10342" data-name="Grupo 10342" transform="translate(393.834 1245.944)">
      <path id="Trazado_19927" data-name="Trazado 19927" d="M587.623,1447.868H559.134a.5.5,0,1,1,0-1.009h28.488a.5.5,0,1,1,0,1.009Z" transform="translate(-558.628 -1446.86)"/>
    </g>
    <g id="Grupo_10343" data-name="Grupo 10343" transform="translate(532.73 1261.895)">
      <path id="Trazado_19928" data-name="Trazado 19928" d="M811.723,1486.1h-.934a.5.5,0,1,1,0-1.008h.934c5.744,0,10.285-3.586,11.3-8.922a.524.524,0,0,1,.59-.4.505.505,0,0,1,.4.59C822.906,1482.183,817.968,1486.1,811.723,1486.1Z" transform="translate(-810.283 -1475.761)"/>
    </g>
    <g id="Grupo_10344" data-name="Grupo 10344" transform="translate(545.787 1174.781)">
      <path id="Trazado_19929" data-name="Trazado 19929" d="M834.446,1369.57a.506.506,0,0,1-.505-.5v-50.637a.506.506,0,0,1,1.012,0v50.637A.506.506,0,0,1,834.446,1369.57Z" transform="translate(-833.94 -1317.925)"/>
    </g>
    <g id="Grupo_10345" data-name="Grupo 10345" transform="translate(385.155 1091.548)">
      <path id="Trazado_19930" data-name="Trazado 19930" d="M704.041,1217.1a.506.506,0,0,1-.506-.5v-36.844a11.384,11.384,0,0,0-11.1-11.619H543.409a.5.5,0,1,1,0-1.008H692.431a12.392,12.392,0,0,1,12.115,12.627v36.844A.506.506,0,0,1,704.041,1217.1Z" transform="translate(-542.903 -1167.122)"/>
    </g>
    <g id="Grupo_10346" data-name="Grupo 10346" transform="translate(279.04 1091.548)">
      <path id="Trazado_19931" data-name="Trazado 19931" d="M351.147,1273.822a.506.506,0,0,1-.506-.5v-93.569a12.392,12.392,0,0,1,12.115-12.627h9.358a.5.5,0,1,1,0,1.008h-9.358a11.384,11.384,0,0,0-11.1,11.619v93.569A.506.506,0,0,1,351.147,1273.822Z" transform="translate(-350.641 -1167.122)"/>
    </g>
    <g id="Grupo_10347" data-name="Grupo 10347" transform="translate(279.04 1238.876)">
      <path id="Trazado_19932" data-name="Trazado 19932" d="M536.6,1467.409H362.756a12.393,12.393,0,0,1-12.115-12.627v-20.224a.506.506,0,0,1,1.012,0v20.224a11.384,11.384,0,0,0,11.1,11.619H536.6a.5.5,0,1,1,0,1.008Z" transform="translate(-350.641 -1434.054)"/>
    </g>
    <g id="Grupo_10353" data-name="Grupo 10353" transform="translate(502.666 1031.186)">
      <g id="Grupo_10348" data-name="Grupo 10348" transform="translate(0 0)">
        <path id="Trazado_19933" data-name="Trazado 19933" d="M854.292,1156.738H840.2a.5.5,0,1,1,0-1.008h13.59v-96.965H756.824V1118a.506.506,0,0,1-1.012,0v-59.735a.506.506,0,0,1,.506-.5h97.975a.506.506,0,0,1,.506.5v97.973A.507.507,0,0,1,854.292,1156.738Z" transform="translate(-755.812 -1057.757)"/>
      </g>
      <g id="Grupo_10349" data-name="Grupo 10349" transform="translate(43.847 97.973)">
        <path id="Trazado_19934" data-name="Trazado 19934" d="M875.793,1236.274H835.761a.5.5,0,1,1,0-1.008h40.032a.5.5,0,1,1,0,1.008Z" transform="translate(-835.255 -1235.266)"/>
      </g>
      <g id="Grupo_10350" data-name="Grupo 10350" transform="translate(9.163 20.526)">
        <path id="Trazado_19935" data-name="Trazado 19935" d="M791.246,1135.165a.506.506,0,0,1-.505-.5v-38.705H773.426v38.705a.506.506,0,0,1-1.012,0v-39.209a.506.506,0,0,1,.506-.5h18.326a.506.506,0,0,1,.506.5v39.209A.506.506,0,0,1,791.246,1135.165Z" transform="translate(-772.414 -1094.947)"/>
      </g>
      <g id="Grupo_10351" data-name="Grupo 10351" transform="translate(39.825 42.025)">
        <path id="Trazado_19936" data-name="Trazado 19936" d="M846.8,1170.328H832.5a.5.5,0,1,1,0-1.008h13.8v-34.413H828.98v21.671a.506.506,0,0,1-1.012,0V1134.4a.506.506,0,0,1,.506-.5H846.8a.506.506,0,0,1,.506.5v35.421A.506.506,0,0,1,846.8,1170.328Z" transform="translate(-827.968 -1133.898)"/>
      </g>
      <g id="Grupo_10352" data-name="Grupo 10352" transform="translate(70.485 54.889)">
        <path id="Trazado_19937" data-name="Trazado 19937" d="M902.35,1180.771H884.024a.506.506,0,0,1-.506-.5V1157.71a.506.506,0,0,1,.506-.5H902.35a.506.506,0,0,1,.505.5v22.557A.505.505,0,0,1,902.35,1180.771Zm-17.821-1.008h17.315v-21.549H884.53Z" transform="translate(-883.518 -1157.206)"/>
      </g>
    </g>
    <g id="Grupo_10354" data-name="Grupo 10354" transform="translate(261.703 1137.072)">
      <path id="Trazado_19938" data-name="Trazado 19938" d="M319.734,1251.8a.486.486,0,0,1-.268-.079.5.5,0,0,1-.16-.691,3.28,3.28,0,0,1,1.93-1.368,3.135,3.135,0,0,1,2.452.58.506.506,0,0,1-.562.842,2.135,2.135,0,0,0-1.67-.435,2.289,2.289,0,0,0-1.295.918A.5.5,0,0,1,319.734,1251.8Z" transform="translate(-319.229 -1249.604)"/>
    </g>
    <g id="Grupo_10359" data-name="Grupo 10359" transform="translate(267.199 1197.499)">
      <g id="Grupo_10358" data-name="Grupo 10358" transform="translate(0 0)">
        <g id="Grupo_10355" data-name="Grupo 10355" transform="translate(14.011 6.177)">
          <path id="Trazado_19939" data-name="Trazado 19939" d="M355.078,1399.325a.5.5,0,0,1-.416-.789l18.919-27.572a.47.47,0,0,1,.169-.155,3.057,3.057,0,0,1,2.706-.353,3.649,3.649,0,0,1,1.3.922,2.965,2.965,0,0,1,.5,3.691,3.757,3.757,0,0,1,1.53,4.36c-1.282,4.382-17.349,18.712-24.629,19.889A.3.3,0,0,1,355.078,1399.325Zm19.266-27.691-18.1,26.388c7.649-2.391,21.567-15.414,22.581-18.874a2.827,2.827,0,0,0-1.507-3.456.5.5,0,0,1-.286-.349.51.51,0,0,1,.108-.443,1.971,1.971,0,0,0-.112-2.83,2.647,2.647,0,0,0-.939-.673A2.036,2.036,0,0,0,374.344,1371.634Z" transform="translate(-354.573 -1370.278)"/>
        </g>
        <g id="Grupo_10356" data-name="Grupo 10356">
          <path id="Trazado_19940" data-name="Trazado 19940" d="M329.692,1378.156a.507.507,0,0,1-.4-.811c1.9-2.516,6.359-10.96,7.351-13.224.166-.381.308-.8.454-1.228.642-1.879,1.468-4.191,4.482-3.751a2.233,2.233,0,0,1,1.594,1.12c.851,1.433.757,4.076-.249,6.9-1.4,3.921-1.048,4.954.087,5.494,1.593.763,5.577-2.294,6.888-3.3a72.289,72.289,0,0,0,5.505-5.152c.5-.5.927-.929,1.215-1.207,1.548-1.487,3.885-3.737,6.444-1.364a3.123,3.123,0,0,1,1.144,2.3c0,1.649-1.563,3.082-2.7,4.126-.227.209-.439.4-.619.583a89.441,89.441,0,0,1-8.843,7.338.562.562,0,0,1-.221.076l-22.078,2.1Zm11.139-18.064c-1.59,0-2.13,1.217-2.78,3.126-.157.457-.31.9-.486,1.307a129.4,129.4,0,0,1-6.834,12.522l20.87-1.98a91.46,91.46,0,0,0,8.569-7.14c.189-.187.412-.389.65-.608,1-.918,2.371-2.175,2.372-3.384a2.131,2.131,0,0,0-.818-1.559c-1.572-1.455-2.938-.68-5.059,1.35-.285.274-.7.7-1.2,1.192a72.448,72.448,0,0,1-5.608,5.246c-2.867,2.186-6.056,4.3-7.933,3.406-2.153-1.026-1.853-3.251-.6-6.747.879-2.47,1.012-4.9.329-6.042a1.209,1.209,0,0,0-.878-.637A3.931,3.931,0,0,0,340.831,1360.091Z" transform="translate(-329.187 -1359.087)"/>
        </g>
        <g id="Grupo_10357" data-name="Grupo 10357" transform="translate(25.504 10.623)">
          <path id="Trazado_19941" data-name="Trazado 19941" d="M375.9,1389.476a.5.5,0,0,1-.317-.9s2.625-2.121,5.556-4.522a48.6,48.6,0,0,0,5.318-5.538.5.5,0,0,1,.578-.147c.531.259.628.562.5.81a.482.482,0,0,1-.536.267,46.793,46.793,0,0,1-5.219,5.39c-2.935,2.405-5.563,4.526-5.563,4.526A.5.5,0,0,1,375.9,1389.476Z" transform="translate(-375.395 -1378.334)"/>
        </g>
      </g>
    </g>
    <g id="Grupo_10360" data-name="Grupo 10360" transform="translate(614.745 1175.964)">
      <path id="Trazado_19942" data-name="Trazado 19942" d="M979.421,1344.106c-6.342,0-8.058-4.98-8.508-7.219-1.5,1.494-5.053,4.659-8.116,4.659a3.848,3.848,0,0,1-3.107-1.559c-3.732-4.847,6.622-18.629,7.065-19.216a.506.506,0,0,1,.806.612c-2.885,3.809-9.781,14.47-7.071,17.984a2.75,2.75,0,0,0,2.18,1.166c3.6,0,8.171-5.026,8.218-5.076a.493.493,0,0,1,.541-.137.5.5,0,0,1,.337.45c.017.3.485,7.327,7.655,7.327,5.971,0,8.395-16.285,8.823-22.56a.5.5,0,0,1,.538-.468.5.5,0,0,1,.47.54C989.185,1321.567,987.551,1344.106,979.421,1344.106Z" transform="translate(-958.88 -1320.068)"/>
    </g>
    <g id="Grupo_10361" data-name="Grupo 10361" transform="translate(441.967 1006.498)">
      <path id="Trazado_19943" data-name="Trazado 19943" d="M700.457,1059.058a.5.5,0,0,1-.5-.432,36.893,36.893,0,0,0-1.328-5.6.506.506,0,0,1,.333-.634.52.52,0,0,1,.632.332,37.753,37.753,0,0,1,1.364,5.753.507.507,0,0,1-.43.572A.415.415,0,0,1,700.457,1059.058Zm-3.4-11.119a.508.508,0,0,1-.463-.3,52.236,52.236,0,0,0-2.616-5.127.505.505,0,0,1,.872-.512,53.721,53.721,0,0,1,2.67,5.228.506.506,0,0,1-.257.666A.52.52,0,0,1,697.056,1047.94Zm-5.836-10.034a.5.5,0,0,1-.406-.205,52.986,52.986,0,0,0-3.673-4.432.5.5,0,1,1,.742-.684,53.114,53.114,0,0,1,3.742,4.519.5.5,0,0,1-.1.705A.513.513,0,0,1,691.22,1037.906Zm-7.874-8.523a.5.5,0,0,1-.331-.123,55.439,55.439,0,0,0-4.534-3.542.5.5,0,0,1-.124-.7.51.51,0,0,1,.7-.126,56.715,56.715,0,0,1,4.616,3.608.5.5,0,0,1-.331.885Zm-9.491-6.661a.513.513,0,0,1-.248-.065c-1.624-.914-3.354-1.785-5.143-2.589a.506.506,0,0,1-.254-.666.513.513,0,0,1,.668-.256c1.816.814,3.575,1.7,5.226,2.632a.5.5,0,0,1-.248.943Zm-10.578-4.756c-1.926-.645-3.78-1.214-5.678-1.718a.505.505,0,0,1-.358-.619.519.519,0,0,1,.618-.36c1.922.512,3.8,1.091,5.586,1.718a.5.5,0,0,1-.167.98Zm-11.206-3c-1.916-.364-3.833-.677-5.795-.933a.5.5,0,1,1,.129-1c1.984.259,3.923.572,5.763.932a.505.505,0,0,1-.1,1Z" transform="translate(-645.835 -1013.027)"/>
    </g>
    <g id="Grupo_10362" data-name="Grupo 10362" transform="translate(357.689 1005.674)">
      <path id="Trazado_19944" data-name="Trazado 19944" d="M493.643,1058.58c-.411-.1-.564-.378-.485-.648a48.7,48.7,0,0,1,2.135-5.505.512.512,0,0,1,.667-.256.5.5,0,0,1,.255.666,49,49,0,0,0-2.088,5.383A.5.5,0,0,1,493.643,1058.58Zm4.7-10.661a.493.493,0,0,1-.243-.061.5.5,0,0,1-.2-.684c.927-1.692,1.941-3.384,3.011-5.03a.518.518,0,0,1,.7-.148.508.508,0,0,1,.148.7c-1.057,1.62-2.058,3.291-2.972,4.958A.5.5,0,0,1,498.346,1047.919Zm6.362-9.732a.5.5,0,0,1-.31-.1.507.507,0,0,1-.09-.71c1.19-1.537,2.459-3.046,3.77-4.483a.506.506,0,1,1,.745.684c-1.292,1.411-2.542,2.9-3.716,4.418A.5.5,0,0,1,504.707,1038.187Zm7.846-8.569a.5.5,0,0,1-.342-.875c1.449-1.332,2.958-2.6,4.486-3.766a.5.5,0,1,1,.612.8c-1.5,1.149-2.987,2.4-4.414,3.708A.5.5,0,0,1,512.553,1029.618Zm9.219-7.057a.5.5,0,0,1-.268-.933c1.662-1.044,3.377-2.012,5.1-2.877a.5.5,0,0,1,.678.223.5.5,0,0,1-.225.677c-1.691.849-3.377,1.8-5.014,2.834A.519.519,0,0,1,521.772,1022.561Zm10.351-5.232a.5.5,0,0,1-.47-.321.506.506,0,0,1,.285-.655c1.809-.709,3.671-1.346,5.535-1.89a.506.506,0,0,1,.281.972c-1.834.533-3.667,1.159-5.445,1.862A.558.558,0,0,1,532.123,1017.329Zm11.129-3.266a.505.505,0,0,1-.1-1c1.9-.378,3.836-.688,5.771-.911a.464.464,0,0,1,.562.443.5.5,0,0,1-.443.558c-1.908.224-3.824.525-5.693.9A.849.849,0,0,1,543.252,1014.063Zm11.528-1.39a.5.5,0,0,1-.029-1.008q1.339-.076,2.646-.126a.484.484,0,0,1,.522.486.5.5,0,0,1-.486.522q-1.3.049-2.624.126Z" transform="translate(-493.138 -1011.534)"/>
    </g>
    <g id="Grupo_10363" data-name="Grupo 10363" transform="translate(608.507 1075.792)">
      <path id="Trazado_19945" data-name="Trazado 19945" d="M1014.588,1235.5a.493.493,0,0,1-.294-.093.507.507,0,0,1-.117-.706c1.093-1.523,2.167-3.146,3.193-4.817a.5.5,0,0,1,.695-.17.506.506,0,0,1,.166.695c-1.039,1.7-2.126,3.338-3.233,4.882A.5.5,0,0,1,1014.588,1235.5Zm6.091-9.908a.511.511,0,0,1-.236-.057.5.5,0,0,1-.21-.681c.9-1.725,1.75-3.475,2.509-5.206a.5.5,0,0,1,.925.4c-.77,1.757-1.625,3.528-2.542,5.271A.5.5,0,0,1,1020.678,1225.592Zm4.666-10.651c-.432-.122-.569-.41-.475-.673.644-1.818,1.217-3.672,1.7-5.513a.5.5,0,1,1,.976.259c-.491,1.865-1.071,3.744-1.726,5.592A.5.5,0,0,1,1025.344,1214.941Zm2.951-11.233a.519.519,0,0,1-.5-.587c.326-1.919.562-3.841.7-5.721a.54.54,0,0,1,.54-.468.506.506,0,0,1,.468.54c-.14,1.912-.38,3.867-.709,5.815A.505.505,0,0,1,1028.3,1203.708Zm.828-11.572a.5.5,0,0,1-.5-.49,53.781,53.781,0,0,0-.484-5.736.505.505,0,1,1,1-.137,53.893,53.893,0,0,1,.491,5.844.5.5,0,0,1-.49.518Zm-1.605-11.5a.506.506,0,0,1-.49-.378,52.777,52.777,0,0,0-1.723-5.491.505.505,0,0,1,.947-.353,53.653,53.653,0,0,1,1.755,5.592.508.508,0,0,1-.365.616A.5.5,0,0,1,1027.517,1180.64Zm-4.065-10.863a.5.5,0,0,1-.452-.277c-.843-1.688-1.795-3.377-2.828-5.019a.505.505,0,0,1,.159-.7.522.522,0,0,1,.7.158c1.051,1.674,2.018,3.392,2.877,5.105a.5.5,0,0,1-.227.677A.466.466,0,0,1,1023.452,1169.777Zm-6.173-9.829a.51.51,0,0,1-.4-.195,49,49,0,0,0-3.771-4.342.505.505,0,0,1,.724-.706,50.382,50.382,0,0,1,3.847,4.429.5.5,0,0,1-.092.709A.492.492,0,0,1,1017.279,1159.948Zm-8.11-8.288a.5.5,0,0,1-.316-.112,48.306,48.306,0,0,0-4.686-3.327.5.5,0,0,1-.162-.694.515.515,0,0,1,.7-.162,48.376,48.376,0,0,1,4.786,3.4.5.5,0,0,1-.317.9Zm-9.833-6.15a.516.516,0,0,1-.218-.047,54.588,54.588,0,0,0-5.321-2.2.506.506,0,0,1-.31-.645.493.493,0,0,1,.644-.306,56.319,56.319,0,0,1,5.42,2.232.505.505,0,0,1,.24.673A.5.5,0,0,1,999.336,1145.51Zm-51.255-3.107a.505.505,0,0,1-.14-.99c.087-.025,2.182-.63,5.727-1.281a.5.5,0,0,1,.589.407.505.505,0,0,1-.406.587c-3.49.641-5.608,1.253-5.629,1.26A.472.472,0,0,1,948.081,1142.4Zm40.313-.763c-1.923-.461-3.826-.842-5.777-1.149a.506.506,0,0,1-.421-.58.525.525,0,0,1,.576-.421c1.982.313,3.913.7,5.745,1.156a.5.5,0,0,1-.122.993Zm-28.885-1.383a.5.5,0,0,1-.061-1c1.928-.234,3.887-.411,5.822-.526a.505.505,0,0,1,.061,1.008c-1.918.115-3.855.288-5.761.518A.342.342,0,0,1,959.51,1140.257Zm17.412-.432c-1.939-.147-3.881-.23-5.813-.241a.5.5,0,0,1,0-1.008c1.958.011,3.924.094,5.849.242a.5.5,0,0,1-.04,1.008Z" transform="translate(-947.577 -1138.575)"/>
    </g>
    <g id="Grupo_10364" data-name="Grupo 10364" transform="translate(423.614 998.456)">
      <path id="Trazado_19946" data-name="Trazado 19946" d="M620.839,1014.966a8.255,8.255,0,1,1,8.257-8.253A8.263,8.263,0,0,1,620.839,1014.966Zm0-15.5a7.245,7.245,0,1,0,7.246,7.246A7.252,7.252,0,0,0,620.839,999.468Z" transform="translate(-612.583 -998.456)"/>
    </g>
  </g>
</svg>
