<svg xmlns="http://www.w3.org/2000/svg" width="155" height="155" viewBox="0 0 155 155">
  <g id="Grupo_10634" data-name="Grupo 10634" transform="translate(-237.5 -532.5)">
    <circle id="Elipse_606" data-name="Elipse 606" cx="77.5" cy="77.5" r="77.5" transform="translate(237.5 532.5)" fill="#ffd55c"/>
    <g id="Grupo_10633" data-name="Grupo 10633">
      <g id="Grupo_10623" data-name="Grupo 10623">
        <g id="Grupo_10622" data-name="Grupo 10622">
          <g id="Grupo_10621" data-name="Grupo 10621">
            <path id="Trazado_20359" data-name="Trazado 20359" d="M370.76,535.754h-3.03l-.884,4.415h4.8Z" fill="#ff6d3b"/>
            <path id="Trazado_20360" data-name="Trazado 20360" d="M360.562,537.672l-2.628,1.516,1.439,4.273,4.161-2.411Z" fill="#ff6d3b"/>
            <path id="Trazado_20361" data-name="Trazado 20361" d="M352.685,544.442l-1.515,2.623,3.379,2.976,2.4-4.16Z" fill="#ff6d3b"/>
            <path id="Trazado_20362" data-name="Trazado 20362" d="M349.246,554.238l0,3.033,4.415.885v-4.8Z" fill="#ff6d3b"/>
            <path id="Trazado_20363" data-name="Trazado 20363" d="M351.17,564.443l1.515,2.623,4.268-1.438-2.4-4.158Z" fill="#ff6d3b"/>
            <path id="Trazado_20364" data-name="Trazado 20364" d="M357.934,572.319l2.628,1.513,2.972-3.377-4.161-2.408Z" fill="#ff6d3b"/>
            <path id="Trazado_20365" data-name="Trazado 20365" d="M367.729,575.755h3.03l.887-4.417h-4.8Z" fill="#ff6d3b"/>
            <path id="Trazado_20366" data-name="Trazado 20366" d="M377.935,573.832l2.626-1.513-1.442-4.272-4.16,2.408Z" fill="#ff6d3b"/>
            <path id="Trazado_20367" data-name="Trazado 20367" d="M385.81,567.066l1.515-2.623-3.381-2.973-2.4,4.158Z" fill="#ff6d3b"/>
            <path id="Trazado_20368" data-name="Trazado 20368" d="M389.246,557.271v-3.033l-4.413-.884v4.8Z" fill="#ff6d3b"/>
            <path id="Trazado_20369" data-name="Trazado 20369" d="M387.324,547.065l-1.515-2.621-4.266,1.437,2.4,4.16Z" fill="#ff6d3b"/>
            <path id="Trazado_20370" data-name="Trazado 20370" d="M380.561,539.188l-2.631-1.511-2.971,3.374,4.16,2.411Z" fill="#ff6d3b"/>
          </g>
        </g>
        <path id="Trazado_20371" data-name="Trazado 20371" d="M369.244,539.989a15.766,15.766,0,1,0,15.772,15.765A15.764,15.764,0,0,0,369.244,539.989Zm0,20.131a4.366,4.366,0,1,1,4.367-4.366A4.372,4.372,0,0,1,369.244,560.12Z" fill="#f15424"/>
        <path id="Trazado_20372" data-name="Trazado 20372" d="M369.244,548.188a7.566,7.566,0,1,0,7.571,7.566A7.564,7.564,0,0,0,369.244,548.188Zm0,11.35a3.784,3.784,0,1,1,3.788-3.784A3.782,3.782,0,0,1,369.244,559.538Z" fill="#fff"/>
      </g>
      <g id="Grupo_10632" data-name="Grupo 10632">
        <g id="Grupo_10625" data-name="Grupo 10625">
          <g id="Grupo_10624" data-name="Grupo 10624">
            <path id="Trazado_20373" data-name="Trazado 20373" d="M318.787,560H311.21L309,571.033H321Z" fill="#3e4959"/>
            <path id="Trazado_20374" data-name="Trazado 20374" d="M293.29,564.792l-6.57,3.791,3.6,10.684,10.4-6.027Z" fill="#3e4959"/>
            <path id="Trazado_20375" data-name="Trazado 20375" d="M273.6,581.717l-3.787,6.559,8.447,7.437,6.012-10.4Z" fill="#3e4959"/>
            <path id="Trazado_20376" data-name="Trazado 20376" d="M265,606.208l.006,7.583L276.044,616V604Z" fill="#3e4959"/>
            <path id="Trazado_20377" data-name="Trazado 20377" d="M269.81,631.721l3.787,6.558,10.672-3.6-6.012-10.392Z" fill="#3e4959"/>
            <path id="Trazado_20378" data-name="Trazado 20378" d="M286.719,651.41l6.57,3.782,7.431-8.441-10.4-6.021Z" fill="#3e4959"/>
            <path id="Trazado_20379" data-name="Trazado 20379" d="M311.21,660h7.577L321,648.961H309Z" fill="#3e4959"/>
            <path id="Trazado_20380" data-name="Trazado 20380" d="M336.722,655.192l6.564-3.782-3.6-10.681-10.4,6.021Z" fill="#3e4959"/>
            <path id="Trazado_20381" data-name="Trazado 20381" d="M356.41,638.278l3.788-6.558-8.45-7.431-6,10.392Z" fill="#3e4959"/>
            <path id="Trazado_20382" data-name="Trazado 20382" d="M365,613.791v-7.583L353.968,604v12Z" fill="#3e4959"/>
            <path id="Trazado_20383" data-name="Trazado 20383" d="M360.2,588.276l-3.788-6.552-10.667,3.592,6,10.4Z" fill="#3e4959"/>
            <path id="Trazado_20384" data-name="Trazado 20384" d="M343.287,568.583,336.71,564.8l-7.425,8.435,10.4,6.027Z" fill="#3e4959"/>
          </g>
        </g>
        <path id="Trazado_20385" data-name="Trazado 20385" d="M315,570.585A39.413,39.413,0,1,0,354.427,610,39.411,39.411,0,0,0,315,570.585Zm0,50.33A10.917,10.917,0,1,1,325.916,610,10.93,10.93,0,0,1,315,620.915Z" fill="#242d3c"/>
        <g id="Grupo_10631" data-name="Grupo 10631">
          <path id="Trazado_20386" data-name="Trazado 20386" d="M347.5,610A32.5,32.5,0,1,1,315,577.5,32.5,32.5,0,0,1,347.5,610Z" fill="#d9d8d7"/>
          <path id="Trazado_20387" data-name="Trazado 20387" d="M346.012,610A31.009,31.009,0,1,1,315,578.99,31.01,31.01,0,0,1,346.012,610Z" fill="#fff"/>
          <g id="Grupo_10627" data-name="Grupo 10627">
            <g id="Grupo_10626" data-name="Grupo 10626">
              <path id="Trazado_20388" data-name="Trazado 20388" d="M315.809,581.612a.808.808,0,1,1-.81-.8A.806.806,0,0,1,315.809,581.612Z" fill="#242d3c"/>
              <path id="Trazado_20389" data-name="Trazado 20389" d="M301.511,585.014a.808.808,0,0,1-.3,1.1.8.8,0,1,1,.3-1.1Z" fill="#242d3c"/>
              <path id="Trazado_20390" data-name="Trazado 20390" d="M290.826,595.107a.805.805,0,1,1-1.1.3A.805.805,0,0,1,290.826,595.107Z" fill="#242d3c"/>
              <path id="Trazado_20391" data-name="Trazado 20391" d="M286.62,609.192a.8.8,0,1,1-.806.808A.8.8,0,0,1,286.62,609.192Z" fill="#242d3c"/>
              <path id="Trazado_20392" data-name="Trazado 20392" d="M290.019,623.49a.805.805,0,1,1-.29,1.106A.808.808,0,0,1,290.019,623.49Z" fill="#242d3c"/>
              <path id="Trazado_20393" data-name="Trazado 20393" d="M300.116,634.173a.806.806,0,1,1,.3,1.1A.8.8,0,0,1,300.116,634.173Z" fill="#242d3c"/>
              <path id="Trazado_20394" data-name="Trazado 20394" d="M314.194,638.38a.808.808,0,1,1,.813.8A.808.808,0,0,1,314.194,638.38Z" fill="#242d3c"/>
              <path id="Trazado_20395" data-name="Trazado 20395" d="M328.5,634.979a.8.8,0,1,1,1.1.293A.8.8,0,0,1,328.5,634.979Z" fill="#242d3c"/>
              <path id="Trazado_20396" data-name="Trazado 20396" d="M339.181,624.884a.8.8,0,1,1,1.1-.3A.8.8,0,0,1,339.181,624.884Z" fill="#242d3c"/>
              <path id="Trazado_20397" data-name="Trazado 20397" d="M343.385,610.8a.807.807,0,0,1-.8-.808.8.8,0,0,1,1.609,0A.808.808,0,0,1,343.385,610.8Z" fill="#242d3c"/>
              <path id="Trazado_20398" data-name="Trazado 20398" d="M339.983,596.5a.8.8,0,1,1-.8-1.394.8.8,0,1,1,.8,1.394Z" fill="#242d3c"/>
              <path id="Trazado_20399" data-name="Trazado 20399" d="M329.89,585.82a.8.8,0,1,1-.3-1.1A.8.8,0,0,1,329.89,585.82Z" fill="#242d3c"/>
            </g>
          </g>
          <g id="Grupo_10630" data-name="Grupo 10630">
            <rect id="Rect치ngulo_2227" data-name="Rect치ngulo 2227" width="1.952" height="15.756" transform="translate(314.029 609.998)" fill="#242d3c"/>
            <rect id="Rect치ngulo_2228" data-name="Rect치ngulo 2228" width="19.497" height="1.302" transform="translate(316.617 609.346)" fill="#242d3c"/>
            <path id="Trazado_20400" data-name="Trazado 20400" d="M318.629,610a3.626,3.626,0,1,1-3.63-3.625A3.629,3.629,0,0,1,318.629,610Z" fill="#242d3c"/>
            <g id="Grupo_10629" data-name="Grupo 10629">
              <g id="Grupo_10628" data-name="Grupo 10628">
                <path id="Trazado_20401" data-name="Trazado 20401" d="M318.731,613.176l-.548.553L299.8,595.346l.549-.554Z" fill="#ff6d3b"/>
                <path id="Trazado_20402" data-name="Trazado 20402" d="M317.419,610A2.419,2.419,0,1,1,315,607.58,2.42,2.42,0,0,1,317.419,610Z" fill="#ff6d3b"/>
              </g>
            </g>
            <path id="Trazado_20403" data-name="Trazado 20403" d="M316.215,610A1.21,1.21,0,1,1,315,608.789,1.212,1.212,0,0,1,316.215,610Z" fill="#242d3c"/>
          </g>
        </g>
      </g>
    </g>
  </g>
</svg>
