<svg xmlns="http://www.w3.org/2000/svg" xmlns:xlink="http://www.w3.org/1999/xlink" width="155" height="155" viewBox="0 0 155 155">
  <defs>
    <clipPath id="clip-path">
      <circle id="Elipse_608" data-name="Elipse 608" cx="77.5" cy="77.5" r="77.5" transform="translate(792.5 717.5)" fill="none"/>
    </clipPath>
  </defs>
  <g id="Grupo_10643" data-name="Grupo 10643" transform="translate(-792.5 -717.5)">
    <circle id="Elipse_607" data-name="Elipse 607" cx="77.5" cy="77.5" r="77.5" transform="translate(792.5 717.5)" fill="#ffd55c"/>
    <g id="Grupo_10642" data-name="Grupo 10642">
      <g id="Grupo_10637" data-name="Grupo 10637">
        <rect id="Rectángulo_2229" data-name="Rectángulo 2229" width="106.605" height="69.291" transform="translate(816.697 791.674)" fill="#3e4959"/>
        <path id="Trazado_20404" data-name="Trazado 20404" d="M816.7,812.268a22.5,22.5,0,0,0,21.317,15.246h63.972A22.527,22.527,0,0,0,923.3,812.268V791.674H816.7Z" fill="#d9d8d7" fill-rule="evenodd" style="mix-blend-mode: multiply;isolation: isolate"/>
        <path id="Trazado_20405" data-name="Trazado 20405" d="M923.3,781.014H816.7v23.981a21.318,21.318,0,0,0,21.317,21.318h63.972A21.33,21.33,0,0,0,923.3,804.995Z" fill="#3e4959" fill-rule="evenodd"/>
        <rect id="Rectángulo_2230" data-name="Rectángulo 2230" width="26.526" height="0.805" transform="translate(827.886 780.209)" fill="#131a26"/>
        <rect id="Rectángulo_2231" data-name="Rectángulo 2231" width="26.523" height="0.805" transform="translate(885.59 780.209)" fill="#131a26"/>
        <rect id="Rectángulo_2232" data-name="Rectángulo 2232" width="8.524" height="82.353" transform="translate(838.014 779.406)" fill="#131a26"/>
        <rect id="Rectángulo_2233" data-name="Rectángulo 2233" width="8.528" height="82.353" transform="translate(893.458 779.406)" fill="#131a26"/>
        <rect id="Rectángulo_2234" data-name="Rectángulo 2234" width="18.656" height="6.392" transform="translate(832.959 800.467)" fill="#3e4959"/>
        <rect id="Rectángulo_2235" data-name="Rectángulo 2235" width="18.66" height="6.392" transform="translate(888.377 800.467)" fill="#3e4959"/>
        <g id="Grupo_10635" data-name="Grupo 10635">
          <path id="Trazado_20406" data-name="Trazado 20406" d="M847.346,821.79a3.226,3.226,0,0,0-2.278-.94h-5.582a3.142,3.142,0,0,0-2.256.94,3.188,3.188,0,0,0-.939,2.27v7.713h1.723v-1.321h-.395V824.06a1.8,1.8,0,0,1,.551-1.327,1.834,1.834,0,0,1,1.316-.548h5.582a1.851,1.851,0,0,1,1.874,1.875v6.392h-.4v1.321h1.746V824.06A3.2,3.2,0,0,0,847.346,821.79Z" fill="#fff"/>
          <path id="Trazado_20407" data-name="Trazado 20407" d="M841.621,825.224h1.33v-3.71a.526.526,0,0,0-.168-.368.48.48,0,0,0-.363-.156h-.267a.55.55,0,0,0-.389.156.518.518,0,0,0-.143.368Z" fill="#cccbca"/>
        </g>
        <g id="Grupo_10636" data-name="Grupo 10636">
          <path id="Trazado_20408" data-name="Trazado 20408" d="M902.769,821.79a3.16,3.16,0,0,0-2.258-.94h-5.583a3.237,3.237,0,0,0-2.279.94,3.2,3.2,0,0,0-.938,2.27v7.713h1.747v-1.321h-.4V824.06a1.859,1.859,0,0,1,1.871-1.875h5.583a1.838,1.838,0,0,1,1.317.548,1.818,1.818,0,0,1,.558,1.327v6.392h-.4v1.321h1.719V824.06A3.2,3.2,0,0,0,902.769,821.79Z" fill="#fff"/>
          <path id="Trazado_20409" data-name="Trazado 20409" d="M897.043,825.224h1.33v-3.71a.5.5,0,0,0-.143-.368.53.53,0,0,0-.384-.156h-.262a.483.483,0,0,0-.371.156.537.537,0,0,0-.17.368Z" fill="#cccbca"/>
        </g>
        <path id="Trazado_20410" data-name="Trazado 20410" d="M888,769.941a4.546,4.546,0,0,0-3.2-1.323H855.211A4.541,4.541,0,0,0,852,769.941a4.488,4.488,0,0,0-1.319,3.21v7.058h3.724v-7.058a.82.82,0,0,1,.8-.808h29.582a.767.767,0,0,1,.558.238.759.759,0,0,1,.241.57v7.058h3.726v-7.058A4.509,4.509,0,0,0,888,769.941Z" fill="#131a26"/>
      </g>
      <g id="Grupo_10641" data-name="Grupo 10641">
        <g id="Grupo_10640" data-name="Grupo 10640" clip-path="url(#clip-path)">
          <g id="Grupo_10639" data-name="Grupo 10639">
            <g id="Grupo_10638" data-name="Grupo 10638">
              <rect id="Rectángulo_2236" data-name="Rectángulo 2236" width="31.183" height="4.092" transform="translate(854.409 738.09)" fill="#e6e5e5"/>
              <rect id="Rectángulo_2237" data-name="Rectángulo 2237" width="34.113" height="35.423" transform="translate(852.943 702.667)" fill="#242d3c"/>
              <path id="Trazado_20411" data-name="Trazado 20411" d="M858.246,734.615a1.828,1.828,0,1,1,1.83-1.829A1.827,1.827,0,0,1,858.246,734.615Z" fill="#fff"/>
            </g>
            <path id="Trazado_20412" data-name="Trazado 20412" d="M884.447,750.782a3.888,3.888,0,0,0-2.754-1.135v-7.465H858.308v7.465a3.884,3.884,0,0,0-3.9,3.9l.005,21.255a5.06,5.06,0,0,1,8.935,2.758,3.9,3.9,0,0,1,7.795,0,3.9,3.9,0,1,1,7.791,0,3.9,3.9,0,0,0,6.655-2.758l0-21.255A3.892,3.892,0,0,0,884.447,750.782Z" fill="#fff"/>
          </g>
        </g>
      </g>
    </g>
  </g>
</svg>
