<svg xmlns="http://www.w3.org/2000/svg" xmlns:xlink="http://www.w3.org/1999/xlink" width="155" height="155" viewBox="0 0 155 155">
  <defs>
    <clipPath id="clip-path">
      <circle id="Elipse_612" data-name="Elipse 612" cx="77.5" cy="77.5" r="77.5" transform="translate(52.5 52.5)" fill="none"/>
    </clipPath>
  </defs>
  <g id="Grupo_10689" data-name="Grupo 10689" transform="translate(-52.5 -52.5)">
    <path id="Trazado_20507" data-name="Trazado 20507" d="M77.5,0A77.5,77.5,0,1,1,0,77.5,77.5,77.5,0,0,1,77.5,0Z" transform="translate(52.5 52.5)" fill="#fed55c"/>
    <g id="Grupo_10688" data-name="Grupo 10688">
      <g id="Grupo_10669" data-name="Grupo 10669">
        <g id="Grupo_10668" data-name="Grupo 10668" clip-path="url(#clip-path)">
          <rect id="Rectángulo_2265" data-name="Rectángulo 2265" width="62.694" height="52.702" transform="translate(166.864 97.998)" fill="#fff"/>
        </g>
      </g>
      <g id="Grupo_10685" data-name="Grupo 10685">
        <g id="Grupo_10672" data-name="Grupo 10672">
          <path id="Trazado_20433" data-name="Trazado 20433" d="M59.912,130V182.44A4.558,4.558,0,0,0,64.467,187H152.53a4.555,4.555,0,0,0,4.551-4.56V130Z" fill="#d9d8d7"/>
          <path id="Trazado_20434" data-name="Trazado 20434" d="M120.563,183.06a.365.365,0,0,1-.365.367h-23.4a.362.362,0,0,1-.361-.367V169.166a.363.363,0,0,1,.361-.369h23.4a.367.367,0,0,1,.365.369Z" fill="#fff"/>
          <g id="Grupo_10671" data-name="Grupo 10671">
            <path id="Trazado_20435" data-name="Trazado 20435" d="M70.605,140.3a.288.288,0,0,1-.288.287H65.979a.281.281,0,0,1-.275-.287v-4.333a.277.277,0,0,1,.275-.283h4.338a.284.284,0,0,1,.288.283Z" fill="#fff"/>
            <path id="Trazado_20436" data-name="Trazado 20436" d="M79.584,146.27a.279.279,0,0,1-.276.286H74.971a.287.287,0,0,1-.287-.286v-4.339a.29.29,0,0,1,.287-.28h4.337a.282.282,0,0,1,.276.28Z" fill="#fff"/>
            <path id="Trazado_20437" data-name="Trazado 20437" d="M81,152.248a.282.282,0,0,1-.279.281H76.39a.286.286,0,0,1-.289-.281v-4.341a.285.285,0,0,1,.289-.282h4.334a.282.282,0,0,1,.279.282Z" fill="#fff"/>
            <path id="Trazado_20438" data-name="Trazado 20438" d="M78.085,158.217a.286.286,0,0,1-.289.284H73.457a.282.282,0,0,1-.276-.284v-4.338a.28.28,0,0,1,.276-.282H77.8a.283.283,0,0,1,.289.282Z" fill="#fff"/>
            <path id="Trazado_20439" data-name="Trazado 20439" d="M70.605,164.941a.286.286,0,0,1-.288.285H65.979a.278.278,0,0,1-.275-.285v-5.093a.282.282,0,0,1,.275-.283h4.338a.289.289,0,0,1,.288.283Z" fill="#fff"/>
            <path id="Trazado_20440" data-name="Trazado 20440" d="M76.555,164.941a.28.28,0,0,1-.279.285H71.941a.282.282,0,0,1-.288-.285v-5.093a.286.286,0,0,1,.288-.283h4.335a.284.284,0,0,1,.279.283Z" fill="#fff"/>
            <path id="Trazado_20441" data-name="Trazado 20441" d="M82.518,164.941a.289.289,0,0,1-.289.285H77.894a.28.28,0,0,1-.279-.285v-5.093a.283.283,0,0,1,.279-.283h4.335a.293.293,0,0,1,.289.283Z" fill="#fff"/>
            <path id="Trazado_20442" data-name="Trazado 20442" d="M133.387,164.941a.29.29,0,0,1-.289.285h-4.337a.288.288,0,0,1-.286-.285v-5.093a.291.291,0,0,1,.286-.283H133.1a.294.294,0,0,1,.289.283Z" fill="#fff"/>
            <path id="Trazado_20443" data-name="Trazado 20443" d="M139.35,164.941a.278.278,0,0,1-.275.285h-4.334a.283.283,0,0,1-.292-.285v-2.262a.282.282,0,0,1,.292-.281h4.334a.277.277,0,0,1,.275.281Z" fill="#fff"/>
            <path id="Trazado_20444" data-name="Trazado 20444" d="M151.289,164.941a.278.278,0,0,1-.275.285h-4.336a.289.289,0,0,1-.289-.285v-2.262a.288.288,0,0,1,.289-.281h4.336a.277.277,0,0,1,.275.281Z" fill="#fff"/>
            <path id="Trazado_20445" data-name="Trazado 20445" d="M90.022,164.941a.28.28,0,0,1-.274.285h-5.9a.282.282,0,0,1-.286-.285v-5.093a.285.285,0,0,1,.286-.283h5.9a.283.283,0,0,1,.274.283Z" fill="#fff"/>
            <path id="Trazado_20446" data-name="Trazado 20446" d="M127.412,164.941a.282.282,0,0,1-.289.285h-5.894a.284.284,0,0,1-.28-.285v-5.093a.288.288,0,0,1,.28-.283h5.894a.285.285,0,0,1,.289.283Z" fill="#fff"/>
            <path id="Trazado_20447" data-name="Trazado 20447" d="M119.88,164.941a.28.28,0,0,1-.279.285H91.373a.282.282,0,0,1-.278-.285v-5.093a.285.285,0,0,1,.278-.283H119.6a.284.284,0,0,1,.279.283Z" fill="#fff"/>
            <path id="Trazado_20448" data-name="Trazado 20448" d="M84.045,158.217a.28.28,0,0,1-.274.284H79.434a.292.292,0,0,1-.288-.284v-4.338a.289.289,0,0,1,.288-.282h4.337a.277.277,0,0,1,.274.282Z" fill="#fff"/>
            <path id="Trazado_20449" data-name="Trazado 20449" d="M90.022,158.217a.282.282,0,0,1-.274.284H85.41a.285.285,0,0,1-.288-.284v-4.338a.282.282,0,0,1,.288-.282h4.338a.279.279,0,0,1,.274.282Z" fill="#fff"/>
            <path id="Trazado_20450" data-name="Trazado 20450" d="M96,158.217a.285.285,0,0,1-.291.284H91.373a.284.284,0,0,1-.278-.284v-4.338a.281.281,0,0,1,.278-.282h4.336a.283.283,0,0,1,.291.282Z" fill="#fff"/>
            <path id="Trazado_20451" data-name="Trazado 20451" d="M101.962,158.217a.282.282,0,0,1-.277.284H97.349a.287.287,0,0,1-.287-.284v-4.338a.285.285,0,0,1,.287-.282h4.336a.279.279,0,0,1,.277.282Z" fill="#fff"/>
            <path id="Trazado_20452" data-name="Trazado 20452" d="M107.939,158.217a.285.285,0,0,1-.288.284h-4.328a.286.286,0,0,1-.287-.284v-4.338a.283.283,0,0,1,.287-.282h4.328a.283.283,0,0,1,.288.282Z" fill="#fff"/>
            <path id="Trazado_20453" data-name="Trazado 20453" d="M113.914,158.217a.282.282,0,0,1-.285.284H109.29a.283.283,0,0,1-.279-.284v-4.338a.28.28,0,0,1,.279-.282h4.339a.28.28,0,0,1,.285.282Z" fill="#fff"/>
            <path id="Rectángulo_2266" data-name="Rectángulo 2266" d="M.284,0H4.619A.283.283,0,0,1,4.9.283V4.622A.282.282,0,0,1,4.62,4.9H.279A.279.279,0,0,1,0,4.625V.284A.284.284,0,0,1,.284,0Z" transform="translate(114.978 153.597)" fill="#fff"/>
            <path id="Trazado_20454" data-name="Trazado 20454" d="M125.854,158.217a.284.284,0,0,1-.286.284h-4.339a.287.287,0,0,1-.28-.284v-4.338a.285.285,0,0,1,.28-.282h4.339a.282.282,0,0,1,.286.282Z" fill="#fff"/>
            <path id="Rectángulo_2267" data-name="Rectángulo 2267" d="M.284,0H4.623A.281.281,0,0,1,4.9.281V4.623a.281.281,0,0,1-.281.281H.284A.284.284,0,0,1,0,4.62V.284A.284.284,0,0,1,.284,0Z" transform="translate(126.925 153.597)" fill="#fff"/>
            <path id="Trazado_20455" data-name="Trazado 20455" d="M137.8,158.217a.284.284,0,0,1-.28.284h-4.335a.286.286,0,0,1-.29-.284v-4.338a.284.284,0,0,1,.29-.282h4.335a.282.282,0,0,1,.28.282Z" fill="#fff"/>
            <path id="Trazado_20456" data-name="Trazado 20456" d="M151.289,158.217a.28.28,0,0,1-.272.284H139.2a.282.282,0,0,1-.286-.284v-4.338a.28.28,0,0,1,.286-.282h11.817a.277.277,0,0,1,.272.282Z" fill="#fff"/>
            <path id="Trazado_20457" data-name="Trazado 20457" d="M86.979,152.248a.282.282,0,0,1-.287.281h-4.34a.281.281,0,0,1-.276-.281v-4.341a.28.28,0,0,1,.276-.282h4.34a.282.282,0,0,1,.287.282Z" fill="#fff"/>
            <path id="Trazado_20458" data-name="Trazado 20458" d="M92.942,152.248a.28.28,0,0,1-.277.281H88.328a.284.284,0,0,1-.285-.281v-4.341a.284.284,0,0,1,.285-.282h4.337a.28.28,0,0,1,.277.282Z" fill="#fff"/>
            <path id="Trazado_20459" data-name="Trazado 20459" d="M98.917,152.248a.282.282,0,0,1-.285.281H94.294a.282.282,0,0,1-.276-.281v-4.341a.281.281,0,0,1,.276-.282h4.338a.282.282,0,0,1,.285.282Z" fill="#fff"/>
            <path id="Trazado_20460" data-name="Trazado 20460" d="M104.895,152.248a.292.292,0,0,1-.286.281h-4.34a.281.281,0,0,1-.277-.281v-4.341a.281.281,0,0,1,.277-.282h4.34a.292.292,0,0,1,.286.282Z" fill="#fff"/>
            <path id="Trazado_20461" data-name="Trazado 20461" d="M110.861,152.248a.284.284,0,0,1-.277.281h-4.338a.286.286,0,0,1-.29-.281v-4.341a.286.286,0,0,1,.29-.282h4.338a.283.283,0,0,1,.277.282Z" fill="#fff"/>
            <path id="Trazado_20462" data-name="Trazado 20462" d="M116.832,152.248a.282.282,0,0,1-.286.281h-4.338a.281.281,0,0,1-.275-.281v-4.341a.281.281,0,0,1,.275-.282h4.338a.282.282,0,0,1,.286.282Z" fill="#fff"/>
            <path id="Trazado_20463" data-name="Trazado 20463" d="M122.807,152.248a.288.288,0,0,1-.284.281h-4.337a.29.29,0,0,1-.287-.281v-4.341a.289.289,0,0,1,.287-.282h4.337a.287.287,0,0,1,.284.282Z" fill="#fff"/>
            <path id="Trazado_20464" data-name="Trazado 20464" d="M128.775,152.248a.282.282,0,0,1-.278.281h-4.336a.284.284,0,0,1-.288-.281v-4.341a.284.284,0,0,1,.288-.282H128.5a.281.281,0,0,1,.278.282Z" fill="#fff"/>
            <path id="Trazado_20465" data-name="Trazado 20465" d="M134.75,152.248a.283.283,0,0,1-.288.281h-4.337a.28.28,0,0,1-.277-.281v-4.341a.28.28,0,0,1,.277-.282h4.337a.282.282,0,0,1,.288.282Z" fill="#fff"/>
            <path id="Rectángulo_2268" data-name="Rectángulo 2268" d="M.281,0H4.623A.281.281,0,0,1,4.9.281v4.34a.282.282,0,0,1-.282.282H.282A.282.282,0,0,1,0,4.622V.281A.281.281,0,0,1,.281,0Z" transform="translate(135.813 147.625)" fill="#fff"/>
            <path id="Trazado_20466" data-name="Trazado 20466" d="M146.69,152.248a.282.282,0,0,1-.277.281h-4.338a.28.28,0,0,1-.285-.281v-4.341a.28.28,0,0,1,.285-.282h4.338a.282.282,0,0,1,.277.282Z" fill="#fff"/>
            <path id="Trazado_20467" data-name="Trazado 20467" d="M85.564,146.27a.284.284,0,0,1-.284.286H80.939a.285.285,0,0,1-.283-.286v-4.339a.289.289,0,0,1,.283-.28H85.28a.288.288,0,0,1,.284.28Z" fill="#fff"/>
            <path id="Trazado_20468" data-name="Trazado 20468" d="M91.539,146.27a.29.29,0,0,1-.291.286H86.913a.281.281,0,0,1-.278-.286v-4.339a.284.284,0,0,1,.278-.28h4.335a.294.294,0,0,1,.291.28Z" fill="#fff"/>
            <path id="Trazado_20469" data-name="Trazado 20469" d="M97.5,146.27a.283.283,0,0,1-.279.286H92.888a.284.284,0,0,1-.288-.286v-4.339a.288.288,0,0,1,.288-.28h4.336a.286.286,0,0,1,.279.28Z" fill="#fff"/>
            <path id="Trazado_20470" data-name="Trazado 20470" d="M103.475,146.27a.282.282,0,0,1-.284.286H98.852a.281.281,0,0,1-.279-.286v-4.339a.284.284,0,0,1,.279-.28h4.339a.286.286,0,0,1,.284.28Z" fill="#fff"/>
            <path id="Trazado_20471" data-name="Trazado 20471" d="M109.454,146.27a.292.292,0,0,1-.291.286h-4.336a.284.284,0,0,1-.279-.286v-4.339a.287.287,0,0,1,.279-.28h4.336a.3.3,0,0,1,.291.28Z" fill="#fff"/>
            <path id="Trazado_20472" data-name="Trazado 20472" d="M115.414,146.27a.278.278,0,0,1-.273.286H110.8a.284.284,0,0,1-.287-.286v-4.339a.288.288,0,0,1,.287-.28h4.34a.281.281,0,0,1,.273.28Z" fill="#fff"/>
            <path id="Trazado_20473" data-name="Trazado 20473" d="M121.392,146.27a.281.281,0,0,1-.287.286h-4.337a.28.28,0,0,1-.277-.286v-4.339a.284.284,0,0,1,.277-.28h4.337a.284.284,0,0,1,.287.28Z" fill="#fff"/>
            <path id="Trazado_20474" data-name="Trazado 20474" d="M127.371,146.27a.292.292,0,0,1-.291.286h-4.335a.288.288,0,0,1-.288-.286v-4.339a.292.292,0,0,1,.288-.28h4.335a.3.3,0,0,1,.291.28Z" fill="#fff"/>
            <path id="Trazado_20475" data-name="Trazado 20475" d="M133.331,146.27a.279.279,0,0,1-.272.286h-4.341a.282.282,0,0,1-.287-.286v-4.339a.286.286,0,0,1,.287-.28h4.341a.283.283,0,0,1,.272.28Z" fill="#fff"/>
            <path id="Trazado_20476" data-name="Trazado 20476" d="M139.308,146.27a.284.284,0,0,1-.287.286h-4.337a.281.281,0,0,1-.276-.286v-4.339a.284.284,0,0,1,.276-.28h4.337a.287.287,0,0,1,.287.28Z" fill="#fff"/>
            <path id="Trazado_20477" data-name="Trazado 20477" d="M145.272,146.27a.279.279,0,0,1-.274.286h-4.341a.29.29,0,0,1-.285-.286v-4.339a.294.294,0,0,1,.285-.28H145a.282.282,0,0,1,.274.28Z" fill="#fff"/>
            <path id="Trazado_20478" data-name="Trazado 20478" d="M73.623,146.27a.284.284,0,0,1-.29.286H65.979a.28.28,0,0,1-.275-.286v-4.339a.283.283,0,0,1,.275-.28h7.354a.287.287,0,0,1,.29.28Z" fill="#fff"/>
            <path id="Trazado_20479" data-name="Trazado 20479" d="M151.289,140.3a.282.282,0,0,1-.275.287h-7.359a.284.284,0,0,1-.283-.287v-4.333a.28.28,0,0,1,.283-.283h7.359a.279.279,0,0,1,.275.283Z" fill="#fff"/>
            <path id="Trazado_20480" data-name="Trazado 20480" d="M75.029,152.248a.283.283,0,0,1-.281.281H65.979a.28.28,0,0,1-.275-.281v-4.341a.28.28,0,0,1,.275-.282h8.769a.282.282,0,0,1,.281.282Z" fill="#fff"/>
            <path id="Trazado_20481" data-name="Trazado 20481" d="M72.109,158.217a.283.283,0,0,1-.276.284H65.979a.281.281,0,0,1-.275-.284v-4.338a.278.278,0,0,1,.275-.282h5.854a.28.28,0,0,1,.276.282Z" fill="#fff"/>
            <path id="Trazado_20482" data-name="Trazado 20482" d="M76.569,140.3a.28.28,0,0,1-.278.287H71.957a.285.285,0,0,1-.289-.287v-4.333a.282.282,0,0,1,.289-.283h4.334a.277.277,0,0,1,.278.283Z" fill="#fff"/>
            <path id="Trazado_20483" data-name="Trazado 20483" d="M82.544,140.3a.284.284,0,0,1-.289.287H77.92a.28.28,0,0,1-.274-.287v-4.333a.276.276,0,0,1,.274-.283h4.335a.28.28,0,0,1,.289.283Z" fill="#fff"/>
            <path id="Trazado_20484" data-name="Trazado 20484" d="M88.524,140.3a.294.294,0,0,1-.293.287H83.9a.289.289,0,0,1-.286-.287v-4.333a.285.285,0,0,1,.286-.283h4.335a.291.291,0,0,1,.293.283Z" fill="#fff"/>
            <path id="Trazado_20485" data-name="Trazado 20485" d="M94.488,140.3a.284.284,0,0,1-.28.287H89.871a.286.286,0,0,1-.289-.287v-4.333a.282.282,0,0,1,.289-.283h4.337a.28.28,0,0,1,.28.283Z" fill="#fff"/>
            <path id="Trazado_20486" data-name="Trazado 20486" d="M100.457,140.3a.281.281,0,0,1-.284.287H95.834a.284.284,0,0,1-.278-.287v-4.333a.28.28,0,0,1,.278-.283h4.339a.277.277,0,0,1,.284.283Z" fill="#fff"/>
            <path id="Rectángulo_2269" data-name="Rectángulo 2269" d="M.287,0h4.33A.287.287,0,0,1,4.9.287V4.62a.283.283,0,0,1-.283.283H.282A.282.282,0,0,1,0,4.621V.287A.287.287,0,0,1,.287,0Z" transform="translate(101.524 135.682)" fill="#fff"/>
            <path id="Trazado_20487" data-name="Trazado 20487" d="M112.4,140.3a.281.281,0,0,1-.276.287h-4.335a.283.283,0,0,1-.289-.287v-4.333a.28.28,0,0,1,.289-.283h4.335a.277.277,0,0,1,.276.283Z" fill="#fff"/>
            <path id="Trazado_20488" data-name="Trazado 20488" d="M118.376,140.3a.286.286,0,0,1-.29.287H113.75a.282.282,0,0,1-.278-.287v-4.333a.279.279,0,0,1,.278-.283h4.336a.282.282,0,0,1,.29.283Z" fill="#fff"/>
            <path id="Trazado_20489" data-name="Trazado 20489" d="M124.34,140.3a.281.281,0,0,1-.275.287h-4.337a.288.288,0,0,1-.29-.287v-4.333a.285.285,0,0,1,.29-.283h4.337a.277.277,0,0,1,.275.283Z" fill="#fff"/>
            <path id="Trazado_20490" data-name="Trazado 20490" d="M130.318,140.3a.283.283,0,0,1-.284.287h-4.342a.283.283,0,0,1-.277-.287v-4.333a.28.28,0,0,1,.277-.283h4.342a.28.28,0,0,1,.284.283Z" fill="#fff"/>
            <path id="Trazado_20491" data-name="Trazado 20491" d="M136.295,140.3a.294.294,0,0,1-.291.287h-4.337a.281.281,0,0,1-.277-.287v-4.333a.277.277,0,0,1,.277-.283H136a.29.29,0,0,1,.291.283Z" fill="#fff"/>
            <path id="Trazado_20492" data-name="Trazado 20492" d="M142.257,140.3a.281.281,0,0,1-.276.287h-4.339a.284.284,0,0,1-.286-.287v-4.333a.28.28,0,0,1,.286-.283h4.339a.277.277,0,0,1,.276.283Z" fill="#fff"/>
            <g id="Grupo_10670" data-name="Grupo 10670">
              <path id="Trazado_20493" data-name="Trazado 20493" d="M140.425,162.555v2.386a.252.252,0,0,0,.084.2.272.272,0,0,0,.192.086h4.339a.281.281,0,0,0,.2-.086.257.257,0,0,0,.083-.2v-2.386Z" fill="#fff"/>
              <path id="Trazado_20494" data-name="Trazado 20494" d="M145.326,162.235v-2.387a.258.258,0,0,0-.083-.2.287.287,0,0,0-.2-.088H140.7a.278.278,0,0,0-.192.088.252.252,0,0,0-.084.2v2.387Z" fill="#fff"/>
            </g>
            <path id="Trazado_20495" data-name="Trazado 20495" d="M146.675,141.651a.285.285,0,0,0-.2.087.312.312,0,0,0-.083.193v4.339a.335.335,0,0,0,.083.205.31.31,0,0,0,.2.081h1.131v5.692a.246.246,0,0,0,.084.194.272.272,0,0,0,.205.087h2.919a.285.285,0,0,0,.2-.087.281.281,0,0,0,.072-.194V141.931a.284.284,0,0,0-.072-.193.281.281,0,0,0-.2-.087Z" fill="#fff"/>
          </g>
        </g>
        <g id="Grupo_10684" data-name="Grupo 10684">
          <path id="Trazado_20496" data-name="Trazado 20496" d="M64.467,73a4.558,4.558,0,0,0-4.555,4.56V130h97.169V77.56A4.555,4.555,0,0,0,152.53,73Z" fill="#232e38"/>
          <g id="Grupo_10673" data-name="Grupo 10673">
            <path id="Trazado_20497" data-name="Trazado 20497" d="M109.59,75.525a1.093,1.093,0,1,1-2.185,0,1.093,1.093,0,0,1,2.185,0Z" fill="#474f59"/>
            <path id="Trazado_20498" data-name="Trazado 20498" d="M108.943,75.525a.445.445,0,1,1-.444-.44A.448.448,0,0,1,108.943,75.525Z" fill="#fff"/>
          </g>
          <g id="Grupo_10676" data-name="Grupo 10676">
            <g id="Grupo_10674" data-name="Grupo 10674">
              <rect id="Rectángulo_2270" data-name="Rectángulo 2270" width="6.38" height="4.104" transform="translate(148.105 127.946)" fill="#474f59"/>
              <rect id="Rectángulo_2271" data-name="Rectángulo 2271" width="6.38" height="2.051" transform="translate(148.105 129.999)" fill="#232e38"/>
            </g>
            <g id="Grupo_10675" data-name="Grupo 10675">
              <rect id="Rectángulo_2272" data-name="Rectángulo 2272" width="6.381" height="4.104" transform="translate(62.507 127.946)" fill="#474f59"/>
              <rect id="Rectángulo_2273" data-name="Rectángulo 2273" width="6.381" height="2.051" transform="translate(62.507 129.999)" fill="#232e38"/>
            </g>
          </g>
          <rect id="Rectángulo_2274" data-name="Rectángulo 2274" width="85.585" height="45.633" transform="translate(65.704 78.683)" fill="#fff"/>
          <g id="Grupo_10683" data-name="Grupo 10683">
            <g id="Grupo_10677" data-name="Grupo 10677">
              <rect id="Rectángulo_2275" data-name="Rectángulo 2275" width="3.795" height="1.384" transform="translate(71.26 82.499)" fill="#e6e5e5"/>
            </g>
            <rect id="Rectángulo_2276" data-name="Rectángulo 2276" width="3.795" height="1.385" transform="translate(71.26 91.605)" fill="#e6e5e5"/>
            <g id="Grupo_10678" data-name="Grupo 10678">
              <rect id="Rectángulo_2277" data-name="Rectángulo 2277" width="17.877" height="1.384" transform="translate(76.035 82.499)" fill="#e6e5e5"/>
            </g>
            <rect id="Rectángulo_2278" data-name="Rectángulo 2278" width="13.691" height="1.385" transform="translate(76.035 91.605)" fill="#e6e5e5"/>
            <rect id="Rectángulo_2279" data-name="Rectángulo 2279" width="6.026" height="1.384" transform="translate(75.055 85.959)" fill="#e6e5e5"/>
            <rect id="Rectángulo_2280" data-name="Rectángulo 2280" width="6.026" height="1.384" transform="translate(75.055 101.985)" fill="#e6e5e5"/>
            <rect id="Rectángulo_2281" data-name="Rectángulo 2281" width="15.77" height="1.384" transform="translate(82.51 101.985)" fill="#e6e5e5"/>
            <g id="Grupo_10679" data-name="Grupo 10679">
              <rect id="Rectángulo_2282" data-name="Rectángulo 2282" width="4.968" height="1.384" transform="translate(78.464 112.198)" fill="#e6e5e5"/>
            </g>
            <rect id="Rectángulo_2283" data-name="Rectángulo 2283" width="6.47" height="1.385" transform="translate(113.013 119.115)" fill="#e6e5e5"/>
            <rect id="Rectángulo_2284" data-name="Rectángulo 2284" width="11.342" height="1.384" transform="translate(100.063 101.985)" fill="#e6e5e5"/>
            <rect id="Rectángulo_2285" data-name="Rectángulo 2285" width="6.942" height="1.384" transform="translate(113.713 101.985)" fill="#e6e5e5"/>
            <rect id="Rectángulo_2286" data-name="Rectángulo 2286" width="9.001" height="1.385" transform="translate(75.055 95.067)" fill="#e6e5e5"/>
            <rect id="Rectángulo_2287" data-name="Rectángulo 2287" width="12.763" height="1.386" transform="translate(75.055 98.527)" fill="#e6e5e5"/>
            <rect id="Rectángulo_2288" data-name="Rectángulo 2288" width="14.63" height="1.384" transform="translate(78.464 115.658)" fill="#e6e5e5"/>
            <rect id="Rectángulo_2289" data-name="Rectángulo 2289" width="13.443" height="1.385" transform="translate(78.464 119.115)" fill="#e6e5e5"/>
            <rect id="Rectángulo_2290" data-name="Rectángulo 2290" width="13.936" height="1.385" transform="translate(96.258 119.115)" fill="#e6e5e5"/>
            <g id="Grupo_10680" data-name="Grupo 10680">
              <rect id="Rectángulo_2291" data-name="Rectángulo 2291" width="5.17" height="1.384" transform="translate(71.26 112.198)" fill="#e6e5e5"/>
            </g>
            <rect id="Rectángulo_2292" data-name="Rectángulo 2292" width="12.766" height="1.386" transform="translate(89.182 98.527)" fill="#e6e5e5"/>
            <g id="Grupo_10681" data-name="Grupo 10681">
              <rect id="Rectángulo_2293" data-name="Rectángulo 2293" width="7.455" height="1.386" transform="translate(115.411 98.527)" fill="#e6e5e5"/>
            </g>
            <g id="Grupo_10682" data-name="Grupo 10682">
              <rect id="Rectángulo_2294" data-name="Rectángulo 2294" width="7.975" height="1.386" transform="translate(102.827 98.527)" fill="#e6e5e5"/>
            </g>
            <rect id="Rectángulo_2295" data-name="Rectángulo 2295" width="13.822" height="1.385" transform="translate(86.999 95.067)" fill="#e6e5e5"/>
            <rect id="Rectángulo_2296" data-name="Rectángulo 2296" width="5.548" height="1.384" transform="translate(84.848 85.959)" fill="#e6e5e5"/>
          </g>
        </g>
      </g>
      <g id="Grupo_10686" data-name="Grupo 10686">
        <path id="Rectángulo_2297" data-name="Rectángulo 2297" d="M7.358,0h5.351a7.357,7.357,0,0,1,7.357,7.357V28.411a7.358,7.358,0,0,1-7.358,7.358H7.357A7.357,7.357,0,0,1,0,28.412V7.358A7.358,7.358,0,0,1,7.358,0Z" transform="translate(166.864 168.436)" fill="#fff"/>
        <path id="Trazado_20499" data-name="Trazado 20499" d="M183.542,169.612a7.491,7.491,0,0,1,.118,1.278v15.969A12.45,12.45,0,0,1,171.217,199.3h-.265a7.31,7.31,0,0,1-3.97-1.18,7.383,7.383,0,0,0,7.239,6.082h5.352a7.379,7.379,0,0,0,7.357-7.359V175.794A7.369,7.369,0,0,0,183.542,169.612Z" fill="#e6e5e5"/>
        <path id="Trazado_20500" data-name="Trazado 20500" d="M178.567,176.132a1.67,1.67,0,1,1-1.671-1.676A1.67,1.67,0,0,1,178.567,176.132Z" fill="#232e38"/>
      </g>
      <g id="Grupo_10687" data-name="Grupo 10687">
        <path id="Trazado_20501" data-name="Trazado 20501" d="M198.218,128.9l-2.3-7.57-2.305,7.57Z" fill="#f2f2f2"/>
        <path id="Trazado_20502" data-name="Trazado 20502" d="M195.915,121.329l2.3,7.57h-1.449Z" fill="#cccbca"/>
        <rect id="Rectángulo_2298" data-name="Rectángulo 2298" width="4.608" height="54.131" transform="translate(193.609 128.899)" fill="#474f59"/>
        <rect id="Rectángulo_2299" data-name="Rectángulo 2299" width="1.449" height="54.131" transform="translate(196.769 128.899)" fill="#232e38"/>
        <path id="Trazado_20503" data-name="Trazado 20503" d="M196.814,124.291l-.9-2.963-.907,2.963Z" fill="#353f49"/>
        <path id="Trazado_20504" data-name="Trazado 20504" d="M196.814,124.291l-.9-2.963.334,2.963Z" fill="#232e38"/>
        <rect id="Rectángulo_2300" data-name="Rectángulo 2300" width="4.608" height="2.674" transform="translate(193.609 183.03)" fill="#f2f2f2"/>
        <rect id="Rectángulo_2301" data-name="Rectángulo 2301" width="1.449" height="2.674" transform="translate(196.769 183.03)" fill="#cccbca"/>
        <path id="Trazado_20505" data-name="Trazado 20505" d="M198.218,188.584a2.306,2.306,0,0,1-2.3,2.3h0a2.306,2.306,0,0,1-2.305-2.3V185.7h4.609Z" fill="#ff916e"/>
        <path id="Trazado_20506" data-name="Trazado 20506" d="M194.285,190.213a2.269,2.269,0,0,1-.549-.9,2.366,2.366,0,0,0,.729.126,2.3,2.3,0,0,0,2.3-2.3V185.7h1.449v2.88a2.3,2.3,0,0,1-3.933,1.629Z" fill="#f77b55"/>
      </g>
    </g>
  </g>
</svg>
