<svg xmlns="http://www.w3.org/2000/svg" width="155" height="155" viewBox="0 0 155 155">
  <g id="Grupo_10661" data-name="Grupo 10661" transform="translate(-422.5 -902.5)">
    <circle id="Elipse_609" data-name="Elipse 609" cx="77.5" cy="77.5" r="77.5" transform="translate(422.5 902.5)" fill="#ffd55c"/>
    <g id="Grupo_10660" data-name="Grupo 10660">
      <g id="Grupo_10644" data-name="Grupo 10644">
        <path id="Trazado_20413" data-name="Trazado 20413" d="M563.318,906.5a10.183,10.183,0,0,0-10.181,10.182H573.5A10.182,10.182,0,0,0,563.318,906.5Z" fill="#cccbca"/>
        <path id="Trazado_20414" data-name="Trazado 20414" d="M497.769,906.5a10.182,10.182,0,0,0-10.182,10.182v82.542h55.369a10.181,10.181,0,0,0,10.181-10.18V916.682A10.183,10.183,0,0,1,563.318,906.5Z" fill="#f2f2f2"/>
        <path id="Trazado_20415" data-name="Trazado 20415" d="M522.594,960.776a10.183,10.183,0,0,0-10.182,10.182v72.36a10.18,10.18,0,0,1-10.181,10.182h-55.37V970.958a10.183,10.183,0,0,1,10.182-10.182Z" fill="#fff"/>
        <path id="Trazado_20416" data-name="Trazado 20416" d="M532.774,989.044V970.958a10.181,10.181,0,1,0-20.362,0v28.266h30.544A10.183,10.183,0,0,1,532.774,989.044Z" fill="#cccbca"/>
        <path id="Trazado_20417" data-name="Trazado 20417" d="M446.861,1043.318V1053.5h-10.18A10.179,10.179,0,0,0,446.861,1043.318Z" fill="#cccbca"/>
        <path id="Trazado_20418" data-name="Trazado 20418" d="M492.053,1043.318H426.5a10.18,10.18,0,0,0,10.181,10.182h65.55A10.18,10.18,0,0,1,492.053,1043.318Z" fill="#cccbca"/>
      </g>
      <g id="Grupo_10654" data-name="Grupo 10654">
        <g id="Grupo_10645" data-name="Grupo 10645">
          <rect id="Rectángulo_2238" data-name="Rectángulo 2238" width="50.883" height="2.262" transform="translate(454.195 970.958)" fill="#242d3c"/>
          <rect id="Rectángulo_2239" data-name="Rectángulo 2239" width="25.441" height="2.26" transform="translate(454.195 975.482)" fill="#e6e5e5"/>
        </g>
        <g id="Grupo_10647" data-name="Grupo 10647">
          <g id="Grupo_10646" data-name="Grupo 10646">
            <rect id="Rectángulo_2240" data-name="Rectángulo 2240" width="50.883" height="2.263" transform="translate(454.195 1027.355)" fill="#e6e5e5"/>
            <rect id="Rectángulo_2241" data-name="Rectángulo 2241" width="50.883" height="2.261" transform="translate(454.195 1031.879)" fill="#e6e5e5"/>
            <rect id="Rectángulo_2242" data-name="Rectángulo 2242" width="25.441" height="2.263" transform="translate(454.195 1036.401)" fill="#e6e5e5"/>
          </g>
        </g>
        <g id="Grupo_10653" data-name="Grupo 10653">
          <g id="Grupo_10648" data-name="Grupo 10648">
            <path id="Trazado_20419" data-name="Trazado 20419" d="M483.148,1014.551a16.963,16.963,0,1,1-18.48-27.671l6.484,15.674Z" fill="#242d3c"/>
            <path id="Trazado_20420" data-name="Trazado 20420" d="M488.117,1002.55H471.154V985.588A16.964,16.964,0,0,1,488.117,1002.55Z" fill="#ff6d3b"/>
            <path id="Trazado_20421" data-name="Trazado 20421" d="M488.117,1002.55a16.919,16.919,0,0,1-4.967,12l-12-12Z" fill="#e6e5e5"/>
            <path id="Trazado_20422" data-name="Trazado 20422" d="M471.152,985.587v16.967l-6.484-15.674A16.773,16.773,0,0,1,471.152,985.587Z" fill="#ffd55c"/>
          </g>
          <g id="Grupo_10652" data-name="Grupo 10652">
            <g id="Grupo_10649" data-name="Grupo 10649">
              <rect id="Rectángulo_2243" data-name="Rectángulo 2243" width="3.957" height="3.957" transform="translate(492.179 985.588)" fill="#ff6d3b"/>
              <rect id="Rectángulo_2244" data-name="Rectángulo 2244" width="3.956" height="3.958" transform="translate(492.179 995.576)" fill="#e6e5e5"/>
              <rect id="Rectángulo_2245" data-name="Rectángulo 2245" width="3.956" height="3.959" transform="translate(492.18 1005.565)" fill="#242d3c"/>
              <rect id="Rectángulo_2246" data-name="Rectángulo 2246" width="3.957" height="3.957" transform="translate(492.179 1015.555)" fill="#ffd55c"/>
            </g>
            <g id="Grupo_10651" data-name="Grupo 10651">
              <g id="Grupo_10650" data-name="Grupo 10650">
                <rect id="Rectángulo_2247" data-name="Rectángulo 2247" width="6.28" height="2.261" transform="translate(498.798 987.284)" fill="#e6e5e5"/>
                <rect id="Rectángulo_2248" data-name="Rectángulo 2248" width="6.28" height="2.262" transform="translate(498.798 997.273)" fill="#e6e5e5"/>
                <rect id="Rectángulo_2249" data-name="Rectángulo 2249" width="6.28" height="2.263" transform="translate(498.798 1007.261)" fill="#e6e5e5"/>
                <rect id="Rectángulo_2250" data-name="Rectángulo 2250" width="6.28" height="2.261" transform="translate(498.798 1017.25)" fill="#e6e5e5"/>
              </g>
            </g>
          </g>
        </g>
      </g>
      <g id="Grupo_10659" data-name="Grupo 10659">
        <g id="Grupo_10656" data-name="Grupo 10656">
          <g id="Grupo_10655" data-name="Grupo 10655">
            <rect id="Rectángulo_2251" data-name="Rectángulo 2251" width="7.27" height="6.095" transform="translate(494.92 938.578)" fill="#242d3c"/>
            <rect id="Rectángulo_2252" data-name="Rectángulo 2252" width="7.273" height="14.851" transform="translate(505.824 929.822)" fill="#cccbca"/>
            <rect id="Rectángulo_2253" data-name="Rectángulo 2253" width="7.267" height="9.942" transform="translate(516.729 934.731)" fill="#cccbca"/>
            <rect id="Rectángulo_2254" data-name="Rectángulo 2254" width="7.268" height="27.991" transform="translate(527.633 916.682)" fill="#ff6d3b"/>
            <rect id="Rectángulo_2255" data-name="Rectángulo 2255" width="7.266" height="17.972" transform="translate(538.539 926.701)" fill="#cccbca"/>
          </g>
        </g>
        <g id="Grupo_10657" data-name="Grupo 10657">
          <rect id="Rectángulo_2256" data-name="Rectángulo 2256" width="50.884" height="2.263" transform="translate(494.92 949.331)" fill="#cccbca"/>
          <rect id="Rectángulo_2257" data-name="Rectángulo 2257" width="50.884" height="2.263" transform="translate(494.92 953.856)" fill="#cccbca"/>
        </g>
        <g id="Grupo_10658" data-name="Grupo 10658">
          <rect id="Rectángulo_2258" data-name="Rectángulo 2258" width="18.176" height="6.784" transform="translate(494.92 916.682)" fill="#cccbca"/>
          <rect id="Rectángulo_2259" data-name="Rectángulo 2259" width="13.653" height="2.261" transform="translate(497.182 918.943)" fill="#fff"/>
          <path id="Trazado_20423" data-name="Trazado 20423" d="M509.46,927.1l-3.636-3.638h3.636Z" fill="#cccbca"/>
        </g>
      </g>
    </g>
  </g>
</svg>
